<svg width="23" height="17" viewBox="0 0 23 17" fill="none" xmlns="http://www.w3.org/2000/svg">
<path d="M1.66211 8.84799C1.57877 8.62348 1.57877 8.37651 1.66211 8.15199C2.47381 6.18385 3.85163 4.50103 5.62089 3.31689C7.39014 2.13275 9.47116 1.50061 11.6001 1.50061C13.7291 1.50061 15.8101 2.13275 17.5793 3.31689C19.3486 4.50103 20.7264 6.18385 21.5381 8.15199C21.6215 8.37651 21.6215 8.62348 21.5381 8.84799C20.7264 10.8161 19.3486 12.499 17.5793 13.6831C15.8101 14.8672 13.7291 15.4994 11.6001 15.4994C9.47116 15.4994 7.39014 14.8672 5.62089 13.6831C3.85163 12.499 2.47381 10.8161 1.66211 8.84799Z" stroke="#9A9A9A" stroke-width="2" stroke-linecap="round" stroke-linejoin="round"/>
<path d="M11.6001 11.4999C13.257 11.4999 14.6001 10.1567 14.6001 8.49988C14.6001 6.84302 13.257 5.49988 11.6001 5.49988C9.94324 5.49988 8.6001 6.84302 8.6001 8.49988C8.6001 10.1567 9.94324 11.4999 11.6001 11.4999Z" stroke="#9A9A9A" stroke-width="2" stroke-linecap="round" stroke-linejoin="round"/>
</svg>
