<svg width="23" height="17" viewBox="0 0 23 17" fill="none" xmlns="http://www.w3.org/2000/svg">
<path d="M1.66211 9.12845C1.57877 8.90393 1.57877 8.65697 1.66211 8.43245C2.47381 6.4643 3.85163 4.78149 5.62089 3.59735C7.39014 2.41321 9.47116 1.78107 11.6001 1.78107C13.7291 1.78107 15.8101 2.41321 17.5793 3.59735C19.3486 4.78149 20.7264 6.4643 21.5381 8.43245C21.6215 8.65697 21.6215 8.90393 21.5381 9.12845C20.7264 11.0966 19.3486 12.7794 17.5793 13.9636C15.8101 15.1477 13.7291 15.7798 11.6001 15.7798C9.47116 15.7798 7.39014 15.1477 5.62089 13.9636C3.85163 12.7794 2.47381 11.0966 1.66211 9.12845Z" stroke="#9A9A9A" strokeWidth="2" strokeLinecap="round" strokeLinejoin="round"/>
<path d="M11.6001 11.7803C13.257 11.7803 14.6001 10.4372 14.6001 8.78033C14.6001 7.12348 13.257 5.78033 11.6001 5.78033C9.94324 5.78033 8.6001 7.12348 8.6001 8.78033C8.6001 10.4372 9.94324 11.7803 11.6001 11.7803Z" stroke="#9A9A9A" strokeWidth="2" strokeLinecap="round" strokeLinejoin="round"/>
</svg>
