<svg width="189" height="99" viewBox="0 0 189 99" fill="none" xmlns="http://www.w3.org/2000/svg">
<path d="M14.7046 66.85C10.1313 66.85 6.56128 65.5667 3.99461 63C1.47461 60.3867 0.214609 56.9567 0.214609 52.71C0.214609 48.93 0.961276 45.6167 2.45461 42.77C3.94794 39.9233 5.88461 37.73 8.26461 36.19C10.6446 34.65 13.1413 33.88 15.7546 33.88C18.3213 33.88 20.3046 34.65 21.7046 36.19C23.1513 37.6833 23.8746 39.62 23.8746 42C23.8746 43.96 23.4313 45.6167 22.5446 46.97C21.7046 48.3233 20.5846 49 19.1846 49C18.2979 49 17.5746 48.79 17.0146 48.37C16.5013 47.95 16.2446 47.3667 16.2446 46.62C16.2446 46.2933 16.2913 45.92 16.3846 45.5C16.4779 45.08 16.5479 44.7767 16.5946 44.59C16.8279 43.89 16.9446 43.2367 16.9446 42.63C16.9446 42.0233 16.7813 41.5567 16.4546 41.23C16.1746 40.9033 15.7546 40.74 15.1946 40.74C14.1213 40.74 13.1179 41.23 12.1846 42.21C11.2513 43.1433 10.5046 44.4267 9.94461 46.06C9.38461 47.6933 9.10461 49.49 9.10461 51.45C9.10461 56.8633 11.4613 59.57 16.1746 59.57C18.0879 59.57 20.1413 58.94 22.3346 57.68C24.5746 56.3733 26.7679 54.4367 28.9146 51.87C29.4746 51.2167 30.1046 50.89 30.8046 50.89C31.4113 50.89 31.8779 51.17 32.2046 51.73C32.5779 52.29 32.7646 53.06 32.7646 54.04C32.7646 55.8133 32.3213 57.26 31.4346 58.38C29.2413 61.0867 26.6046 63.1867 23.5246 64.68C20.4913 66.1267 17.5513 66.85 14.7046 66.85ZM62.4561 50.89C63.0628 50.89 63.5294 51.17 63.8561 51.73C64.2294 52.29 64.4161 53.06 64.4161 54.04C64.4161 55.9067 63.9728 57.3533 63.0861 58.38C60.9394 60.8533 58.7228 62.8833 56.4361 64.47C54.1961 66.0567 51.6294 66.85 48.7361 66.85C46.3561 66.85 44.5594 66.1733 43.3461 64.82C42.1328 63.42 41.5261 61.4133 41.5261 58.8C41.5261 57.4933 41.8528 55.16 42.5061 51.8C43.1128 48.86 43.4161 46.83 43.4161 45.71C43.4161 44.9633 43.1594 44.59 42.6461 44.59C42.0394 44.59 41.1761 45.3833 40.0561 46.97C38.9361 48.51 37.8161 50.5633 36.6961 53.13C35.5761 55.6967 34.6661 58.4033 33.9661 61.25C33.0794 64.9833 30.8861 66.85 27.3861 66.85C25.9861 66.85 25.0528 66.36 24.5861 65.38C24.1661 64.3533 23.9561 62.5333 23.9561 59.92C23.9561 58.4267 23.9794 57.2367 24.0261 56.35L24.0961 50.75C24.0961 43.5633 24.8194 36.0733 26.2661 28.28C27.7594 20.4867 29.9294 13.9533 32.7761 8.68C35.6694 3.36 39.1228 0.699996 43.1361 0.699996C45.2828 0.699996 47.0094 1.63333 48.3161 3.5C49.6694 5.32 50.3461 7.7 50.3461 10.64C50.3461 15.3533 48.9694 20.2533 46.2161 25.34C43.4628 30.38 38.9828 36.2833 32.7761 43.05C32.6361 45.4767 32.5661 47.9733 32.5661 50.54C34.1061 46.5733 35.8094 43.3533 37.6761 40.88C39.5894 38.36 41.4561 36.5633 43.2761 35.49C45.1428 34.4167 46.8461 33.88 48.3861 33.88C51.4194 33.88 52.9361 35.3967 52.9361 38.43C52.9361 40.25 52.4228 43.54 51.3961 48.3C50.5094 52.36 50.0661 55.0433 50.0661 56.35C50.0661 58.2167 50.7428 59.15 52.0961 59.15C53.0294 59.15 54.1261 58.59 55.3861 57.47C56.6928 56.3033 58.4194 54.4367 60.5661 51.87C61.1261 51.2167 61.7561 50.89 62.4561 50.89ZM41.6661 7.63C40.8261 7.63 39.8928 8.84333 38.8661 11.27C37.8394 13.65 36.8361 16.8933 35.8561 21C34.9228 25.06 34.1528 29.4933 33.5461 34.3C36.4394 30.8933 38.8194 27.1833 40.6861 23.17C42.5994 19.1567 43.5561 15.5167 43.5561 12.25C43.5561 10.7567 43.3928 9.61333 43.0661 8.82C42.7394 8.02666 42.2728 7.63 41.6661 7.63ZM86.4628 50.89C87.0695 50.89 87.5361 51.17 87.8628 51.73C88.2361 52.29 88.4228 53.06 88.4228 54.04C88.4228 55.9067 87.9795 57.3533 87.0928 58.38C85.3661 60.48 82.9161 62.4167 79.7428 64.19C76.6161 65.9633 73.2561 66.85 69.6628 66.85C64.7628 66.85 60.9595 65.52 58.2528 62.86C55.5461 60.2 54.1928 56.56 54.1928 51.94C54.1928 48.72 54.8695 45.7333 56.2228 42.98C57.5761 40.18 59.4428 37.9633 61.8228 36.33C64.2495 34.6967 66.9795 33.88 70.0128 33.88C72.7195 33.88 74.8895 34.6967 76.5228 36.33C78.1561 37.9167 78.9728 40.0867 78.9728 42.84C78.9728 46.06 77.8061 48.8367 75.4728 51.17C73.1861 53.4567 69.2895 55.2767 63.7828 56.63C64.9495 58.7767 67.1661 59.85 70.4328 59.85C72.5328 59.85 74.9128 59.1267 77.5728 57.68C80.2795 56.1867 82.6128 54.25 84.5728 51.87C85.1328 51.2167 85.7628 50.89 86.4628 50.89ZM68.8228 40.74C67.0961 40.74 65.6261 41.7433 64.4128 43.75C63.2461 45.7567 62.6628 48.1833 62.6628 51.03V51.17C65.4161 50.5167 67.5861 49.5367 69.1728 48.23C70.7595 46.9233 71.5528 45.4067 71.5528 43.68C71.5528 42.7933 71.2961 42.0933 70.7828 41.58C70.3161 41.02 69.6628 40.74 68.8228 40.74ZM110.443 50.89C111.05 50.89 111.517 51.17 111.843 51.73C112.217 52.29 112.403 53.06 112.403 54.04C112.403 55.9067 111.96 57.3533 111.073 58.38C109.347 60.48 106.897 62.4167 103.723 64.19C100.597 65.9633 97.2366 66.85 93.6433 66.85C88.7433 66.85 84.9399 65.52 82.2333 62.86C79.5266 60.2 78.1733 56.56 78.1733 51.94C78.1733 48.72 78.8499 45.7333 80.2033 42.98C81.5566 40.18 83.4233 37.9633 85.8033 36.33C88.2299 34.6967 90.9599 33.88 93.9933 33.88C96.6999 33.88 98.8699 34.6967 100.503 36.33C102.137 37.9167 102.953 40.0867 102.953 42.84C102.953 46.06 101.787 48.8367 99.4533 51.17C97.1666 53.4567 93.2699 55.2767 87.7633 56.63C88.9299 58.7767 91.1466 59.85 94.4133 59.85C96.5133 59.85 98.8933 59.1267 101.553 57.68C104.26 56.1867 106.593 54.25 108.553 51.87C109.113 51.2167 109.743 50.89 110.443 50.89ZM92.8033 40.74C91.0766 40.74 89.6066 41.7433 88.3933 43.75C87.2266 45.7567 86.6433 48.1833 86.6433 51.03V51.17C89.3966 50.5167 91.5666 49.5367 93.1533 48.23C94.7399 46.9233 95.5333 45.4067 95.5333 43.68C95.5333 42.7933 95.2766 42.0933 94.7633 41.58C94.2966 41.02 93.6433 40.74 92.8033 40.74ZM108.174 66.85C106.4 66.85 105.14 65.9167 104.394 64.05C103.694 62.1833 103.344 59.1967 103.344 55.09C103.344 49.0233 104.207 43.26 105.934 37.8C106.354 36.4467 107.03 35.4667 107.964 34.86C108.944 34.2067 110.297 33.88 112.024 33.88C112.957 33.88 113.61 33.9967 113.984 34.23C114.357 34.4633 114.544 34.9067 114.544 35.56C114.544 36.3067 114.194 37.9867 113.494 40.6C113.027 42.4667 112.654 44.1 112.374 45.5C112.094 46.9 111.86 48.6267 111.674 50.68C113.214 46.6667 114.94 43.4 116.854 40.88C118.767 38.36 120.634 36.5633 122.454 35.49C124.32 34.4167 126.024 33.88 127.564 33.88C130.597 33.88 132.114 35.3967 132.114 38.43C132.114 39.0367 131.904 40.5067 131.484 42.84C131.11 44.7067 130.924 45.8733 130.924 46.34C130.924 47.9733 131.507 48.79 132.674 48.79C133.98 48.79 135.66 47.7633 137.714 45.71C138.32 45.1033 138.95 44.8 139.604 44.8C140.21 44.8 140.677 45.08 141.004 45.64C141.377 46.1533 141.564 46.8533 141.564 47.74C141.564 49.4667 141.097 50.82 140.164 51.8C138.857 53.1533 137.317 54.32 135.544 55.3C133.817 56.2333 131.974 56.7 130.014 56.7C127.54 56.7 125.65 56.07 124.344 54.81C123.084 53.55 122.454 51.8467 122.454 49.7C122.454 49 122.524 48.3 122.664 47.6C122.757 46.6667 122.804 46.0367 122.804 45.71C122.804 44.9633 122.547 44.59 122.034 44.59C121.334 44.59 120.4 45.3833 119.234 46.97C118.114 48.51 116.994 50.5633 115.874 53.13C114.754 55.6967 113.844 58.4033 113.144 61.25C112.63 63.4433 112.024 64.9367 111.324 65.73C110.67 66.4767 109.62 66.85 108.174 66.85ZM138.699 66.85C136.599 66.85 134.873 65.8933 133.519 63.98C132.213 62.02 131.559 59.5933 131.559 56.7C131.559 53.2 131.793 50.0033 132.259 47.11C132.726 44.17 133.496 41.0667 134.569 37.8C135.036 36.4 135.689 35.3967 136.529 34.79C137.369 34.1833 138.699 33.88 140.519 33.88C141.546 33.88 142.246 34.0433 142.619 34.37C143.039 34.6967 143.249 35.1867 143.249 35.84C143.249 36.2133 142.993 37.4733 142.479 39.62C142.013 41.3467 141.639 42.91 141.359 44.31C140.426 49.21 139.959 52.4767 139.959 54.11C139.959 55.09 140.076 55.79 140.309 56.21C140.543 56.5833 140.916 56.77 141.429 56.77C142.129 56.77 142.993 56.07 144.019 54.67C145.093 53.27 146.213 51.1467 147.379 48.3C148.593 45.4533 149.759 41.9533 150.879 37.8C151.253 36.4 151.813 35.3967 152.559 34.79C153.353 34.1833 154.519 33.88 156.059 33.88C157.133 33.88 157.879 34.02 158.299 34.3C158.719 34.5333 158.929 35 158.929 35.7C158.929 36.8667 158.346 40.0633 157.179 45.29C155.873 51.2633 155.219 54.95 155.219 56.35C155.219 57.2367 155.406 57.9367 155.779 58.45C156.153 58.9167 156.643 59.15 157.249 59.15C158.183 59.15 159.279 58.59 160.539 57.47C161.846 56.3033 163.573 54.4367 165.719 51.87C166.279 51.2167 166.909 50.89 167.609 50.89C168.216 50.89 168.683 51.17 169.009 51.73C169.383 52.29 169.569 53.06 169.569 54.04C169.569 55.9067 169.126 57.3533 168.239 58.38C166.233 60.8533 164.063 62.8833 161.729 64.47C159.443 66.0567 156.829 66.85 153.889 66.85C151.649 66.85 149.993 65.9867 148.919 64.26C147.893 62.5333 147.379 60.1067 147.379 56.98C146.586 60.1533 145.396 62.6033 143.809 64.33C142.223 66.01 140.519 66.85 138.699 66.85ZM188.113 45.15C188.113 48.8367 187.25 52.3367 185.523 55.65C183.843 58.9167 181.58 61.5767 178.733 63.63C175.933 65.6833 172.923 66.7567 169.703 66.85C169.097 75.8567 167.72 83.37 165.573 89.39C163.427 95.4567 160.277 98.49 156.123 98.49C153.603 98.49 151.737 97.58 150.523 95.76C149.31 93.94 148.703 91.42 148.703 88.2C148.703 83.6267 149.753 78.2833 151.853 72.17C153.953 66.1033 157.197 59.4067 161.583 52.08C161.583 45.2667 161.537 40.53 161.443 37.87C161.397 36.5167 161.933 35.4433 163.053 34.65C164.173 33.8567 165.573 33.46 167.253 33.46C168.233 33.46 168.933 33.67 169.353 34.09C169.82 34.4633 170.077 35.2333 170.123 36.4C170.123 37.5667 170.147 38.43 170.193 38.99C171.687 37.1233 173.157 35.7933 174.603 35C176.05 34.16 177.59 33.74 179.223 33.74C181.837 33.74 183.96 34.79 185.593 36.89C187.273 38.99 188.113 41.7433 188.113 45.15ZM170.053 60.13C171.733 59.7567 173.273 58.8467 174.673 57.4C176.12 55.9067 177.263 54.0867 178.103 51.94C178.943 49.7467 179.363 47.46 179.363 45.08C179.363 43.68 179.083 42.63 178.523 41.93C177.963 41.1833 177.217 40.81 176.283 40.81C174.603 40.81 172.573 42.5833 170.193 46.13C170.147 48.1833 170.123 51.1933 170.123 55.16C170.123 57.3067 170.1 58.9633 170.053 60.13ZM156.683 91.63C157.943 91.63 158.993 88.8767 159.833 83.37C160.673 77.91 161.21 71.0967 161.443 62.93C159.437 67.5967 157.85 72.0533 156.683 76.3C155.517 80.5467 154.933 84.1167 154.933 87.01C154.933 88.5033 155.12 89.6467 155.493 90.44C155.82 91.2333 156.217 91.63 156.683 91.63Z" fill="#A474FF"/>
</svg>
