<svg width="62" height="62" viewBox="0 0 62 62" fill="none" xmlns="http://www.w3.org/2000/svg">
<rect x="0.436602" y="1.31233" width="60.2511" height="60.2511" rx="30.1255" fill="white"/>
<rect x="0.436602" y="1.31233" width="60.2511" height="60.2511" rx="30.1255" stroke="#BBBBBB" stroke-width="0.873204"/>
<path d="M47.6864 28.0176H46.2797V27.9451H30.5621V34.9308H40.4319C38.992 38.9973 35.1229 41.9165 30.5621 41.9165C24.7754 41.9165 20.0837 37.2247 20.0837 31.438C20.0837 25.6512 24.7754 20.9595 30.5621 20.9595C33.2333 20.9595 35.6634 21.9672 37.5137 23.6132L42.4534 18.6734C39.3343 15.7665 35.1621 13.9738 30.5621 13.9738C20.9176 13.9738 13.0981 21.7934 13.0981 31.438C13.0981 41.0826 20.9176 48.9021 30.5621 48.9021C40.2066 48.9021 48.0261 41.0826 48.0261 31.438C48.0261 30.267 47.9056 29.124 47.6864 28.0176Z" fill="#FFC107"/>
<path d="M15.1121 23.3093L20.8499 27.5173C22.4024 23.6734 26.1624 20.9595 30.5625 20.9595C33.2336 20.9595 35.6637 21.9672 37.514 23.6132L42.4537 18.6734C39.3346 15.7665 35.1625 13.9738 30.5625 13.9738C23.8545 13.9738 18.0373 17.7609 15.1121 23.3093Z" fill="#FF3D00"/>
<path d="M30.5622 48.9022C35.0732 48.9022 39.172 47.1759 42.2709 44.3685L36.8658 39.7946C35.1125 41.1228 32.9329 41.9165 30.5622 41.9165C26.0198 41.9165 22.1629 39.0201 20.7099 34.978L15.0149 39.3659C17.9052 45.0217 23.7748 48.9022 30.5622 48.9022Z" fill="#4CAF50"/>
<path d="M47.6868 28.0176H46.2801V27.9451H30.5625V34.9308H40.4323C39.7407 36.8842 38.4842 38.5686 36.8635 39.7954C36.8644 39.7946 36.8653 39.7946 36.8661 39.7937L42.2712 44.3676C41.8888 44.7151 48.0265 40.17 48.0265 31.438C48.0265 30.267 47.906 29.124 47.6868 28.0176Z" fill="#1976D2"/>
</svg>
