<svg width="70" height="70" viewBox="0 0 70 70" fill="none" xmlns="http://www.w3.org/2000/svg">
<rect x="0.5" y="0.5" width="69" height="69" rx="34.5" fill="#FFC107"/>
<rect x="0.5" y="0.5" width="69" height="69" rx="34.5" stroke="#BBBBBB"/>
<path d="M35 20C44.665 20 52.5 26.1067 52.5 33.6417C52.5 41.175 44.665 47.2817 35 47.2817C34.0376 47.2822 33.0762 47.2209 32.1217 47.0983L24.775 51.9033C23.94 52.345 23.645 52.2967 23.9883 51.215L25.475 45.085C20.675 42.6517 17.5 38.435 17.5 33.6417C17.5 26.1083 25.335 20 35 20ZM44.845 33.4333L47.295 31.06C47.4364 30.9132 47.5152 30.7172 47.515 30.5134C47.5147 30.3096 47.4354 30.1138 47.2937 29.9673C47.152 29.8209 46.9589 29.7351 46.7552 29.7282C46.5515 29.7212 46.3531 29.7935 46.2017 29.93L42.9883 33.04V30.47C42.9883 30.2614 42.9055 30.0613 42.7579 29.9137C42.6104 29.7662 42.4103 29.6833 42.2017 29.6833C41.993 29.6833 41.7929 29.7662 41.6454 29.9137C41.4979 30.0613 41.415 30.2614 41.415 30.47V34.7317C41.3855 34.8532 41.3855 34.9801 41.415 35.1017V37.5C41.415 37.7086 41.4979 37.9087 41.6454 38.0563C41.7929 38.2038 41.993 38.2867 42.2017 38.2867C42.4103 38.2867 42.6104 38.2038 42.7579 38.0563C42.9055 37.9087 42.9883 37.7086 42.9883 37.5V35.2283L43.7 34.54L46.08 37.9283C46.1394 38.0129 46.2149 38.085 46.3022 38.1404C46.3895 38.1958 46.4868 38.2335 46.5886 38.2513C46.6905 38.2691 46.7948 38.2667 46.8957 38.2441C46.9966 38.2216 47.0921 38.1794 47.1767 38.12C47.2613 38.0606 47.3333 37.9851 47.3887 37.8978C47.4441 37.8105 47.4818 37.7132 47.4996 37.6114C47.5174 37.5095 47.515 37.4052 47.4925 37.3043C47.4699 37.2034 47.4278 37.1079 47.3683 37.0233L44.845 33.4317V33.4333ZM39.915 36.64H37.4817V30.495C37.4724 30.2928 37.3855 30.1021 37.2391 29.9623C37.0928 29.8225 36.8982 29.7445 36.6958 29.7445C36.4935 29.7445 36.2989 29.8225 36.1525 29.9623C36.0062 30.1021 35.9193 30.2928 35.91 30.495V37.4267C35.91 37.86 36.26 38.2133 36.695 38.2133H39.915C40.1236 38.2133 40.3237 38.1305 40.4713 37.9829C40.6188 37.8354 40.7017 37.6353 40.7017 37.4267C40.7017 37.218 40.6188 37.0179 40.4713 36.8704C40.3237 36.7229 40.1236 36.64 39.915 36.64ZM30.1533 34.82L31.3133 31.975L32.3767 34.82H30.1533ZM34.3583 35.6333L34.3617 35.6067C34.3613 35.4085 34.2856 35.2179 34.15 35.0733L32.4067 30.4067C32.3336 30.1843 32.1944 29.9895 32.0076 29.8483C31.8209 29.7072 31.5956 29.6263 31.3617 29.6167C31.1261 29.6156 30.8957 29.6864 30.7013 29.8194C30.5069 29.9525 30.3576 30.1417 30.2733 30.3617L27.505 37.1533C27.4659 37.249 27.4461 37.3514 27.4466 37.4547C27.4471 37.558 27.468 37.6602 27.508 37.7555C27.548 37.8507 27.6063 37.9372 27.6798 38.0099C27.7532 38.0826 27.8402 38.1401 27.9358 38.1792C28.0315 38.2182 28.1339 38.2381 28.2372 38.2376C28.3405 38.2371 28.4427 38.2162 28.538 38.1762C28.6332 38.1362 28.7197 38.0778 28.7924 38.0044C28.8651 37.931 28.9226 37.844 28.9617 37.7483L29.5117 36.3933H32.9617L33.46 37.7267C33.4939 37.8263 33.5474 37.9182 33.6174 37.9968C33.6875 38.0754 33.7726 38.1391 33.8677 38.1842C33.9628 38.2293 34.066 38.2549 34.1711 38.2594C34.2763 38.2639 34.3813 38.2473 34.4799 38.2105C34.5785 38.1736 34.6688 38.1174 34.7453 38.0451C34.8218 37.9728 34.8829 37.8858 34.9252 37.7894C34.9675 37.693 34.99 37.5891 34.9914 37.4839C34.9928 37.3786 34.973 37.2742 34.9333 37.1767L34.3583 35.6333ZM28.8217 30.5033C28.8217 30.295 28.739 30.0951 28.5918 29.9477C28.4447 29.8002 28.245 29.7171 28.0367 29.7167H22.6283C22.4197 29.7167 22.2196 29.7995 22.0721 29.9471C21.9245 30.0946 21.8417 30.2947 21.8417 30.5033C21.8417 30.712 21.9245 30.9121 22.0721 31.0596C22.2196 31.2071 22.4197 31.29 22.6283 31.29H24.5617V37.5167C24.5617 37.7253 24.6445 37.9254 24.7921 38.0729C24.9396 38.2205 25.1397 38.3033 25.3483 38.3033C25.557 38.3033 25.7571 38.2205 25.9046 38.0729C26.0521 37.9254 26.135 37.7253 26.135 37.5167V31.29H28.035C28.47 31.29 28.8217 30.9367 28.8217 30.5033Z" fill="#332719"/>
</svg>
