<svg width="117" height="59" viewBox="0 0 117 59" fill="none" xmlns="http://www.w3.org/2000/svg">
<mask id="path-1-outside-1_523_2682" maskUnits="userSpaceOnUse" x="0" y="0" width="117" height="59" fill="black">
<rect fill="white" width="117" height="59"/>
<path d="M9.56 39.2C6.94667 39.2 4.90667 38.4667 3.44 37C2 35.5067 1.28 33.5467 1.28 31.12C1.28 28.96 1.70667 27.0667 2.56 25.44C3.41333 23.8133 4.52 22.56 5.88 21.68C7.24 20.8 8.66667 20.36 10.16 20.36C11.6267 20.36 12.76 20.8 13.56 21.68C14.3867 22.5333 14.8 23.64 14.8 25C14.8 26.12 14.5467 27.0667 14.04 27.84C13.56 28.6133 12.92 29 12.12 29C11.6133 29 11.2 28.88 10.88 28.64C10.5867 28.4 10.44 28.0667 10.44 27.64C10.44 27.4533 10.4667 27.24 10.52 27C10.5733 26.76 10.6133 26.5867 10.64 26.48C10.7733 26.08 10.84 25.7067 10.84 25.36C10.84 25.0133 10.7467 24.7467 10.56 24.56C10.4 24.3733 10.16 24.28 9.84 24.28C9.22667 24.28 8.65333 24.56 8.12 25.12C7.58667 25.6533 7.16 26.3867 6.84 27.32C6.52 28.2533 6.36 29.28 6.36 30.4C6.36 33.4933 7.70667 35.04 10.4 35.04C11.4933 35.04 12.6667 34.68 13.92 33.96C15.2 33.2133 16.4533 32.1067 17.68 30.64C18 30.2667 18.36 30.08 18.76 30.08C19.1067 30.08 19.3733 30.24 19.56 30.56C19.7733 30.88 19.88 31.32 19.88 31.88C19.88 32.8933 19.6267 33.72 19.12 34.36C17.8667 35.9067 16.36 37.1067 14.6 37.96C12.8667 38.7867 11.1867 39.2 9.56 39.2ZM38.0466 30.08C38.3932 30.08 38.6599 30.24 38.8466 30.56C39.0599 30.88 39.1666 31.32 39.1666 31.88C39.1666 32.9467 38.9132 33.7733 38.4066 34.36C37.1799 35.7733 35.9132 36.9333 34.6066 37.84C33.3266 38.7467 31.8599 39.2 30.2066 39.2C28.8466 39.2 27.8199 38.8133 27.1266 38.04C26.4332 37.24 26.0866 36.0933 26.0866 34.6C26.0866 33.8533 26.2732 32.52 26.6466 30.6C26.9932 28.92 27.1666 27.76 27.1666 27.12C27.1666 26.6933 27.0199 26.48 26.7266 26.48C26.3799 26.48 25.8866 26.9333 25.2466 27.84C24.6066 28.72 23.9666 29.8933 23.3266 31.36C22.6866 32.8267 22.1666 34.3733 21.7666 36C21.2599 38.1333 20.0066 39.2 18.0066 39.2C17.2066 39.2 16.6732 38.92 16.4066 38.36C16.1666 37.7733 16.0466 36.7333 16.0466 35.24C16.0466 34.3867 16.0599 33.7067 16.0866 33.2L16.1266 30C16.1266 25.8933 16.5399 21.6133 17.3666 17.16C18.2199 12.7067 19.4599 8.97333 21.0866 5.96C22.7399 2.92 24.7132 1.4 27.0066 1.4C28.2332 1.4 29.2199 1.93333 29.9666 3C30.7399 4.04 31.1266 5.4 31.1266 7.08C31.1266 9.77333 30.3399 12.5733 28.7666 15.48C27.1932 18.36 24.6332 21.7333 21.0866 25.6C21.0066 26.9867 20.9666 28.4133 20.9666 29.88C21.8466 27.6133 22.8199 25.7733 23.8866 24.36C24.9799 22.92 26.0466 21.8933 27.0866 21.28C28.1532 20.6667 29.1266 20.36 30.0066 20.36C31.7399 20.36 32.6066 21.2267 32.6066 22.96C32.6066 24 32.3132 25.88 31.7266 28.6C31.2199 30.92 30.9666 32.4533 30.9666 33.2C30.9666 34.2667 31.3532 34.8 32.1266 34.8C32.6599 34.8 33.2866 34.48 34.0066 33.84C34.7532 33.1733 35.7399 32.1067 36.9666 30.64C37.2866 30.2667 37.6466 30.08 38.0466 30.08ZM26.1666 5.36C25.6866 5.36 25.1532 6.05333 24.5666 7.44C23.9799 8.8 23.4066 10.6533 22.8466 13C22.3132 15.32 21.8732 17.8533 21.5266 20.6C23.1799 18.6533 24.5399 16.5333 25.6066 14.24C26.6999 11.9467 27.2466 9.86667 27.2466 8C27.2466 7.14667 27.1532 6.49333 26.9666 6.04C26.7799 5.58667 26.5132 5.36 26.1666 5.36ZM52.9647 30.08C53.3114 30.08 53.578 30.24 53.7647 30.56C53.978 30.88 54.0847 31.32 54.0847 31.88C54.0847 32.9467 53.8314 33.7733 53.3247 34.36C52.338 35.56 50.938 36.6667 49.1247 37.68C47.338 38.6933 45.418 39.2 43.3647 39.2C40.5647 39.2 38.3914 38.44 36.8447 36.92C35.298 35.4 34.5247 33.32 34.5247 30.68C34.5247 28.84 34.9114 27.1333 35.6847 25.56C36.458 23.96 37.5247 22.6933 38.8847 21.76C40.2714 20.8267 41.8314 20.36 43.5647 20.36C45.1114 20.36 46.3514 20.8267 47.2847 21.76C48.218 22.6667 48.6847 23.9067 48.6847 25.48C48.6847 27.32 48.018 28.9067 46.6847 30.24C45.378 31.5467 43.1514 32.5867 40.0047 33.36C40.6714 34.5867 41.938 35.2 43.8047 35.2C45.0047 35.2 46.3647 34.7867 47.8847 33.96C49.4314 33.1067 50.7647 32 51.8847 30.64C52.2047 30.2667 52.5647 30.08 52.9647 30.08ZM42.8847 24.28C41.898 24.28 41.058 24.8533 40.3647 26C39.698 27.1467 39.3647 28.5333 39.3647 30.16V30.24C40.938 29.8667 42.178 29.3067 43.0847 28.56C43.9914 27.8133 44.4447 26.9467 44.4447 25.96C44.4447 25.4533 44.298 25.0533 44.0047 24.76C43.738 24.44 43.3647 24.28 42.8847 24.28ZM67.8678 30.08C68.2145 30.08 68.4811 30.24 68.6678 30.56C68.8811 30.88 68.9878 31.32 68.9878 31.88C68.9878 32.9467 68.7345 33.7733 68.2278 34.36C67.2411 35.56 65.8411 36.6667 64.0278 37.68C62.2411 38.6933 60.3211 39.2 58.2678 39.2C55.4678 39.2 53.2945 38.44 51.7478 36.92C50.2011 35.4 49.4278 33.32 49.4278 30.68C49.4278 28.84 49.8145 27.1333 50.5878 25.56C51.3611 23.96 52.4278 22.6933 53.7878 21.76C55.1745 20.8267 56.7345 20.36 58.4678 20.36C60.0145 20.36 61.2545 20.8267 62.1878 21.76C63.1211 22.6667 63.5878 23.9067 63.5878 25.48C63.5878 27.32 62.9211 28.9067 61.5878 30.24C60.2811 31.5467 58.0545 32.5867 54.9078 33.36C55.5745 34.5867 56.8411 35.2 58.7078 35.2C59.9078 35.2 61.2678 34.7867 62.7878 33.96C64.3345 33.1067 65.6678 32 66.7878 30.64C67.1078 30.2667 67.4678 30.08 67.8678 30.08ZM57.7878 24.28C56.8011 24.28 55.9611 24.8533 55.2678 26C54.6011 27.1467 54.2678 28.5333 54.2678 30.16V30.24C55.8411 29.8667 57.0811 29.3067 57.9878 28.56C58.8945 27.8133 59.3478 26.9467 59.3478 25.96C59.3478 25.4533 59.2011 25.0533 58.9078 24.76C58.6411 24.44 58.2678 24.28 57.7878 24.28ZM67.7709 39.2C66.7576 39.2 66.0376 38.6667 65.6109 37.6C65.2109 36.5333 65.0109 34.8267 65.0109 32.48C65.0109 29.0133 65.5043 25.72 66.4909 22.6C66.7309 21.8267 67.1176 21.2667 67.6509 20.92C68.2109 20.5467 68.9843 20.36 69.9709 20.36C70.5043 20.36 70.8776 20.4267 71.0909 20.56C71.3043 20.6933 71.4109 20.9467 71.4109 21.32C71.4109 21.7467 71.2109 22.7067 70.8109 24.2C70.5443 25.2667 70.3309 26.2 70.1709 27C70.0109 27.8 69.8776 28.7867 69.7709 29.96C70.6509 27.6667 71.6376 25.8 72.7309 24.36C73.8243 22.92 74.8909 21.8933 75.9309 21.28C76.9976 20.6667 77.9709 20.36 78.8509 20.36C80.5843 20.36 81.4509 21.2267 81.4509 22.96C81.4509 23.3067 81.3309 24.1467 81.0909 25.48C80.8776 26.5467 80.7709 27.2133 80.7709 27.48C80.7709 28.4133 81.1043 28.88 81.7709 28.88C82.5176 28.88 83.4776 28.2933 84.6509 27.12C84.9976 26.7733 85.3576 26.6 85.7309 26.6C86.0776 26.6 86.3443 26.76 86.5309 27.08C86.7443 27.3733 86.8509 27.7733 86.8509 28.28C86.8509 29.2667 86.5843 30.04 86.0509 30.6C85.3043 31.3733 84.4243 32.04 83.4109 32.6C82.4243 33.1333 81.3709 33.4 80.2509 33.4C78.8376 33.4 77.7576 33.04 77.0109 32.32C76.2909 31.6 75.9309 30.6267 75.9309 29.4C75.9309 29 75.9709 28.6 76.0509 28.2C76.1043 27.6667 76.1309 27.3067 76.1309 27.12C76.1309 26.6933 75.9843 26.48 75.6909 26.48C75.2909 26.48 74.7576 26.9333 74.0909 27.84C73.4509 28.72 72.8109 29.8933 72.1709 31.36C71.5309 32.8267 71.0109 34.3733 70.6109 36C70.3176 37.2533 69.9709 38.1067 69.5709 38.56C69.1976 38.9867 68.5976 39.2 67.7709 39.2ZM86.4141 39.2C85.2141 39.2 84.2274 38.6533 83.4541 37.56C82.7074 36.44 82.3341 35.0533 82.3341 33.4C82.3341 31.4 82.4674 29.5733 82.7341 27.92C83.0007 26.24 83.4407 24.4667 84.0541 22.6C84.3207 21.8 84.6941 21.2267 85.1741 20.88C85.6541 20.5333 86.4141 20.36 87.4541 20.36C88.0407 20.36 88.4407 20.4533 88.6541 20.64C88.8941 20.8267 89.0141 21.1067 89.0141 21.48C89.0141 21.6933 88.8674 22.4133 88.5741 23.64C88.3074 24.6267 88.0941 25.52 87.9341 26.32C87.4007 29.12 87.1341 30.9867 87.1341 31.92C87.1341 32.48 87.2007 32.88 87.3341 33.12C87.4674 33.3333 87.6807 33.44 87.9741 33.44C88.3741 33.44 88.8674 33.04 89.4541 32.24C90.0674 31.44 90.7074 30.2267 91.3741 28.6C92.0674 26.9733 92.7341 24.9733 93.3741 22.6C93.5874 21.8 93.9074 21.2267 94.3341 20.88C94.7874 20.5333 95.4541 20.36 96.3341 20.36C96.9474 20.36 97.3741 20.44 97.6141 20.6C97.8541 20.7333 97.9741 21 97.9741 21.4C97.9741 22.0667 97.6407 23.8933 96.9741 26.88C96.2274 30.2933 95.8541 32.4 95.8541 33.2C95.8541 33.7067 95.9607 34.1067 96.1741 34.4C96.3874 34.6667 96.6674 34.8 97.0141 34.8C97.5474 34.8 98.1741 34.48 98.8941 33.84C99.6407 33.1733 100.627 32.1067 101.854 30.64C102.174 30.2667 102.534 30.08 102.934 30.08C103.281 30.08 103.547 30.24 103.734 30.56C103.947 30.88 104.054 31.32 104.054 31.88C104.054 32.9467 103.801 33.7733 103.294 34.36C102.147 35.7733 100.907 36.9333 99.5741 37.84C98.2674 38.7467 96.7741 39.2 95.0941 39.2C93.8141 39.2 92.8674 38.7067 92.2541 37.72C91.6674 36.7333 91.3741 35.3467 91.3741 33.56C90.9207 35.3733 90.2407 36.7733 89.3341 37.76C88.4274 38.72 87.4541 39.2 86.4141 39.2ZM115.851 26.8C115.851 28.9067 115.357 30.9067 114.371 32.8C113.411 34.6667 112.117 36.1867 110.491 37.36C108.891 38.5333 107.171 39.1467 105.331 39.2C104.984 44.3467 104.197 48.64 102.971 52.08C101.744 55.5467 99.944 57.28 97.5706 57.28C96.1306 57.28 95.064 56.76 94.3706 55.72C93.6773 54.68 93.3306 53.24 93.3306 51.4C93.3306 48.7867 93.9306 45.7333 95.1306 42.24C96.3306 38.7733 98.184 34.9467 100.691 30.76C100.691 26.8667 100.664 24.16 100.611 22.64C100.584 21.8667 100.891 21.2533 101.531 20.8C102.171 20.3467 102.971 20.12 103.931 20.12C104.491 20.12 104.891 20.24 105.131 20.48C105.397 20.6933 105.544 21.1333 105.571 21.8C105.571 22.4667 105.584 22.96 105.611 23.28C106.464 22.2133 107.304 21.4533 108.131 21C108.957 20.52 109.837 20.28 110.771 20.28C112.264 20.28 113.477 20.88 114.411 22.08C115.371 23.28 115.851 24.8533 115.851 26.8ZM105.531 35.36C106.491 35.1467 107.371 34.6267 108.171 33.8C108.997 32.9467 109.651 31.9067 110.131 30.68C110.611 29.4267 110.851 28.12 110.851 26.76C110.851 25.96 110.691 25.36 110.371 24.96C110.051 24.5333 109.624 24.32 109.091 24.32C108.131 24.32 106.971 25.3333 105.611 27.36C105.584 28.5333 105.571 30.2533 105.571 32.52C105.571 33.7467 105.557 34.6933 105.531 35.36ZM97.8906 53.36C98.6106 53.36 99.2106 51.7867 99.6906 48.64C100.171 45.52 100.477 41.6267 100.611 36.96C99.464 39.6267 98.5573 42.1733 97.8906 44.6C97.224 47.0267 96.8906 49.0667 96.8906 50.72C96.8906 51.5733 96.9973 52.2267 97.2106 52.68C97.3973 53.1333 97.624 53.36 97.8906 53.36Z"/>
</mask>
<path d="M9.56 39.2C6.94667 39.2 4.90667 38.4667 3.44 37C2 35.5067 1.28 33.5467 1.28 31.12C1.28 28.96 1.70667 27.0667 2.56 25.44C3.41333 23.8133 4.52 22.56 5.88 21.68C7.24 20.8 8.66667 20.36 10.16 20.36C11.6267 20.36 12.76 20.8 13.56 21.68C14.3867 22.5333 14.8 23.64 14.8 25C14.8 26.12 14.5467 27.0667 14.04 27.84C13.56 28.6133 12.92 29 12.12 29C11.6133 29 11.2 28.88 10.88 28.64C10.5867 28.4 10.44 28.0667 10.44 27.64C10.44 27.4533 10.4667 27.24 10.52 27C10.5733 26.76 10.6133 26.5867 10.64 26.48C10.7733 26.08 10.84 25.7067 10.84 25.36C10.84 25.0133 10.7467 24.7467 10.56 24.56C10.4 24.3733 10.16 24.28 9.84 24.28C9.22667 24.28 8.65333 24.56 8.12 25.12C7.58667 25.6533 7.16 26.3867 6.84 27.32C6.52 28.2533 6.36 29.28 6.36 30.4C6.36 33.4933 7.70667 35.04 10.4 35.04C11.4933 35.04 12.6667 34.68 13.92 33.96C15.2 33.2133 16.4533 32.1067 17.68 30.64C18 30.2667 18.36 30.08 18.76 30.08C19.1067 30.08 19.3733 30.24 19.56 30.56C19.7733 30.88 19.88 31.32 19.88 31.88C19.88 32.8933 19.6267 33.72 19.12 34.36C17.8667 35.9067 16.36 37.1067 14.6 37.96C12.8667 38.7867 11.1867 39.2 9.56 39.2ZM38.0466 30.08C38.3932 30.08 38.6599 30.24 38.8466 30.56C39.0599 30.88 39.1666 31.32 39.1666 31.88C39.1666 32.9467 38.9132 33.7733 38.4066 34.36C37.1799 35.7733 35.9132 36.9333 34.6066 37.84C33.3266 38.7467 31.8599 39.2 30.2066 39.2C28.8466 39.2 27.8199 38.8133 27.1266 38.04C26.4332 37.24 26.0866 36.0933 26.0866 34.6C26.0866 33.8533 26.2732 32.52 26.6466 30.6C26.9932 28.92 27.1666 27.76 27.1666 27.12C27.1666 26.6933 27.0199 26.48 26.7266 26.48C26.3799 26.48 25.8866 26.9333 25.2466 27.84C24.6066 28.72 23.9666 29.8933 23.3266 31.36C22.6866 32.8267 22.1666 34.3733 21.7666 36C21.2599 38.1333 20.0066 39.2 18.0066 39.2C17.2066 39.2 16.6732 38.92 16.4066 38.36C16.1666 37.7733 16.0466 36.7333 16.0466 35.24C16.0466 34.3867 16.0599 33.7067 16.0866 33.2L16.1266 30C16.1266 25.8933 16.5399 21.6133 17.3666 17.16C18.2199 12.7067 19.4599 8.97333 21.0866 5.96C22.7399 2.92 24.7132 1.4 27.0066 1.4C28.2332 1.4 29.2199 1.93333 29.9666 3C30.7399 4.04 31.1266 5.4 31.1266 7.08C31.1266 9.77333 30.3399 12.5733 28.7666 15.48C27.1932 18.36 24.6332 21.7333 21.0866 25.6C21.0066 26.9867 20.9666 28.4133 20.9666 29.88C21.8466 27.6133 22.8199 25.7733 23.8866 24.36C24.9799 22.92 26.0466 21.8933 27.0866 21.28C28.1532 20.6667 29.1266 20.36 30.0066 20.36C31.7399 20.36 32.6066 21.2267 32.6066 22.96C32.6066 24 32.3132 25.88 31.7266 28.6C31.2199 30.92 30.9666 32.4533 30.9666 33.2C30.9666 34.2667 31.3532 34.8 32.1266 34.8C32.6599 34.8 33.2866 34.48 34.0066 33.84C34.7532 33.1733 35.7399 32.1067 36.9666 30.64C37.2866 30.2667 37.6466 30.08 38.0466 30.08ZM26.1666 5.36C25.6866 5.36 25.1532 6.05333 24.5666 7.44C23.9799 8.8 23.4066 10.6533 22.8466 13C22.3132 15.32 21.8732 17.8533 21.5266 20.6C23.1799 18.6533 24.5399 16.5333 25.6066 14.24C26.6999 11.9467 27.2466 9.86667 27.2466 8C27.2466 7.14667 27.1532 6.49333 26.9666 6.04C26.7799 5.58667 26.5132 5.36 26.1666 5.36ZM52.9647 30.08C53.3114 30.08 53.578 30.24 53.7647 30.56C53.978 30.88 54.0847 31.32 54.0847 31.88C54.0847 32.9467 53.8314 33.7733 53.3247 34.36C52.338 35.56 50.938 36.6667 49.1247 37.68C47.338 38.6933 45.418 39.2 43.3647 39.2C40.5647 39.2 38.3914 38.44 36.8447 36.92C35.298 35.4 34.5247 33.32 34.5247 30.68C34.5247 28.84 34.9114 27.1333 35.6847 25.56C36.458 23.96 37.5247 22.6933 38.8847 21.76C40.2714 20.8267 41.8314 20.36 43.5647 20.36C45.1114 20.36 46.3514 20.8267 47.2847 21.76C48.218 22.6667 48.6847 23.9067 48.6847 25.48C48.6847 27.32 48.018 28.9067 46.6847 30.24C45.378 31.5467 43.1514 32.5867 40.0047 33.36C40.6714 34.5867 41.938 35.2 43.8047 35.2C45.0047 35.2 46.3647 34.7867 47.8847 33.96C49.4314 33.1067 50.7647 32 51.8847 30.64C52.2047 30.2667 52.5647 30.08 52.9647 30.08ZM42.8847 24.28C41.898 24.28 41.058 24.8533 40.3647 26C39.698 27.1467 39.3647 28.5333 39.3647 30.16V30.24C40.938 29.8667 42.178 29.3067 43.0847 28.56C43.9914 27.8133 44.4447 26.9467 44.4447 25.96C44.4447 25.4533 44.298 25.0533 44.0047 24.76C43.738 24.44 43.3647 24.28 42.8847 24.28ZM67.8678 30.08C68.2145 30.08 68.4811 30.24 68.6678 30.56C68.8811 30.88 68.9878 31.32 68.9878 31.88C68.9878 32.9467 68.7345 33.7733 68.2278 34.36C67.2411 35.56 65.8411 36.6667 64.0278 37.68C62.2411 38.6933 60.3211 39.2 58.2678 39.2C55.4678 39.2 53.2945 38.44 51.7478 36.92C50.2011 35.4 49.4278 33.32 49.4278 30.68C49.4278 28.84 49.8145 27.1333 50.5878 25.56C51.3611 23.96 52.4278 22.6933 53.7878 21.76C55.1745 20.8267 56.7345 20.36 58.4678 20.36C60.0145 20.36 61.2545 20.8267 62.1878 21.76C63.1211 22.6667 63.5878 23.9067 63.5878 25.48C63.5878 27.32 62.9211 28.9067 61.5878 30.24C60.2811 31.5467 58.0545 32.5867 54.9078 33.36C55.5745 34.5867 56.8411 35.2 58.7078 35.2C59.9078 35.2 61.2678 34.7867 62.7878 33.96C64.3345 33.1067 65.6678 32 66.7878 30.64C67.1078 30.2667 67.4678 30.08 67.8678 30.08ZM57.7878 24.28C56.8011 24.28 55.9611 24.8533 55.2678 26C54.6011 27.1467 54.2678 28.5333 54.2678 30.16V30.24C55.8411 29.8667 57.0811 29.3067 57.9878 28.56C58.8945 27.8133 59.3478 26.9467 59.3478 25.96C59.3478 25.4533 59.2011 25.0533 58.9078 24.76C58.6411 24.44 58.2678 24.28 57.7878 24.28ZM67.7709 39.2C66.7576 39.2 66.0376 38.6667 65.6109 37.6C65.2109 36.5333 65.0109 34.8267 65.0109 32.48C65.0109 29.0133 65.5043 25.72 66.4909 22.6C66.7309 21.8267 67.1176 21.2667 67.6509 20.92C68.2109 20.5467 68.9843 20.36 69.9709 20.36C70.5043 20.36 70.8776 20.4267 71.0909 20.56C71.3043 20.6933 71.4109 20.9467 71.4109 21.32C71.4109 21.7467 71.2109 22.7067 70.8109 24.2C70.5443 25.2667 70.3309 26.2 70.1709 27C70.0109 27.8 69.8776 28.7867 69.7709 29.96C70.6509 27.6667 71.6376 25.8 72.7309 24.36C73.8243 22.92 74.8909 21.8933 75.9309 21.28C76.9976 20.6667 77.9709 20.36 78.8509 20.36C80.5843 20.36 81.4509 21.2267 81.4509 22.96C81.4509 23.3067 81.3309 24.1467 81.0909 25.48C80.8776 26.5467 80.7709 27.2133 80.7709 27.48C80.7709 28.4133 81.1043 28.88 81.7709 28.88C82.5176 28.88 83.4776 28.2933 84.6509 27.12C84.9976 26.7733 85.3576 26.6 85.7309 26.6C86.0776 26.6 86.3443 26.76 86.5309 27.08C86.7443 27.3733 86.8509 27.7733 86.8509 28.28C86.8509 29.2667 86.5843 30.04 86.0509 30.6C85.3043 31.3733 84.4243 32.04 83.4109 32.6C82.4243 33.1333 81.3709 33.4 80.2509 33.4C78.8376 33.4 77.7576 33.04 77.0109 32.32C76.2909 31.6 75.9309 30.6267 75.9309 29.4C75.9309 29 75.9709 28.6 76.0509 28.2C76.1043 27.6667 76.1309 27.3067 76.1309 27.12C76.1309 26.6933 75.9843 26.48 75.6909 26.48C75.2909 26.48 74.7576 26.9333 74.0909 27.84C73.4509 28.72 72.8109 29.8933 72.1709 31.36C71.5309 32.8267 71.0109 34.3733 70.6109 36C70.3176 37.2533 69.9709 38.1067 69.5709 38.56C69.1976 38.9867 68.5976 39.2 67.7709 39.2ZM86.4141 39.2C85.2141 39.2 84.2274 38.6533 83.4541 37.56C82.7074 36.44 82.3341 35.0533 82.3341 33.4C82.3341 31.4 82.4674 29.5733 82.7341 27.92C83.0007 26.24 83.4407 24.4667 84.0541 22.6C84.3207 21.8 84.6941 21.2267 85.1741 20.88C85.6541 20.5333 86.4141 20.36 87.4541 20.36C88.0407 20.36 88.4407 20.4533 88.6541 20.64C88.8941 20.8267 89.0141 21.1067 89.0141 21.48C89.0141 21.6933 88.8674 22.4133 88.5741 23.64C88.3074 24.6267 88.0941 25.52 87.9341 26.32C87.4007 29.12 87.1341 30.9867 87.1341 31.92C87.1341 32.48 87.2007 32.88 87.3341 33.12C87.4674 33.3333 87.6807 33.44 87.9741 33.44C88.3741 33.44 88.8674 33.04 89.4541 32.24C90.0674 31.44 90.7074 30.2267 91.3741 28.6C92.0674 26.9733 92.7341 24.9733 93.3741 22.6C93.5874 21.8 93.9074 21.2267 94.3341 20.88C94.7874 20.5333 95.4541 20.36 96.3341 20.36C96.9474 20.36 97.3741 20.44 97.6141 20.6C97.8541 20.7333 97.9741 21 97.9741 21.4C97.9741 22.0667 97.6407 23.8933 96.9741 26.88C96.2274 30.2933 95.8541 32.4 95.8541 33.2C95.8541 33.7067 95.9607 34.1067 96.1741 34.4C96.3874 34.6667 96.6674 34.8 97.0141 34.8C97.5474 34.8 98.1741 34.48 98.8941 33.84C99.6407 33.1733 100.627 32.1067 101.854 30.64C102.174 30.2667 102.534 30.08 102.934 30.08C103.281 30.08 103.547 30.24 103.734 30.56C103.947 30.88 104.054 31.32 104.054 31.88C104.054 32.9467 103.801 33.7733 103.294 34.36C102.147 35.7733 100.907 36.9333 99.5741 37.84C98.2674 38.7467 96.7741 39.2 95.0941 39.2C93.8141 39.2 92.8674 38.7067 92.2541 37.72C91.6674 36.7333 91.3741 35.3467 91.3741 33.56C90.9207 35.3733 90.2407 36.7733 89.3341 37.76C88.4274 38.72 87.4541 39.2 86.4141 39.2ZM115.851 26.8C115.851 28.9067 115.357 30.9067 114.371 32.8C113.411 34.6667 112.117 36.1867 110.491 37.36C108.891 38.5333 107.171 39.1467 105.331 39.2C104.984 44.3467 104.197 48.64 102.971 52.08C101.744 55.5467 99.944 57.28 97.5706 57.28C96.1306 57.28 95.064 56.76 94.3706 55.72C93.6773 54.68 93.3306 53.24 93.3306 51.4C93.3306 48.7867 93.9306 45.7333 95.1306 42.24C96.3306 38.7733 98.184 34.9467 100.691 30.76C100.691 26.8667 100.664 24.16 100.611 22.64C100.584 21.8667 100.891 21.2533 101.531 20.8C102.171 20.3467 102.971 20.12 103.931 20.12C104.491 20.12 104.891 20.24 105.131 20.48C105.397 20.6933 105.544 21.1333 105.571 21.8C105.571 22.4667 105.584 22.96 105.611 23.28C106.464 22.2133 107.304 21.4533 108.131 21C108.957 20.52 109.837 20.28 110.771 20.28C112.264 20.28 113.477 20.88 114.411 22.08C115.371 23.28 115.851 24.8533 115.851 26.8ZM105.531 35.36C106.491 35.1467 107.371 34.6267 108.171 33.8C108.997 32.9467 109.651 31.9067 110.131 30.68C110.611 29.4267 110.851 28.12 110.851 26.76C110.851 25.96 110.691 25.36 110.371 24.96C110.051 24.5333 109.624 24.32 109.091 24.32C108.131 24.32 106.971 25.3333 105.611 27.36C105.584 28.5333 105.571 30.2533 105.571 32.52C105.571 33.7467 105.557 34.6933 105.531 35.36ZM97.8906 53.36C98.6106 53.36 99.2106 51.7867 99.6906 48.64C100.171 45.52 100.477 41.6267 100.611 36.96C99.464 39.6267 98.5573 42.1733 97.8906 44.6C97.224 47.0267 96.8906 49.0667 96.8906 50.72C96.8906 51.5733 96.9973 52.2267 97.2106 52.68C97.3973 53.1333 97.624 53.36 97.8906 53.36Z" fill="#986CE9"/>
<path d="M3.44 37L2.72016 37.6941L2.72647 37.7007L2.73289 37.7071L3.44 37ZM2.56 25.44L3.44555 25.9045L2.56 25.44ZM5.88 21.68L5.33675 20.8404H5.33675L5.88 21.68ZM13.56 21.68L12.8201 22.3527L12.8307 22.3644L12.8418 22.3758L13.56 21.68ZM14.04 27.84L13.2035 27.292L13.1968 27.3022L13.1904 27.3126L14.04 27.84ZM10.88 28.64L10.2468 29.414L10.2631 29.4273L10.28 29.44L10.88 28.64ZM10.64 26.48L9.69132 26.1638L9.67917 26.2002L9.66986 26.2375L10.64 26.48ZM10.56 24.56L9.80074 25.2108L9.82574 25.2399L9.85289 25.2671L10.56 24.56ZM8.12 25.12L8.82711 25.8271L8.83573 25.8185L8.84414 25.8097L8.12 25.12ZM6.84 27.32L5.89405 26.9957H5.89405L6.84 27.32ZM13.92 33.96L14.4181 34.8271L14.4239 34.8238L13.92 33.96ZM17.68 30.64L16.9207 29.9892L16.9129 29.9984L17.68 30.64ZM19.56 30.56L18.6962 31.0639L18.7113 31.0898L18.728 31.1147L19.56 30.56ZM19.12 34.36L19.897 34.9896L19.904 34.9807L19.12 34.36ZM14.6 37.96L15.0305 38.8626L15.0363 38.8598L14.6 37.96ZM9.56 39.2V38.2C7.13926 38.2 5.38047 37.5263 4.14711 36.2929L3.44 37L2.73289 37.7071C4.43287 39.4071 6.75408 40.2 9.56 40.2V39.2ZM3.44 37L4.15984 36.3059C2.92984 35.0303 2.28 33.3349 2.28 31.12H1.28H0.28C0.28 33.7584 1.07016 35.983 2.72016 37.6941L3.44 37ZM1.28 31.12H2.28C2.28 29.0934 2.67958 27.3647 3.44555 25.9045L2.56 25.44L1.67445 24.9754C0.733753 26.7687 0.28 28.8266 0.28 31.12H1.28ZM2.56 25.44L3.44555 25.9045C4.22983 24.4095 5.22618 23.2941 6.42325 22.5196L5.88 21.68L5.33675 20.8404C3.81382 21.8259 2.59684 23.2172 1.67445 24.9754L2.56 25.44ZM5.88 21.68L6.42325 22.5196C7.63571 21.735 8.87578 21.36 10.16 21.36V20.36V19.36C8.45756 19.36 6.84429 19.865 5.33675 20.8404L5.88 21.68ZM10.16 20.36V21.36C11.4157 21.36 12.2525 21.7283 12.8201 22.3527L13.56 21.68L14.2999 21.0073C13.2675 19.8717 11.8376 19.36 10.16 19.36V20.36ZM13.56 21.68L12.8418 22.3758C13.4613 23.0153 13.8 23.8591 13.8 25H14.8H15.8C15.8 23.4209 15.312 22.0513 14.2782 20.9842L13.56 21.68ZM14.8 25H13.8C13.8 25.9669 13.5828 26.7131 13.2035 27.292L14.04 27.84L14.8765 28.388C15.5105 27.4202 15.8 26.2731 15.8 25H14.8ZM14.04 27.84L13.1904 27.3126C12.863 27.84 12.5212 28 12.12 28V29V30C13.3188 30 14.257 29.3867 14.8896 28.3674L14.04 27.84ZM12.12 29V28C11.7714 28 11.5854 27.9191 11.48 27.84L10.88 28.64L10.28 29.44C10.8146 29.8409 11.4553 30 12.12 30V29ZM10.88 28.64L11.5132 27.866C11.4831 27.8414 11.44 27.8093 11.44 27.64H10.44H9.44C9.44 28.324 9.69024 28.9586 10.2468 29.414L10.88 28.64ZM10.44 27.64H11.44C11.44 27.5451 11.454 27.4067 11.4962 27.2169L10.52 27L9.54381 26.7831C9.47932 27.0733 9.44 27.3616 9.44 27.64H10.44ZM10.52 27L11.4962 27.2169C11.5493 26.9777 11.5869 26.8154 11.6101 26.7225L10.64 26.48L9.66986 26.2375C9.63975 26.3579 9.59732 26.5423 9.54381 26.7831L10.52 27ZM10.64 26.48L11.5887 26.7962C11.7489 26.3155 11.84 25.8345 11.84 25.36H10.84H9.84C9.84 25.5788 9.79776 25.8445 9.69132 26.1638L10.64 26.48ZM10.84 25.36H11.84C11.84 24.8344 11.6946 24.2804 11.2671 23.8529L10.56 24.56L9.85289 25.2671C9.84429 25.2585 9.83703 25.2491 9.8317 25.2405C9.82651 25.2321 9.82525 25.2278 9.82614 25.2304C9.8283 25.2365 9.84 25.2745 9.84 25.36H10.84ZM10.56 24.56L11.3193 23.9092C10.9156 23.4383 10.3579 23.28 9.84 23.28V24.28V25.28C9.90504 25.28 9.91738 25.2897 9.89755 25.282C9.88703 25.2779 9.8706 25.2701 9.85154 25.2567C9.83229 25.2433 9.81497 25.2274 9.80074 25.2108L10.56 24.56ZM9.84 24.28V23.28C8.88547 23.28 8.06568 23.727 7.39586 24.4303L8.12 25.12L8.84414 25.8097C9.24099 25.393 9.56786 25.28 9.84 25.28V24.28ZM8.12 25.12L7.41289 24.4129C6.74392 25.0819 6.24884 25.9609 5.89405 26.9957L6.84 27.32L7.78595 27.6443C8.07116 26.8124 8.42941 26.2248 8.82711 25.8271L8.12 25.12ZM6.84 27.32L5.89405 26.9957C5.53379 28.0465 5.36 29.1844 5.36 30.4H6.36H7.36C7.36 29.3756 7.50621 28.4602 7.78595 27.6443L6.84 27.32ZM6.36 30.4H5.36C5.36 32.0694 5.72041 33.5083 6.61582 34.5367C7.53426 35.5915 8.86038 36.04 10.4 36.04V35.04V34.04C9.24629 34.04 8.5524 33.7152 8.12419 33.2233C7.67293 32.7051 7.36 31.8239 7.36 30.4H6.36ZM10.4 35.04V36.04C11.7156 36.04 13.0605 35.607 14.4181 34.8271L13.92 33.96L13.4219 33.0929C12.2728 33.753 11.271 34.04 10.4 34.04V35.04ZM13.92 33.96L14.4239 34.8238C15.8281 34.0047 17.1666 32.8125 18.4471 31.2816L17.68 30.64L16.9129 29.9984C15.74 31.4008 14.5719 32.422 13.4161 33.0962L13.92 33.96ZM17.68 30.64L18.4393 31.2908C18.6167 31.0837 18.7177 31.08 18.76 31.08V30.08V29.08C18.0023 29.08 17.3833 29.4496 16.9207 29.9892L17.68 30.64ZM18.76 30.08V31.08C18.7694 31.08 18.7656 31.081 18.7526 31.0776C18.7389 31.074 18.7221 31.0674 18.7055 31.0575C18.6892 31.0477 18.6802 31.0389 18.678 31.0366C18.6763 31.0349 18.6834 31.0419 18.6962 31.0639L19.56 30.56L20.4238 30.0561C20.0729 29.4546 19.4911 29.08 18.76 29.08V30.08ZM19.56 30.56L18.728 31.1147C18.7924 31.2114 18.88 31.432 18.88 31.88H19.88H20.88C20.88 31.208 20.7543 30.5486 20.3921 30.0053L19.56 30.56ZM19.88 31.88H18.88C18.88 32.7237 18.6717 33.3152 18.336 33.7393L19.12 34.36L19.904 34.9807C20.5816 34.1248 20.88 33.0629 20.88 31.88H19.88ZM19.12 34.36L18.3431 33.7304C17.1804 35.1652 15.7893 36.272 14.1637 37.0602L14.6 37.96L15.0363 38.8598C16.9307 37.9413 18.5529 36.6481 19.8969 34.9896L19.12 34.36ZM14.6 37.96L14.1695 37.0574C12.5466 37.8314 11.0132 38.2 9.56 38.2V39.2V40.2C11.3602 40.2 13.1868 39.7419 15.0305 38.8626L14.6 37.96ZM38.8466 30.56L37.9828 31.0639L37.9979 31.0898L38.0145 31.1147L38.8466 30.56ZM38.4066 34.36L39.1618 35.0155L39.1634 35.0136L38.4066 34.36ZM34.6066 37.84L34.0365 37.0184L34.0285 37.024L34.6066 37.84ZM27.1266 38.04L26.3709 38.6949L26.3764 38.7013L26.382 38.7075L27.1266 38.04ZM26.6466 30.6L25.6671 30.3979L25.6649 30.4091L26.6466 30.6ZM25.2466 27.84L26.0554 28.4282L26.0635 28.4167L25.2466 27.84ZM23.3266 31.36L24.2431 31.7599L23.3266 31.36ZM21.7666 36L20.7955 35.7612L20.7936 35.7689L21.7666 36ZM16.4066 38.36L15.481 38.7386L15.4916 38.7646L15.5037 38.7899L16.4066 38.36ZM16.0866 33.2L17.0852 33.2526L17.0862 33.2325L17.0865 33.2125L16.0866 33.2ZM16.1266 30L17.1266 30.0125V30H16.1266ZM17.3666 17.16L16.3844 16.9718L16.3834 16.9775L17.3666 17.16ZM21.0866 5.96L20.2081 5.48222L20.2066 5.48497L21.0866 5.96ZM29.9666 3L29.1473 3.57346L29.1556 3.5852L29.1641 3.5967L29.9666 3ZM28.7666 15.48L29.6442 15.9594L29.646 15.956L28.7666 15.48ZM21.0866 25.6L20.3496 24.924L20.1087 25.1866L20.0882 25.5424L21.0866 25.6ZM20.9666 29.88H19.9666L21.8988 30.2419L20.9666 29.88ZM23.8866 24.36L23.0901 23.7553L23.0884 23.7576L23.8866 24.36ZM27.0866 21.28L26.5881 20.413L26.5786 20.4186L27.0866 21.28ZM31.7266 28.6L32.7035 28.8134L32.7041 28.8108L31.7266 28.6ZM34.0066 33.84L34.6709 34.5874L34.6726 34.5859L34.0066 33.84ZM36.9666 30.64L36.2072 29.9892L36.1995 29.9984L36.9666 30.64ZM24.5666 7.44L25.4848 7.8361L25.4875 7.82964L24.5666 7.44ZM22.8466 13L21.8738 12.7679L21.872 12.776L22.8466 13ZM21.5266 20.6L20.5344 20.4748L20.1137 23.8083L22.2888 21.2473L21.5266 20.6ZM25.6066 14.24L24.7039 13.8096L24.6998 13.8183L25.6066 14.24ZM26.9666 6.04L27.8912 5.65925V5.65925L26.9666 6.04ZM38.0466 30.08V31.08C38.056 31.08 38.0522 31.081 38.0391 31.0776C38.0254 31.074 38.0086 31.0674 37.9921 31.0575C37.9758 31.0477 37.9667 31.0389 37.9646 31.0366C37.9629 31.0349 37.97 31.0419 37.9828 31.0639L38.8466 30.56L39.7103 30.0561C39.3595 29.4546 38.7777 29.08 38.0466 29.08V30.08ZM38.8466 30.56L38.0145 31.1147C38.079 31.2114 38.1666 31.432 38.1666 31.88H39.1666H40.1666C40.1666 31.208 40.0408 30.5486 39.6786 30.0053L38.8466 30.56ZM39.1666 31.88H38.1666C38.1666 32.7969 37.9492 33.3596 37.6497 33.7064L38.4066 34.36L39.1634 35.0136C39.8773 34.187 40.1666 33.0964 40.1666 31.88H39.1666ZM38.4066 34.36L37.6513 33.7045C36.4699 35.0657 35.264 36.1667 34.0365 37.0184L34.6066 37.84L35.1766 38.6616C36.5625 37.7 37.8899 36.4809 39.1618 35.0155L38.4066 34.36ZM34.6066 37.84L34.0285 37.024C32.927 37.8043 31.6647 38.2 30.2066 38.2V39.2V40.2C32.0551 40.2 33.7262 39.6891 35.1846 38.656L34.6066 37.84ZM30.2066 39.2V38.2C29.0377 38.2 28.3205 37.8736 27.8711 37.3725L27.1266 38.04L26.382 38.7075C27.3193 39.753 28.6554 40.2 30.2066 40.2V39.2ZM27.1266 38.04L27.8823 37.3851C27.4006 36.8293 27.0866 35.9507 27.0866 34.6H26.0866H25.0866C25.0866 36.236 25.4659 37.6507 26.3709 38.6949L27.1266 38.04ZM26.0866 34.6H27.0866C27.0866 33.9622 27.2536 32.7173 27.6282 30.7909L26.6466 30.6L25.6649 30.4091C25.2929 32.3227 25.0866 33.7445 25.0866 34.6H26.0866ZM26.6466 30.6L27.6259 30.8021C27.9708 29.1307 28.1666 27.8761 28.1666 27.12H27.1666H26.1666C26.1666 27.6439 26.0156 28.7093 25.6672 30.3979L26.6466 30.6ZM27.1666 27.12H28.1666C28.1666 26.8231 28.1212 26.4234 27.8806 26.0735C27.5936 25.656 27.1516 25.48 26.7266 25.48V26.48V27.48C26.6786 27.48 26.5883 27.471 26.4828 27.4198C26.3726 27.3664 26.2881 27.2873 26.2325 27.2065C26.1386 27.07 26.1666 26.9902 26.1666 27.12H27.1666ZM26.7266 26.48V25.48C26.1545 25.48 25.701 25.8254 25.4199 26.0837C25.0981 26.3794 24.7676 26.7844 24.4296 27.2633L25.2466 27.84L26.0635 28.4167C26.3655 27.9889 26.6017 27.7139 26.7732 27.5563C26.858 27.4784 26.9046 27.4501 26.914 27.445C26.9253 27.4389 26.8564 27.48 26.7266 27.48V26.48ZM25.2466 27.84L24.4378 27.2518C23.7403 28.2109 23.0668 29.4549 22.41 30.9601L23.3266 31.36L24.2431 31.7599C24.8663 30.3318 25.4728 29.2291 26.0553 28.4282L25.2466 27.84ZM23.3266 31.36L22.41 30.9601C21.7463 32.4812 21.2084 34.0819 20.7955 35.7612L21.7666 36L22.7376 36.2388C23.1247 34.6647 23.6269 33.1722 24.2431 31.7599L23.3266 31.36ZM21.7666 36L20.7936 35.7689C20.5732 36.6968 20.217 37.2823 19.7984 37.6385C19.3894 37.9866 18.8223 38.2 18.0066 38.2V39.2V40.2C19.1908 40.2 20.2504 39.8801 21.0947 39.1615C21.9295 38.4511 22.4532 37.4365 22.7395 36.2311L21.7666 36ZM18.0066 39.2V38.2C17.4587 38.2 17.3597 38.0356 17.3094 37.9301L16.4066 38.36L15.5037 38.7899C15.9868 39.8044 16.9544 40.2 18.0066 40.2V39.2ZM16.4066 38.36L17.3321 37.9814C17.1738 37.5944 17.0466 36.7328 17.0466 35.24H16.0466H15.0466C15.0466 36.7339 15.1593 37.9523 15.481 38.7386L16.4066 38.36ZM16.0466 35.24H17.0466C17.0466 34.3941 17.0598 33.7339 17.0852 33.2526L16.0866 33.2L15.0879 33.1474C15.0599 33.6794 15.0466 34.3792 15.0466 35.24H16.0466ZM16.0866 33.2L17.0865 33.2125L17.1265 30.0125L16.1266 30L15.1266 29.9875L15.0866 33.1875L16.0866 33.2ZM16.1266 30H17.1266C17.1266 25.9604 17.5331 21.7417 18.3498 17.3425L17.3666 17.16L16.3834 16.9775C15.5466 21.4849 15.1266 25.8262 15.1266 30H16.1266ZM17.3666 17.16L18.3487 17.3482C19.1886 12.9647 20.4012 9.3348 21.9665 6.43503L21.0866 5.96L20.2066 5.48497C18.5186 8.61186 17.2511 12.4486 16.3844 16.9718L17.3666 17.16ZM21.0866 5.96L21.965 6.43777C23.541 3.54001 25.2466 2.4 27.0066 2.4V1.4V0.399998C24.1799 0.399998 21.9388 2.29999 20.2081 5.48223L21.0866 5.96ZM27.0066 1.4V2.4C27.8839 2.4 28.5742 2.75473 29.1473 3.57346L29.9666 3L30.7858 2.42654C29.8656 1.11193 28.5825 0.399998 27.0066 0.399998V1.4ZM29.9666 3L29.1641 3.5967C29.7757 4.4192 30.1266 5.55116 30.1266 7.08H31.1266H32.1266C32.1266 5.24884 31.7041 3.66079 30.769 2.4033L29.9666 3ZM31.1266 7.08H30.1266C30.1266 9.57339 29.3991 12.2107 27.8871 15.004L28.7666 15.48L29.646 15.956C31.2807 12.936 32.1266 9.97327 32.1266 7.08H31.1266ZM28.7666 15.48L27.889 15.0006C26.3704 17.7804 23.87 21.086 20.3496 24.924L21.0866 25.6L21.8235 26.276C25.3964 22.3807 28.0161 18.9396 29.6441 15.9594L28.7666 15.48ZM21.0866 25.6L20.0882 25.5424C20.0071 26.9493 19.9666 28.3952 19.9666 29.88H20.9666H21.9666C21.9666 28.4315 22.0061 27.0241 22.0849 25.6576L21.0866 25.6ZM20.9666 29.88L21.8988 30.2419C22.7569 28.0316 23.69 26.2805 24.6848 24.9624L23.8866 24.36L23.0884 23.7576C21.9498 25.2662 20.9362 27.195 20.0344 29.5181L20.9666 29.88ZM23.8866 24.36L24.683 24.9647C25.7332 23.5816 26.7077 22.6644 27.5945 22.1414L27.0866 21.28L26.5786 20.4186C25.3854 21.1223 24.2266 22.2584 23.0901 23.7553L23.8866 24.36ZM27.0866 21.28L27.585 22.1469C28.5574 21.5878 29.3576 21.36 30.0066 21.36V20.36V19.36C28.8956 19.36 27.749 19.7456 26.5881 20.4131L27.0866 21.28ZM30.0066 20.36V21.36C30.7191 21.36 31.0698 21.5375 31.2495 21.7171C31.4291 21.8968 31.6066 22.2475 31.6066 22.96H32.6066H33.6066C33.6066 21.9392 33.3507 20.9899 32.6637 20.3029C31.9767 19.6159 31.0274 19.36 30.0066 19.36V20.36ZM32.6066 22.96H31.6066C31.6066 23.8789 31.3376 25.6603 30.749 28.3892L31.7266 28.6L32.7041 28.8108C33.2888 26.0997 33.6066 24.1211 33.6066 22.96H32.6066ZM31.7266 28.6L30.7496 28.3866C30.2479 30.6839 29.9666 32.3259 29.9666 33.2H30.9666H31.9666C31.9666 32.5808 32.1919 31.1561 32.7035 28.8134L31.7266 28.6ZM30.9666 33.2H29.9666C29.9666 33.8243 30.0744 34.4731 30.447 34.987C30.8628 35.5605 31.4829 35.8 32.1266 35.8V34.8V33.8C32.0475 33.8 32.0261 33.7865 32.0368 33.7914C32.0419 33.7938 32.0495 33.7982 32.0573 33.8046C32.0648 33.8109 32.0676 33.815 32.0662 33.813C32.0521 33.7936 31.9666 33.6423 31.9666 33.2H30.9666ZM32.1266 34.8V35.8C33.0375 35.8 33.9002 35.2725 34.6709 34.5874L34.0066 33.84L33.3422 33.0926C32.6729 33.6875 32.2823 33.8 32.1266 33.8V34.8ZM34.0066 33.84L34.6726 34.5859C35.4746 33.8699 36.4984 32.7584 37.7336 31.2816L36.9666 30.64L36.1995 29.9984C34.9813 31.4549 34.0319 32.4768 33.3405 33.0941L34.0066 33.84ZM36.9666 30.64L37.7258 31.2908C37.9033 31.0837 38.0043 31.08 38.0466 31.08V30.08V29.08C37.2889 29.08 36.6698 29.4496 36.2073 29.9892L36.9666 30.64ZM26.1666 5.36V4.36C25.4356 4.36 24.9226 4.86908 24.6139 5.27029C24.2711 5.71599 23.952 6.32619 23.6456 7.05036L24.5666 7.44L25.4875 7.82964C25.7678 7.16714 26.0087 6.73734 26.1992 6.48971C26.4239 6.19758 26.4175 6.36 26.1666 6.36V5.36ZM24.5666 7.44L23.6484 7.04391C23.0292 8.47933 22.4401 10.3953 21.8739 12.7679L22.8466 13L23.8193 13.2321C24.3731 10.9114 24.9306 9.12067 25.4848 7.83609L24.5666 7.44ZM22.8466 13L21.872 12.776C21.3301 15.1333 20.8846 17.7001 20.5344 20.4748L21.5266 20.6L22.5187 20.7252C22.8618 18.0066 23.2964 15.5067 23.8211 13.224L22.8466 13ZM21.5266 20.6L22.2888 21.2473C23.9996 19.233 25.4084 17.0372 26.5133 14.6617L25.6066 14.24L24.6998 13.8183C23.6714 16.0295 22.3602 18.0737 20.7644 19.9527L21.5266 20.6ZM25.6066 14.24L26.5092 14.6703C27.6448 12.2885 28.2466 10.0592 28.2466 8H27.2466H26.2466C26.2466 9.67412 25.755 11.6048 24.7039 13.8097L25.6066 14.24ZM27.2466 8H28.2466C28.2466 7.0984 28.1515 6.29139 27.8912 5.65925L26.9666 6.04L26.0419 6.42075C26.1549 6.69527 26.2466 7.19493 26.2466 8H27.2466ZM26.9666 6.04L27.8912 5.65925C27.626 5.01508 27.086 4.36 26.1666 4.36V5.36V6.36C26.1421 6.36 26.1058 6.35559 26.0649 6.34049C26.0242 6.32544 25.9952 6.30576 25.9789 6.29194C25.9641 6.27935 25.966 6.27691 25.9795 6.2972C25.9933 6.31784 26.0155 6.35666 26.0419 6.42075L26.9666 6.04ZM53.7647 30.56L52.9009 31.0639L52.916 31.0898L52.9326 31.1147L53.7647 30.56ZM53.3247 34.36L52.5679 33.7064L52.56 33.7155L52.5523 33.7249L53.3247 34.36ZM49.1247 37.68L48.6369 36.807L48.6314 36.8102L49.1247 37.68ZM36.8447 36.92L37.5456 36.2068L36.8447 36.92ZM35.6847 25.56L36.5822 26.0011L36.585 25.9952L35.6847 25.56ZM38.8847 21.76L38.3263 20.9304L38.3188 20.9355L38.8847 21.76ZM47.2847 21.76L46.5776 22.4671L46.5827 22.4722L46.5879 22.4773L47.2847 21.76ZM46.6847 30.24L45.9776 29.5329L46.6847 30.24ZM40.0047 33.36L39.766 32.3889L38.5069 32.6983L39.1261 33.8375L40.0047 33.36ZM47.8847 33.96L48.3625 34.8385L48.3678 34.8356L47.8847 33.96ZM51.8847 30.64L51.1254 29.9892L51.119 29.9967L51.1128 30.0043L51.8847 30.64ZM40.3647 26L39.509 25.4826L39.5045 25.4899L39.5002 25.4974L40.3647 26ZM39.3647 30.24H38.3647V31.5051L39.5956 31.213L39.3647 30.24ZM43.0847 28.56L42.449 27.7881L43.0847 28.56ZM44.0047 24.76L43.2365 25.4002L43.2655 25.435L43.2976 25.4671L44.0047 24.76ZM52.9647 30.08V31.08C52.9741 31.08 52.9703 31.081 52.9573 31.0776C52.9436 31.074 52.9268 31.0674 52.9102 31.0575C52.8939 31.0477 52.8849 31.0389 52.8827 31.0366C52.881 31.0349 52.8881 31.0419 52.9009 31.0639L53.7647 30.56L54.6285 30.0561C54.2776 29.4546 53.6958 29.08 52.9647 29.08V30.08ZM53.7647 30.56L52.9326 31.1147C52.9971 31.2114 53.0847 31.432 53.0847 31.88H54.0847H55.0847C55.0847 31.208 54.9589 30.5486 54.5967 30.0053L53.7647 30.56ZM54.0847 31.88H53.0847C53.0847 32.7969 52.8673 33.3596 52.5679 33.7064L53.3247 34.36L54.0815 35.0136C54.7954 34.187 55.0847 33.0964 55.0847 31.88H54.0847ZM53.3247 34.36L52.5523 33.7249C51.6666 34.8021 50.3759 35.8353 48.6369 36.8071L49.1247 37.68L49.6125 38.5529C51.5002 37.4981 53.0095 36.3179 54.0971 34.9951L53.3247 34.36ZM49.1247 37.68L48.6314 36.8102C46.9951 37.7382 45.245 38.2 43.3647 38.2V39.2V40.2C45.591 40.2 47.681 39.6485 49.618 38.5498L49.1247 37.68ZM43.3647 39.2V38.2C40.7473 38.2 38.8553 37.4939 37.5456 36.2068L36.8447 36.92L36.1438 37.6332C37.9274 39.3861 40.382 40.2 43.3647 40.2V39.2ZM36.8447 36.92L37.5456 36.2068C36.2305 34.9144 35.5247 33.1141 35.5247 30.68H34.5247H33.5247C33.5247 33.5259 34.3655 35.8856 36.1438 37.6332L36.8447 36.92ZM34.5247 30.68H35.5247C35.5247 28.9852 35.8796 27.4304 36.5821 26.0011L35.6847 25.56L34.7872 25.1189C33.9431 26.8363 33.5247 28.6948 33.5247 30.68H34.5247ZM35.6847 25.56L36.585 25.9952C37.2887 24.5393 38.2451 23.4118 39.4505 22.5845L38.8847 21.76L38.3188 20.9355C36.8043 21.9749 35.6274 23.3807 34.7843 25.1248L35.6847 25.56ZM38.8847 21.76L39.4431 22.5896C40.6584 21.7716 42.0225 21.36 43.5647 21.36V20.36V19.36C41.6402 19.36 39.8844 19.8817 38.3263 20.9304L38.8847 21.76ZM43.5647 20.36V21.36C44.8953 21.36 45.8639 21.7534 46.5776 22.4671L47.2847 21.76L47.9918 21.0529C46.8388 19.8999 45.3274 19.36 43.5647 19.36V20.36ZM47.2847 21.76L46.5879 22.4773C47.2878 23.1572 47.6847 24.1163 47.6847 25.48H48.6847H49.6847C49.6847 23.697 49.1482 22.1761 47.9815 21.0427L47.2847 21.76ZM48.6847 25.48H47.6847C47.6847 27.0475 47.1286 28.3819 45.9776 29.5329L46.6847 30.24L47.3918 30.9471C48.9075 29.4314 49.6847 27.5925 49.6847 25.48H48.6847ZM46.6847 30.24L45.9776 29.5329C44.8644 30.6461 42.8517 31.6305 39.766 32.3889L40.0047 33.36L40.2434 34.3311C43.451 33.5428 45.8916 32.4473 47.3918 30.9471L46.6847 30.24ZM40.0047 33.36L39.1261 33.8375C40.0265 35.4943 41.7136 36.2 43.8047 36.2V35.2V34.2C42.1624 34.2 41.3162 33.6791 40.8833 32.8825L40.0047 33.36ZM43.8047 35.2V36.2C45.2291 36.2 46.7564 35.7119 48.3625 34.8385L47.8847 33.96L47.4069 33.0815C45.9729 33.8614 44.7803 34.2 43.8047 34.2V35.2ZM47.8847 33.96L48.3678 34.8356C50.0247 33.9214 51.4561 32.7334 52.6566 31.2757L51.8847 30.64L51.1128 30.0043C50.0732 31.2666 48.838 32.2919 47.4016 33.0844L47.8847 33.96ZM51.8847 30.64L52.6439 31.2908C52.8214 31.0837 52.9224 31.08 52.9647 31.08V30.08V29.08C52.207 29.08 51.588 29.4496 51.1254 29.9892L51.8847 30.64ZM42.8847 24.28V23.28C41.4273 23.28 40.3107 24.1566 39.509 25.4826L40.3647 26L41.2204 26.5174C41.8053 25.5501 42.3688 25.28 42.8847 25.28V24.28ZM40.3647 26L39.5002 25.4974C38.7267 26.8277 38.3647 28.3965 38.3647 30.16H39.3647H40.3647C40.3647 28.6701 40.6693 27.4656 41.2292 26.5026L40.3647 26ZM39.3647 30.16H38.3647V30.24H39.3647H40.3647V30.16H39.3647ZM39.3647 30.24L39.5956 31.213C41.2646 30.8169 42.6601 30.2051 43.7204 29.3319L43.0847 28.56L42.449 27.7881C41.6959 28.4083 40.6114 28.9164 39.1338 29.267L39.3647 30.24ZM43.0847 28.56L43.7204 29.3319C44.809 28.4354 45.4447 27.3033 45.4447 25.96H44.4447H43.4447C43.4447 26.59 43.1737 27.1913 42.449 27.7881L43.0847 28.56ZM44.4447 25.96H45.4447C45.4447 25.2506 45.2327 24.5738 44.7118 24.0529L44.0047 24.76L43.2976 25.4671C43.3634 25.5329 43.4447 25.6561 43.4447 25.96H44.4447ZM44.0047 24.76L44.7729 24.1198C44.2861 23.5357 43.611 23.28 42.8847 23.28V24.28V25.28C43.1184 25.28 43.1899 25.3443 43.2365 25.4002L44.0047 24.76ZM68.6678 30.56L67.804 31.0639L67.8191 31.0898L67.8358 31.1147L68.6678 30.56ZM68.2278 34.36L67.471 33.7064L67.4631 33.7155L67.4554 33.7249L68.2278 34.36ZM64.0278 37.68L63.54 36.807L63.5345 36.8102L64.0278 37.68ZM51.7478 36.92L52.4487 36.2068L51.7478 36.92ZM50.5878 25.56L51.4853 26.0011L51.4882 25.9952L50.5878 25.56ZM53.7878 21.76L53.2294 20.9304L53.222 20.9355L53.7878 21.76ZM62.1878 21.76L61.4807 22.4671L61.4858 22.4722L61.491 22.4773L62.1878 21.76ZM61.5878 30.24L60.8807 29.5329L61.5878 30.24ZM54.9078 33.36L54.6692 32.3889L53.4101 32.6983L54.0292 33.8375L54.9078 33.36ZM62.7878 33.96L63.2656 34.8385L63.2709 34.8356L62.7878 33.96ZM66.7878 30.64L66.0286 29.9892L66.0221 29.9967L66.0159 30.0043L66.7878 30.64ZM55.2678 26L54.4121 25.4826L54.4076 25.4899L54.4033 25.4974L55.2678 26ZM54.2678 30.24H53.2678V31.5051L54.4987 31.213L54.2678 30.24ZM57.9878 28.56L57.3521 27.7881L57.9878 28.56ZM58.9078 24.76L58.1396 25.4002L58.1686 25.435L58.2007 25.4671L58.9078 24.76ZM67.8678 30.08V31.08C67.8772 31.08 67.8735 31.081 67.8604 31.0776C67.8467 31.074 67.8299 31.0674 67.8133 31.0575C67.797 31.0477 67.788 31.0389 67.7858 31.0366C67.7841 31.0349 67.7912 31.0419 67.804 31.0639L68.6678 30.56L69.5316 30.0561C69.1807 29.4546 68.599 29.08 67.8678 29.08V30.08ZM68.6678 30.56L67.8358 31.1147C67.9002 31.2114 67.9878 31.432 67.9878 31.88H68.9878H69.9878C69.9878 31.208 69.8621 30.5486 69.4999 30.0053L68.6678 30.56ZM68.9878 31.88H67.9878C67.9878 32.7969 67.7705 33.3596 67.471 33.7064L68.2278 34.36L68.9846 35.0136C69.6985 34.187 69.9878 33.0964 69.9878 31.88H68.9878ZM68.2278 34.36L67.4554 33.7249C66.5697 34.8021 65.279 35.8353 63.54 36.8071L64.0278 37.68L64.5156 38.5529C66.4033 37.4981 67.9126 36.3179 69.0002 34.9951L68.2278 34.36ZM64.0278 37.68L63.5345 36.8102C61.8982 37.7382 60.1481 38.2 58.2678 38.2V39.2V40.2C60.4941 40.2 62.5841 39.6485 64.5211 38.5498L64.0278 37.68ZM58.2678 39.2V38.2C55.6505 38.2 53.7584 37.4939 52.4487 36.2068L51.7478 36.92L51.0469 37.6332C52.8305 39.3861 55.2852 40.2 58.2678 40.2V39.2ZM51.7478 36.92L52.4487 36.2068C51.1337 34.9144 50.4278 33.1141 50.4278 30.68H49.4278H48.4278C48.4278 33.5259 49.2686 35.8856 51.0469 37.6332L51.7478 36.92ZM49.4278 30.68H50.4278C50.4278 28.9852 50.7827 27.4304 51.4853 26.0011L50.5878 25.56L49.6904 25.1189C48.8462 26.8363 48.4278 28.6948 48.4278 30.68H49.4278ZM50.5878 25.56L51.4882 25.9952C52.1918 24.5393 53.1482 23.4118 54.3537 22.5845L53.7878 21.76L53.222 20.9355C51.7075 21.9749 50.5305 23.3807 49.6875 25.1248L50.5878 25.56ZM53.7878 21.76L54.3462 22.5896C55.5615 21.7716 56.9256 21.36 58.4678 21.36V20.36V19.36C56.5433 19.36 54.7875 19.8817 53.2294 20.9304L53.7878 21.76ZM58.4678 20.36V21.36C59.7984 21.36 60.767 21.7534 61.4807 22.4671L62.1878 21.76L62.8949 21.0529C61.742 19.8999 60.2306 19.36 58.4678 19.36V20.36ZM62.1878 21.76L61.491 22.4773C62.191 23.1572 62.5878 24.1163 62.5878 25.48H63.5878H64.5878C64.5878 23.697 64.0513 22.1761 62.8846 21.0427L62.1878 21.76ZM63.5878 25.48H62.5878C62.5878 27.0475 62.0317 28.3819 60.8807 29.5329L61.5878 30.24L62.2949 30.9471C63.8106 29.4314 64.5878 27.5925 64.5878 25.48H63.5878ZM61.5878 30.24L60.8807 29.5329C59.7675 30.6461 57.7549 31.6305 54.6692 32.3889L54.9078 33.36L55.1465 34.3311C58.3541 33.5428 60.7948 32.4473 62.2949 30.9471L61.5878 30.24ZM54.9078 33.36L54.0292 33.8375C54.9296 35.4943 56.6167 36.2 58.7078 36.2V35.2V34.2C57.0655 34.2 56.2194 33.6791 55.7864 32.8825L54.9078 33.36ZM58.7078 35.2V36.2C60.1322 36.2 61.6596 35.7119 63.2656 34.8385L62.7878 33.96L62.31 33.0815C60.8761 33.8614 59.6834 34.2 58.7078 34.2V35.2ZM62.7878 33.96L63.2709 34.8356C64.9278 33.9214 66.3593 32.7334 67.5597 31.2757L66.7878 30.64L66.0159 30.0043C64.9764 31.2666 63.7411 32.2919 62.3047 33.0844L62.7878 33.96ZM66.7878 30.64L67.5471 31.2908C67.7245 31.0837 67.8255 31.08 67.8678 31.08V30.08V29.08C67.1101 29.08 66.4911 29.4496 66.0286 29.9892L66.7878 30.64ZM57.7878 24.28V23.28C56.3304 23.28 55.2138 24.1566 54.4121 25.4826L55.2678 26L56.1235 26.5174C56.7085 25.5501 57.2719 25.28 57.7878 25.28V24.28ZM55.2678 26L54.4033 25.4974C53.6298 26.8277 53.2678 28.3965 53.2678 30.16H54.2678H55.2678C55.2678 28.6701 55.5724 27.4656 56.1323 26.5026L55.2678 26ZM54.2678 30.16H53.2678V30.24H54.2678H55.2678V30.16H54.2678ZM54.2678 30.24L54.4987 31.213C56.1677 30.8169 57.5633 30.2051 58.6235 29.3319L57.9878 28.56L57.3521 27.7881C56.599 28.4083 55.5146 28.9164 54.0369 29.267L54.2678 30.24ZM57.9878 28.56L58.6235 29.3319C59.7122 28.4354 60.3478 27.3033 60.3478 25.96H59.3478H58.3478C58.3478 26.59 58.0768 27.1913 57.3521 27.7881L57.9878 28.56ZM59.3478 25.96H60.3478C60.3478 25.2506 60.1358 24.5738 59.6149 24.0529L58.9078 24.76L58.2007 25.4671C58.2665 25.5329 58.3478 25.6561 58.3478 25.96H59.3478ZM58.9078 24.76L59.676 24.1198C59.1893 23.5357 58.5141 23.28 57.7878 23.28V24.28V25.28C58.0215 25.28 58.093 25.3443 58.1396 25.4002L58.9078 24.76ZM65.6109 37.6L64.6746 37.9511L64.6784 37.9613L64.6825 37.9714L65.6109 37.6ZM66.4909 22.6L67.4444 22.9015L67.446 22.8964L66.4909 22.6ZM67.6509 20.92L68.196 21.7585L68.2056 21.752L67.6509 20.92ZM70.8109 24.2L69.845 23.9413L69.8428 23.9493L69.8408 23.9575L70.8109 24.2ZM69.7709 29.96L68.775 29.8695L70.7046 30.3183L69.7709 29.96ZM72.7309 24.36L71.9345 23.7553L72.7309 24.36ZM75.9309 21.28L75.4324 20.413L75.423 20.4186L75.9309 21.28ZM81.0909 25.48L82.0715 25.6761L82.0734 25.6666L82.0751 25.6572L81.0909 25.48ZM84.6509 27.12L83.9438 26.4129L84.6509 27.12ZM86.5309 27.08L85.6672 27.5839L85.6926 27.6274L85.7222 27.6682L86.5309 27.08ZM86.0509 30.6L86.7704 31.2946L86.7751 31.2897L86.0509 30.6ZM83.4109 32.6L83.8865 33.4797L83.8946 33.4752L83.4109 32.6ZM77.0109 32.32L76.3038 33.0271L76.3103 33.0335L76.3168 33.0398L77.0109 32.32ZM76.0509 28.2L77.0315 28.3961L77.0411 28.3482L77.046 28.2995L76.0509 28.2ZM74.0909 27.84L73.2853 27.2476L73.2822 27.2518L74.0909 27.84ZM72.1709 31.36L71.2544 30.9601L72.1709 31.36ZM70.6109 36L69.6398 35.7612L69.6373 35.7721L70.6109 36ZM69.5709 38.56L68.8211 37.8984L68.8184 37.9015L69.5709 38.56ZM67.7709 39.2V38.2C67.4493 38.2 67.2318 38.1191 67.0662 37.9964C66.8918 37.8673 66.703 37.6377 66.5394 37.2286L65.6109 37.6L64.6825 37.9714C64.9455 38.629 65.3301 39.1994 65.8757 39.6036C66.4301 40.0142 67.0793 40.2 67.7709 40.2V39.2ZM65.6109 37.6L66.5473 37.2489C66.214 36.3603 66.0109 34.8064 66.0109 32.48H65.0109H64.0109C64.0109 34.8469 64.2078 36.7064 64.6746 37.9511L65.6109 37.6ZM65.0109 32.48H66.0109C66.0109 29.1095 66.4904 25.9183 67.4444 22.9015L66.4909 22.6L65.5375 22.2985C64.5182 25.5217 64.0109 28.9171 64.0109 32.48H65.0109ZM66.4909 22.6L67.446 22.8964C67.6361 22.2839 67.9068 21.9464 68.1959 21.7584L67.6509 20.92L67.1059 20.0816C66.3284 20.587 65.8258 21.3695 65.5359 22.3036L66.4909 22.6ZM67.6509 20.92L68.2056 21.752C68.5414 21.5282 69.0946 21.36 69.9709 21.36V20.36V19.36C68.8739 19.36 67.8805 19.5651 67.0962 20.0879L67.6509 20.92ZM69.9709 20.36V21.36C70.2004 21.36 70.3645 21.3747 70.4751 21.3944C70.5937 21.4156 70.603 21.4343 70.5609 21.408L71.0909 20.56L71.6209 19.712C71.1498 19.4175 70.5242 19.36 69.9709 19.36V20.36ZM71.0909 20.56L70.5609 21.408C70.5236 21.3847 70.4891 21.3545 70.4605 21.3201C70.4326 21.2863 70.417 21.2563 70.4093 21.2381C70.396 21.2064 70.4109 21.2217 70.4109 21.32H71.4109H72.4109C72.4109 20.7815 72.252 20.1064 71.6209 19.712L71.0909 20.56ZM71.4109 21.32H70.4109C70.4109 21.4212 70.3812 21.6795 70.282 22.156C70.1873 22.6104 70.0425 23.2037 69.845 23.9413L70.8109 24.2L71.7769 24.4587C71.9793 23.703 72.1346 23.0696 72.2399 22.564C72.3406 22.0805 72.4109 21.6455 72.4109 21.32H71.4109ZM70.8109 24.2L69.8408 23.9575C69.5715 25.0346 69.3543 25.9841 69.1904 26.8039L70.1709 27L71.1515 27.1961C71.3076 26.4159 71.517 25.4987 71.7811 24.4425L70.8109 24.2ZM70.1709 27L69.1904 26.8039C69.0211 27.6503 68.8837 28.6748 68.775 29.8695L69.7709 29.96L70.7668 30.0505C70.8716 28.8986 71.0008 27.9497 71.1515 27.1961L70.1709 27ZM69.7709 29.96L70.7046 30.3183C71.562 28.0838 72.5075 26.308 73.5274 24.9647L72.7309 24.36L71.9345 23.7553C70.7677 25.292 69.7399 27.2495 68.8373 29.6017L69.7709 29.96ZM72.7309 24.36L73.5274 24.9647C74.5775 23.5816 75.5521 22.6644 76.4389 22.1414L75.9309 21.28L75.423 20.4186C74.2298 21.1223 73.071 22.2584 71.9345 23.7553L72.7309 24.36ZM75.9309 21.28L76.4294 22.1469C77.4018 21.5878 78.2019 21.36 78.8509 21.36V20.36V19.36C77.7399 19.36 76.5934 19.7456 75.4325 20.4131L75.9309 21.28ZM78.8509 20.36V21.36C79.5635 21.36 79.9142 21.5375 80.0938 21.7171C80.2735 21.8968 80.4509 22.2475 80.4509 22.96H81.4509H82.4509C82.4509 21.9392 82.1951 20.9899 81.508 20.3029C80.821 19.6159 79.8717 19.36 78.8509 19.36V20.36ZM81.4509 22.96H80.4509C80.4509 23.1975 80.3525 23.9378 80.1068 25.3028L81.0909 25.48L82.0751 25.6572C82.3094 24.3556 82.4509 23.4159 82.4509 22.96H81.4509ZM81.0909 25.48L80.1104 25.2839C80.0025 25.8233 79.9197 26.2707 79.8635 26.622C79.8107 26.9522 79.7709 27.2577 79.7709 27.48H80.7709H81.7709C81.7709 27.4799 81.7709 27.4801 81.7709 27.48C81.7709 27.4798 81.7709 27.4801 81.7709 27.4799C81.7709 27.4799 81.7709 27.4799 81.7709 27.4798C81.7709 27.4796 81.7709 27.4794 81.7709 27.4791C81.771 27.4786 81.771 27.4778 81.771 27.4767C81.771 27.4745 81.7711 27.4714 81.7713 27.4674C81.7716 27.4592 81.7723 27.4481 81.7733 27.4338C81.7754 27.4048 81.779 27.3668 81.7845 27.3185C81.7955 27.2216 81.8131 27.0957 81.8384 26.938C81.8888 26.6227 81.9661 26.2034 82.0715 25.6761L81.0909 25.48ZM80.7709 27.48H79.7709C79.7709 28.0355 79.8647 28.6317 80.2072 29.1112C80.594 29.6527 81.1748 29.88 81.7709 29.88V28.88V27.88C81.7205 27.88 81.7242 27.8713 81.7563 27.8863C81.7937 27.9038 81.822 27.931 81.8347 27.9488C81.8429 27.9603 81.8253 27.941 81.8062 27.8609C81.7871 27.7803 81.7709 27.657 81.7709 27.48H80.7709ZM81.7709 28.88V29.88C82.399 29.88 83.0093 29.6374 83.5724 29.2933C84.1435 28.9443 84.7392 28.4459 85.358 27.8271L84.6509 27.12L83.9438 26.4129C83.3893 26.9674 82.9184 27.349 82.5295 27.5867C82.1326 27.8293 81.8895 27.88 81.7709 27.88V28.88ZM84.6509 27.12L85.358 27.8271C85.5782 27.607 85.6982 27.6 85.7309 27.6V26.6V25.6C85.017 25.6 84.417 25.9397 83.9438 26.4129L84.6509 27.12ZM85.7309 26.6V27.6C85.7403 27.6 85.7366 27.601 85.7235 27.5976C85.7098 27.594 85.693 27.5874 85.6764 27.5775C85.6601 27.5677 85.6511 27.5589 85.6489 27.5566C85.6473 27.5549 85.6544 27.5619 85.6672 27.5839L86.5309 27.08L87.3947 26.5761C87.0438 25.9746 86.4621 25.6 85.7309 25.6V26.6ZM86.5309 27.08L85.7222 27.6682C85.7706 27.7347 85.8509 27.903 85.8509 28.28H86.8509H87.8509C87.8509 27.6436 87.718 27.012 87.3397 26.4918L86.5309 27.08ZM86.8509 28.28H85.8509C85.8509 29.0836 85.638 29.5836 85.3268 29.9103L86.0509 30.6L86.7751 31.2897C87.5306 30.4964 87.8509 29.4497 87.8509 28.28H86.8509ZM86.0509 30.6L85.3315 29.9054C84.6591 30.6018 83.8602 31.2092 82.9273 31.7248L83.4109 32.6L83.8946 33.4752C84.9884 32.8708 85.9494 32.1448 86.7703 31.2946L86.0509 30.6ZM83.4109 32.6L82.9354 31.7203C82.0946 32.1748 81.2047 32.4 80.2509 32.4V33.4V34.4C81.5372 34.4 82.7539 34.0919 83.8865 33.4797L83.4109 32.6ZM80.2509 33.4V32.4C79.0008 32.4 78.2063 32.0835 77.7051 31.6002L77.0109 32.32L76.3168 33.0398C77.3089 33.9965 78.6744 34.4 80.2509 34.4V33.4ZM77.0109 32.32L77.718 31.6129C77.223 31.1178 76.9309 30.4195 76.9309 29.4H75.9309H74.9309C74.9309 30.8338 75.3589 32.0822 76.3038 33.0271L77.0109 32.32ZM75.9309 29.4H76.9309C76.9309 29.0671 76.9642 28.7328 77.0315 28.3961L76.0509 28.2L75.0704 28.0039C74.9777 28.4672 74.9309 28.9329 74.9309 29.4H75.9309ZM76.0509 28.2L77.046 28.2995C77.0986 27.7729 77.1309 27.3643 77.1309 27.12H76.1309H75.1309C75.1309 27.249 75.1099 27.5605 75.0559 28.1005L76.0509 28.2ZM76.1309 27.12H77.1309C77.1309 26.8231 77.0855 26.4234 76.845 26.0735C76.558 25.656 76.116 25.48 75.6909 25.48V26.48V27.48C75.643 27.48 75.5527 27.471 75.4472 27.4198C75.337 27.3664 75.2524 27.2873 75.1969 27.2065C75.103 27.07 75.1309 26.9902 75.1309 27.12H76.1309ZM75.6909 26.48V25.48C75.1312 25.48 74.6681 25.782 74.3433 26.0581C73.993 26.3558 73.6404 26.7646 73.2853 27.2476L74.0909 27.84L74.8966 28.4324C75.2081 28.0087 75.4555 27.7375 75.6386 27.5819C75.8471 27.4047 75.8506 27.48 75.6909 27.48V26.48ZM74.0909 27.84L73.2822 27.2518C72.5847 28.2109 71.9112 29.4549 71.2544 30.9601L72.1709 31.36L73.0875 31.7599C73.7107 30.3318 74.3172 29.2291 74.8997 28.4282L74.0909 27.84ZM72.1709 31.36L71.2544 30.9601C70.5906 32.4812 70.0528 34.0819 69.6399 35.7612L70.6109 36L71.582 36.2388C71.9691 34.6647 72.4712 33.1722 73.0875 31.7599L72.1709 31.36ZM70.6109 36L69.6373 35.7721C69.3481 37.0075 69.0443 37.6454 68.8211 37.8984L69.5709 38.56L70.3208 39.2216C70.8975 38.568 71.2871 37.4992 71.5846 36.2279L70.6109 36ZM69.5709 38.56L68.8184 37.9015C68.7086 38.0269 68.4441 38.2 67.7709 38.2V39.2V40.2C68.7511 40.2 69.6866 39.9464 70.3235 39.2185L69.5709 38.56ZM83.4541 37.56L82.622 38.1147L82.6297 38.1262L82.6376 38.1375L83.4541 37.56ZM82.7341 27.92L83.7213 28.0792L83.7217 28.0768L82.7341 27.92ZM84.0541 22.6L83.1054 22.2838L83.104 22.2878L84.0541 22.6ZM85.1741 20.88L85.7596 21.6907L85.1741 20.88ZM88.6541 20.64L87.9956 21.3926L88.0173 21.4116L88.0401 21.4294L88.6541 20.64ZM88.5741 23.64L89.5394 23.9009L89.5432 23.8868L89.5466 23.8726L88.5741 23.64ZM87.9341 26.32L86.9534 26.1239L86.9517 26.1329L87.9341 26.32ZM87.3341 33.12L86.4599 33.6056L86.4724 33.6282L86.4861 33.65L87.3341 33.12ZM89.4541 32.24L88.6605 31.6316L88.654 31.64L88.6477 31.6486L89.4541 32.24ZM91.3741 28.6L90.454 28.2079L90.4488 28.2208L91.3741 28.6ZM93.3741 22.6L94.3396 22.8604L94.3403 22.8577L93.3741 22.6ZM94.3341 20.88L93.7266 20.0856L93.7149 20.0946L93.7035 20.1039L94.3341 20.88ZM97.6141 20.6L97.0594 21.432L97.093 21.4545L97.1284 21.4742L97.6141 20.6ZM96.9741 26.88L95.9981 26.6621L95.9972 26.6663L96.9741 26.88ZM96.1741 34.4L95.3653 34.9882L95.3788 35.0068L95.3932 35.0247L96.1741 34.4ZM98.8941 33.84L99.5584 34.5874L99.5601 34.5859L98.8941 33.84ZM101.854 30.64L101.095 29.9892L101.087 29.9984L101.854 30.64ZM103.734 30.56L102.87 31.0639L102.885 31.0898L102.902 31.1147L103.734 30.56ZM103.294 34.36L102.537 33.7064L102.527 33.718L102.518 33.73L103.294 34.36ZM99.5741 37.84L99.0117 37.013L99.004 37.0184L99.5741 37.84ZM92.2541 37.72L91.3945 38.2311L91.3996 38.2396L91.4048 38.2479L92.2541 37.72ZM91.3741 33.56H92.3741L90.4039 33.3175L91.3741 33.56ZM89.3341 37.76L90.0611 38.4467L90.0704 38.4366L89.3341 37.76ZM86.4141 39.2V38.2C85.5801 38.2 84.8816 37.8466 84.2705 36.9825L83.4541 37.56L82.6376 38.1375C83.5732 39.4601 84.8481 40.2 86.4141 40.2V39.2ZM83.4541 37.56L84.2861 37.0053C83.6717 36.0837 83.3341 34.9013 83.3341 33.4H82.3341H81.3341C81.3341 35.2054 81.7431 36.7963 82.622 38.1147L83.4541 37.56ZM82.3341 33.4H83.3341C83.3341 31.4434 83.4646 29.671 83.7213 28.0792L82.7341 27.92L81.7468 27.7608C81.4702 29.4757 81.3341 31.3566 81.3341 33.4H82.3341ZM82.7341 27.92L83.7217 28.0768C83.9788 26.4568 84.4049 24.7357 85.0041 22.9122L84.0541 22.6L83.104 22.2878C82.4765 24.1976 82.0226 26.0232 81.7464 27.7632L82.7341 27.92ZM84.0541 22.6L85.0027 22.9162C85.2303 22.2337 85.5078 21.8725 85.7596 21.6907L85.1741 20.88L84.5886 20.0693C83.8803 20.5808 83.4112 21.3663 83.1054 22.2838L84.0541 22.6ZM85.1741 20.88L85.7596 21.6907C85.9825 21.5297 86.4834 21.36 87.4541 21.36V20.36V19.36C86.3447 19.36 85.3256 19.537 84.5886 20.0693L85.1741 20.88ZM87.4541 20.36V21.36C87.7006 21.36 87.8655 21.3802 87.9668 21.4038C88.0739 21.4288 88.0553 21.4449 87.9956 21.3926L88.6541 20.64L89.3126 19.8874C88.8019 19.4406 88.066 19.36 87.4541 19.36V20.36ZM88.6541 20.64L88.0401 21.4294C88.0357 21.4259 88.0279 21.4188 88.0198 21.4083C88.0117 21.3978 88.007 21.3887 88.0049 21.3839C88.001 21.3747 88.0141 21.399 88.0141 21.48H89.0141H90.0141C90.0141 20.876 89.8071 20.27 89.268 19.8506L88.6541 20.64ZM89.0141 21.48H88.0141C88.0141 21.4658 88.003 21.5934 87.9242 21.9804C87.8541 22.3243 87.7471 22.7985 87.6015 23.4074L88.5741 23.64L89.5466 23.8726C89.6944 23.2548 89.8073 22.7557 89.8839 22.3796C89.9518 22.0466 90.0141 21.7075 90.0141 21.48H89.0141ZM88.5741 23.64L87.6087 23.3791C87.3376 24.3821 87.1188 25.2975 86.9535 26.1239L87.9341 26.32L88.9146 26.5161C89.0694 25.7425 89.2772 24.8712 89.5394 23.9009L88.5741 23.64ZM87.9341 26.32L86.9517 26.1329C86.4216 28.9158 86.1341 30.8761 86.1341 31.92H87.1341H88.1341C88.1341 31.0972 88.3798 29.3242 88.9164 26.5071L87.9341 26.32ZM87.1341 31.92H86.1341C86.1341 32.5076 86.1951 33.1289 86.4599 33.6056L87.3341 33.12L88.2082 32.6344C88.2168 32.6498 88.1931 32.6115 88.1705 32.4756C88.1489 32.346 88.1341 32.1641 88.1341 31.92H87.1341ZM87.3341 33.12L86.4861 33.65C86.8351 34.2085 87.4031 34.44 87.9741 34.44V33.44V32.44C87.9476 32.44 87.9808 32.4353 88.0413 32.4656C88.0711 32.4805 88.1008 32.5007 88.1273 32.5252C88.1536 32.5495 88.1713 32.5728 88.1821 32.59L87.3341 33.12ZM87.9741 33.44V34.44C88.504 34.44 88.9473 34.1816 89.2739 33.9168C89.6134 33.6414 89.9414 33.2664 90.2605 32.8314L89.4541 32.24L88.6477 31.6486C88.38 32.0136 88.168 32.2386 88.0143 32.3632C87.8475 32.4984 87.8441 32.44 87.9741 32.44V33.44ZM89.4541 32.24L90.2477 32.8484C90.9404 31.9449 91.6201 30.6367 92.2994 28.9792L91.3741 28.6L90.4488 28.2208C89.7947 29.8166 89.1944 30.9351 88.6605 31.6316L89.4541 32.24ZM91.3741 28.6L92.294 28.9921C93.011 27.3098 93.6917 25.2627 94.3396 22.8604L93.3741 22.6L92.4086 22.3396C91.7764 24.684 91.1237 26.6369 90.4541 28.2079L91.3741 28.6ZM93.3741 22.6L94.3403 22.8577C94.5253 22.164 94.7658 21.8177 94.9647 21.6561L94.3341 20.88L93.7035 20.1039C93.049 20.6356 92.6495 21.436 92.4078 22.3423L93.3741 22.6ZM94.3341 20.88L94.9415 21.6744C95.1485 21.5161 95.5615 21.36 96.3341 21.36V20.36V19.36C95.3466 19.36 94.4263 19.5506 93.7266 20.0856L94.3341 20.88ZM96.3341 20.36V21.36C96.602 21.36 96.7963 21.3779 96.9298 21.4029C97.0713 21.4294 97.0933 21.4547 97.0594 21.432L97.6141 20.6L98.1688 19.768C97.6614 19.4297 96.9666 19.36 96.3341 19.36V20.36ZM97.6141 20.6L97.1284 21.4742C97.0938 21.4549 97.0587 21.4278 97.0283 21.394C96.9983 21.3606 96.9809 21.3299 96.9721 21.3104C96.9569 21.2765 96.9741 21.2925 96.9741 21.4H97.9741H98.9741C98.9741 20.8207 98.7906 20.1097 98.0997 19.7258L97.6141 20.6ZM97.9741 21.4H96.9741C96.9741 21.6295 96.9088 22.167 96.7403 23.0905C96.577 23.9855 96.3301 25.1745 95.9981 26.6621L96.9741 26.88L97.95 27.0979C98.2847 25.5988 98.5378 24.3812 98.7078 23.4495C98.8726 22.5464 98.9741 21.8372 98.9741 21.4H97.9741ZM96.9741 26.88L95.9972 26.6663C95.6225 28.379 95.3394 29.7735 95.1494 30.8455C94.964 31.8917 94.8541 32.7001 94.8541 33.2H95.8541H96.8541C96.8541 32.8999 96.9308 32.255 97.1187 31.1945C97.3021 30.1598 97.5789 28.7944 97.951 27.0937L96.9741 26.88ZM95.8541 33.2H94.8541C94.8541 33.8364 94.987 34.468 95.3653 34.9882L96.1741 34.4L96.9828 33.8118C96.9344 33.7453 96.8541 33.577 96.8541 33.2H95.8541ZM96.1741 34.4L95.3932 35.0247C95.7996 35.5327 96.369 35.8 97.0141 35.8V34.8V33.8C96.9917 33.8 96.9793 33.7979 96.9747 33.7969C96.9704 33.796 96.971 33.7957 96.974 33.7971C96.9771 33.7986 96.9781 33.7997 96.9764 33.7982C96.9744 33.7966 96.9668 33.7902 96.9549 33.7753L96.1741 34.4ZM97.0141 34.8V35.8C97.925 35.8 98.7877 35.2725 99.5584 34.5874L98.8941 33.84L98.2297 33.0926C97.5604 33.6875 97.1698 33.8 97.0141 33.8V34.8ZM98.8941 33.84L99.5601 34.5859C100.362 33.8699 101.386 32.7584 102.621 31.2816L101.854 30.64L101.087 29.9984C99.8688 31.4549 98.9194 32.4768 98.2281 33.0941L98.8941 33.84ZM101.854 30.64L102.613 31.2908C102.791 31.0837 102.892 31.08 102.934 31.08V30.08V29.08C102.176 29.08 101.557 29.4496 101.095 29.9892L101.854 30.64ZM102.934 30.08V31.08C102.943 31.08 102.94 31.081 102.927 31.0776C102.913 31.074 102.896 31.0674 102.88 31.0575C102.863 31.0477 102.854 31.0389 102.852 31.0366C102.85 31.0349 102.857 31.0419 102.87 31.0639L103.734 30.56L104.598 30.0561C104.247 29.4546 103.665 29.08 102.934 29.08V30.08ZM103.734 30.56L102.902 31.1147C102.966 31.2114 103.054 31.432 103.054 31.88H104.054H105.054C105.054 31.208 104.928 30.5486 104.566 30.0053L103.734 30.56ZM104.054 31.88H103.054C103.054 32.7969 102.837 33.3596 102.537 33.7064L103.294 34.36L104.051 35.0136C104.765 34.187 105.054 33.0964 105.054 31.88H104.054ZM103.294 34.36L102.518 33.73C101.424 35.0772 100.255 36.1678 99.0118 37.0131L99.5741 37.84L100.136 38.6669C101.56 37.6989 102.87 36.4695 104.071 34.99L103.294 34.36ZM99.5741 37.84L99.004 37.0184C97.8744 37.8022 96.5824 38.2 95.0941 38.2V39.2V40.2C96.9657 40.2 98.6604 39.6912 100.144 38.6616L99.5741 37.84ZM95.0941 39.2V38.2C94.1177 38.2 93.5131 37.8512 93.1033 37.1921L92.2541 37.72L91.4048 38.2479C92.2217 39.5622 93.5104 40.2 95.0941 40.2V39.2ZM92.2541 37.72L93.1136 37.2089C92.6565 36.4401 92.3741 35.2583 92.3741 33.56H91.3741H90.3741C90.3741 35.435 90.6783 37.0265 91.3945 38.2311L92.2541 37.72ZM91.3741 33.56L90.4039 33.3175C89.9759 35.0294 89.3557 36.2586 88.5977 37.0834L89.3341 37.76L90.0704 38.4366C91.1258 37.2881 91.8655 35.7173 92.3442 33.8025L91.3741 33.56ZM89.3341 37.76L88.607 37.0734C87.8353 37.8906 87.1091 38.2 86.4141 38.2V39.2V40.2C87.799 40.2 89.0195 39.5494 90.0611 38.4466L89.3341 37.76ZM114.371 32.8L113.484 32.3379L113.481 32.3427L114.371 32.8ZM110.491 37.36L109.906 36.5489L109.899 36.5536L110.491 37.36ZM105.331 39.2L105.302 38.2004L104.394 38.2267L104.333 39.1328L105.331 39.2ZM102.971 52.08L102.029 51.7441L102.028 51.7464L102.971 52.08ZM95.1306 42.24L94.1856 41.9129L94.1849 41.9151L95.1306 42.24ZM100.691 30.76L101.549 31.2737L101.691 31.0365V30.76H100.691ZM100.611 22.64L99.6112 22.6745L99.6112 22.6751L100.611 22.64ZM101.531 20.8L102.109 21.616L101.531 20.8ZM105.131 20.48L104.424 21.1871L104.463 21.2263L104.506 21.2609L105.131 20.48ZM105.571 21.8H106.571V21.78L106.57 21.76L105.571 21.8ZM105.611 23.28L104.614 23.363L104.823 25.8658L106.391 23.9047L105.611 23.28ZM108.131 21L108.611 21.8768L108.622 21.8709L108.633 21.8648L108.131 21ZM114.411 22.08L113.621 22.694L113.63 22.7047L114.411 22.08ZM105.531 35.36L104.531 35.32L104.479 36.618L105.748 36.3362L105.531 35.36ZM108.171 33.8L107.452 33.1042L107.452 33.1046L108.171 33.8ZM110.131 30.68L111.062 31.0444L111.064 31.0376L110.131 30.68ZM110.371 24.96L109.571 25.56L109.58 25.5725L109.59 25.5847L110.371 24.96ZM105.611 27.36L104.78 26.8028L104.618 27.0453L104.611 27.3373L105.611 27.36ZM99.6906 48.64L98.7022 48.4879L98.7021 48.4892L99.6906 48.64ZM100.611 36.96L101.61 36.9886L99.692 36.565L100.611 36.96ZM97.8906 44.6L96.9263 44.3351L97.8906 44.6ZM97.2106 52.68L98.1353 52.2992L98.1259 52.2765L98.1154 52.2542L97.2106 52.68ZM115.851 26.8H114.851C114.851 28.7435 114.397 30.5852 113.484 32.3379L114.371 32.8L115.257 33.2621C116.317 31.2281 116.851 29.0698 116.851 26.8H115.851ZM114.371 32.8L113.481 32.3427C112.59 34.0758 111.398 35.4722 109.906 36.549L110.491 37.36L111.076 38.171C112.836 36.9011 114.231 35.2575 115.26 33.2573L114.371 32.8ZM110.491 37.36L109.899 36.5536C108.449 37.6168 106.923 38.1534 105.302 38.2004L105.331 39.2L105.36 40.1996C107.418 40.1399 109.332 39.4498 111.082 38.1664L110.491 37.36ZM105.331 39.2L104.333 39.1328C103.99 44.2223 103.215 48.4181 102.029 51.7441L102.971 52.08L103.913 52.4159C105.18 48.8619 105.978 44.4711 106.328 39.2672L105.331 39.2ZM102.971 52.08L102.028 51.7464C100.852 55.0703 99.3007 56.28 97.5706 56.28V57.28V58.28C100.587 58.28 102.636 56.023 103.913 52.4136L102.971 52.08ZM97.5706 57.28V56.28C96.4058 56.28 95.68 55.8812 95.2027 55.1653L94.3706 55.72L93.5386 56.2747C94.448 57.6388 95.8554 58.28 97.5706 58.28V57.28ZM94.3706 55.72L95.2027 55.1653C94.6592 54.3501 94.3306 53.1307 94.3306 51.4H93.3306H92.3306C92.3306 53.3493 92.6954 55.0099 93.5386 56.2747L94.3706 55.72ZM93.3306 51.4H94.3306C94.3306 48.9326 94.8987 45.9933 96.0764 42.5649L95.1306 42.24L94.1849 41.9151C92.9626 45.4733 92.3306 48.6408 92.3306 51.4H93.3306ZM95.1306 42.24L96.0756 42.5671C97.2471 39.1827 99.0665 35.4194 101.549 31.2737L100.691 30.76L99.8326 30.2463C97.3014 34.474 95.4141 38.3639 94.1856 41.9129L95.1306 42.24ZM100.691 30.76H101.691C101.691 26.8675 101.664 24.1446 101.61 22.6049L100.611 22.64L99.6112 22.6751C99.6639 24.1754 99.6906 26.8659 99.6906 30.76H100.691ZM100.611 22.64L101.61 22.6055C101.595 22.174 101.739 21.878 102.109 21.616L101.531 20.8L100.953 19.984C100.042 20.6286 99.5728 21.5593 99.6112 22.6745L100.611 22.64ZM101.531 20.8L102.109 21.616C102.545 21.307 103.131 21.12 103.931 21.12V20.12V19.12C102.811 19.12 101.796 19.3863 100.953 19.984L101.531 20.8ZM103.931 20.12V21.12C104.144 21.12 104.282 21.1435 104.363 21.1678C104.441 21.1911 104.445 21.2081 104.424 21.1871L105.131 20.48L105.838 19.7729C105.32 19.2548 104.592 19.12 103.931 19.12V20.12ZM105.131 20.48L104.506 21.2609C104.444 21.2112 104.458 21.1855 104.492 21.2862C104.526 21.3873 104.56 21.5632 104.571 21.84L105.571 21.8L106.57 21.76C106.541 21.0515 106.388 20.2055 105.755 19.6991L105.131 20.48ZM105.571 21.8H104.571C104.571 22.4716 104.584 22.9995 104.614 23.363L105.611 23.28L106.607 23.197C106.584 22.9205 106.571 22.4618 106.571 21.8H105.571ZM105.611 23.28L106.391 23.9047C107.196 22.8986 107.94 22.245 108.611 21.8768L108.131 21L107.65 20.1232C106.668 20.6617 105.732 21.5281 104.83 22.6553L105.611 23.28ZM108.131 21L108.633 21.8648C109.311 21.4711 110.018 21.28 110.771 21.28V20.28V19.28C109.656 19.28 108.604 19.5689 107.628 20.1352L108.131 21ZM110.771 20.28V21.28C111.949 21.28 112.873 21.7324 113.621 22.6939L114.411 22.08L115.2 21.4661C114.081 20.0276 112.579 19.28 110.771 19.28V20.28ZM114.411 22.08L113.63 22.7047C114.414 23.6846 114.851 25.0187 114.851 26.8H115.851H116.851C116.851 24.688 116.328 22.8754 115.191 21.4553L114.411 22.08ZM105.531 35.36L105.748 36.3362C106.929 36.0736 107.977 35.4384 108.889 34.4954L108.171 33.8L107.452 33.1046C106.765 33.815 106.052 34.2198 105.314 34.3838L105.531 35.36ZM108.171 33.8L108.889 34.4958C109.817 33.5374 110.539 32.3811 111.062 31.0444L110.131 30.68L109.199 30.3156C108.762 31.4322 108.177 32.356 107.452 33.1042L108.171 33.8ZM110.131 30.68L111.064 31.0376C111.589 29.6686 111.851 28.2406 111.851 26.76H110.851H109.851C109.851 27.9994 109.632 29.1847 109.197 30.3224L110.131 30.68ZM110.851 26.76H111.851C111.851 25.8532 111.674 24.988 111.151 24.3353L110.371 24.96L109.59 25.5847C109.708 25.732 109.851 26.0668 109.851 26.76H110.851ZM110.371 24.96L111.171 24.36C110.662 23.6815 109.939 23.32 109.091 23.32V24.32V25.32C109.309 25.32 109.439 25.3851 109.571 25.56L110.371 24.96ZM109.091 24.32V23.32C108.259 23.32 107.501 23.7518 106.843 24.3269C106.17 24.9144 105.484 25.7539 104.78 26.8028L105.611 27.36L106.441 27.9172C107.097 26.9394 107.671 26.2589 108.159 25.8331C108.66 25.3949 108.962 25.32 109.091 25.32V24.32ZM105.611 27.36L104.611 27.3373C104.584 28.5222 104.571 30.2513 104.571 32.52H105.571H106.571C106.571 30.2553 106.584 28.5444 106.61 27.3827L105.611 27.36ZM105.571 32.52H104.571C104.571 33.7424 104.557 34.6734 104.531 35.32L105.531 35.36L106.53 35.4C106.557 34.7133 106.571 33.751 106.571 32.52H105.571ZM97.8906 53.36V54.36C98.4758 54.36 98.9032 54.0308 99.1742 53.7077C99.442 53.3885 99.6473 52.9761 99.815 52.5363C100.154 51.6484 100.436 50.384 100.679 48.7908L99.6906 48.64L98.7021 48.4892C98.4651 50.0426 98.2076 51.1383 97.9463 51.8237C97.814 52.1706 97.7042 52.3482 97.642 52.4223C97.5831 52.4926 97.6654 52.36 97.8906 52.36V53.36ZM99.6906 48.64L100.679 48.7921C101.167 45.6168 101.476 41.679 101.61 36.9886L100.611 36.96L99.611 36.9314C99.4784 41.5743 99.1738 45.4232 98.7022 48.4879L99.6906 48.64ZM100.611 36.96L99.692 36.565C98.5298 39.2677 97.6069 41.8579 96.9263 44.3351L97.8906 44.6L98.8549 44.8649C99.5077 42.4887 100.398 39.9857 101.529 37.355L100.611 36.96ZM97.8906 44.6L96.9263 44.3351C96.2469 46.8081 95.8906 48.9435 95.8906 50.72H96.8906H97.8906C97.8906 49.1898 98.201 47.2452 98.8549 44.8649L97.8906 44.6ZM96.8906 50.72H95.8906C95.8906 51.6309 96.0004 52.4568 96.3058 53.1058L97.2106 52.68L98.1154 52.2542C97.9942 51.9965 97.8906 51.5157 97.8906 50.72H96.8906ZM97.2106 52.68L96.2859 53.0608C96.491 53.5587 96.9529 54.36 97.8906 54.36V53.36V52.36C97.9707 52.36 98.0488 52.3781 98.1156 52.4088C98.1792 52.438 98.2154 52.4706 98.2277 52.4829C98.2391 52.4943 98.2324 52.4905 98.2126 52.4581C98.1933 52.4262 98.1666 52.3752 98.1353 52.2992L97.2106 52.68Z" fill="white" mask="url(#path-1-outside-1_523_2682)"/>
</svg>
