<svg width="108" height="57" viewBox="0 0 108 57" fill="none" xmlns="http://www.w3.org/2000/svg">
<path d="M8.47406 38.2C5.86073 38.2 3.82073 37.4667 2.35406 36C0.914063 34.5067 0.194063 32.5467 0.194063 30.12C0.194063 27.96 0.620729 26.0667 1.47406 24.44C2.3274 22.8133 3.43406 21.56 4.79406 20.68C6.15406 19.8 7.58073 19.36 9.07406 19.36C10.5407 19.36 11.6741 19.8 12.4741 20.68C13.3007 21.5333 13.7141 22.64 13.7141 24C13.7141 25.12 13.4607 26.0667 12.9541 26.84C12.4741 27.6133 11.8341 28 11.0341 28C10.5274 28 10.1141 27.88 9.79406 27.64C9.50073 27.4 9.35406 27.0667 9.35406 26.64C9.35406 26.4533 9.38073 26.24 9.43406 26C9.4874 25.76 9.5274 25.5867 9.55406 25.48C9.6874 25.08 9.75406 24.7067 9.75406 24.36C9.75406 24.0133 9.66073 23.7467 9.47406 23.56C9.31406 23.3733 9.07406 23.28 8.75406 23.28C8.14073 23.28 7.5674 23.56 7.03406 24.12C6.50073 24.6533 6.07406 25.3867 5.75406 26.32C5.43406 27.2533 5.27406 28.28 5.27406 29.4C5.27406 32.4933 6.62073 34.04 9.31406 34.04C10.4074 34.04 11.5807 33.68 12.8341 32.96C14.1141 32.2133 15.3674 31.1067 16.5941 29.64C16.9141 29.2667 17.2741 29.08 17.6741 29.08C18.0207 29.08 18.2874 29.24 18.4741 29.56C18.6874 29.88 18.7941 30.32 18.7941 30.88C18.7941 31.8933 18.5407 32.72 18.0341 33.36C16.7807 34.9067 15.2741 36.1067 13.5141 36.96C11.7807 37.7867 10.1007 38.2 8.47406 38.2ZM35.7606 29.08C36.1073 29.08 36.374 29.24 36.5606 29.56C36.774 29.88 36.8806 30.32 36.8806 30.88C36.8806 31.9467 36.6273 32.7733 36.1206 33.36C34.894 34.7733 33.6273 35.9333 32.3206 36.84C31.0406 37.7467 29.574 38.2 27.9206 38.2C26.5606 38.2 25.534 37.8133 24.8406 37.04C24.1473 36.24 23.8006 35.0933 23.8006 33.6C23.8006 32.8533 23.9873 31.52 24.3606 29.6C24.7073 27.92 24.8806 26.76 24.8806 26.12C24.8806 25.6933 24.734 25.48 24.4406 25.48C24.094 25.48 23.6006 25.9333 22.9606 26.84C22.3206 27.72 21.6806 28.8933 21.0406 30.36C20.4006 31.8267 19.8806 33.3733 19.4806 35C18.974 37.1333 17.7206 38.2 15.7206 38.2C14.9206 38.2 14.3873 37.92 14.1206 37.36C13.8806 36.7733 13.7606 35.7333 13.7606 34.24C13.7606 33.3867 13.774 32.7067 13.8006 32.2L13.8406 29C13.8406 24.8933 14.254 20.6133 15.0806 16.16C15.934 11.7067 17.174 7.97333 18.8006 4.96C20.454 1.92 22.4273 0.399998 24.7206 0.399998C25.9473 0.399998 26.934 0.933331 27.6806 2C28.454 3.04 28.8406 4.4 28.8406 6.08C28.8406 8.77333 28.054 11.5733 26.4806 14.48C24.9073 17.36 22.3473 20.7333 18.8006 24.6C18.7206 25.9867 18.6806 27.4133 18.6806 28.88C19.5606 26.6133 20.534 24.7733 21.6006 23.36C22.694 21.92 23.7606 20.8933 24.8006 20.28C25.8673 19.6667 26.8406 19.36 27.7206 19.36C29.454 19.36 30.3206 20.2267 30.3206 21.96C30.3206 23 30.0273 24.88 29.4406 27.6C28.934 29.92 28.6806 31.4533 28.6806 32.2C28.6806 33.2667 29.0673 33.8 29.8406 33.8C30.374 33.8 31.0006 33.48 31.7206 32.84C32.4673 32.1733 33.454 31.1067 34.6806 29.64C35.0006 29.2667 35.3606 29.08 35.7606 29.08ZM23.8806 4.36C23.4006 4.36 22.8673 5.05333 22.2806 6.44C21.694 7.8 21.1206 9.65333 20.5606 12C20.0273 14.32 19.5873 16.8533 19.2406 19.6C20.894 17.6533 22.254 15.5333 23.3206 13.24C24.414 10.9467 24.9606 8.86667 24.9606 7C24.9606 6.14667 24.8673 5.49333 24.6806 5.04C24.494 4.58667 24.2273 4.36 23.8806 4.36ZM49.4788 29.08C49.8254 29.08 50.0921 29.24 50.2787 29.56C50.4921 29.88 50.5988 30.32 50.5988 30.88C50.5988 31.9467 50.3454 32.7733 49.8388 33.36C48.8521 34.56 47.4521 35.6667 45.6388 36.68C43.8521 37.6933 41.9321 38.2 39.8788 38.2C37.0788 38.2 34.9054 37.44 33.3588 35.92C31.8121 34.4 31.0387 32.32 31.0387 29.68C31.0387 27.84 31.4254 26.1333 32.1988 24.56C32.9721 22.96 34.0388 21.6933 35.3988 20.76C36.7854 19.8267 38.3454 19.36 40.0788 19.36C41.6254 19.36 42.8654 19.8267 43.7988 20.76C44.7321 21.6667 45.1988 22.9067 45.1988 24.48C45.1988 26.32 44.5321 27.9067 43.1988 29.24C41.8921 30.5467 39.6654 31.5867 36.5188 32.36C37.1854 33.5867 38.4521 34.2 40.3188 34.2C41.5188 34.2 42.8788 33.7867 44.3988 32.96C45.9454 32.1067 47.2788 31 48.3988 29.64C48.7188 29.2667 49.0788 29.08 49.4788 29.08ZM39.3988 23.28C38.4121 23.28 37.5721 23.8533 36.8788 25C36.2121 26.1467 35.8788 27.5333 35.8788 29.16V29.24C37.4521 28.8667 38.6921 28.3067 39.5988 27.56C40.5054 26.8133 40.9588 25.9467 40.9588 24.96C40.9588 24.4533 40.8121 24.0533 40.5188 23.76C40.2521 23.44 39.8788 23.28 39.3988 23.28ZM63.1819 29.08C63.5285 29.08 63.7952 29.24 63.9819 29.56C64.1952 29.88 64.3019 30.32 64.3019 30.88C64.3019 31.9467 64.0485 32.7733 63.5419 33.36C62.5552 34.56 61.1552 35.6667 59.3419 36.68C57.5552 37.6933 55.6352 38.2 53.5819 38.2C50.7819 38.2 48.6085 37.44 47.0619 35.92C45.5152 34.4 44.7419 32.32 44.7419 29.68C44.7419 27.84 45.1285 26.1333 45.9019 24.56C46.6752 22.96 47.7419 21.6933 49.1019 20.76C50.4885 19.8267 52.0485 19.36 53.7819 19.36C55.3285 19.36 56.5685 19.8267 57.5019 20.76C58.4352 21.6667 58.9019 22.9067 58.9019 24.48C58.9019 26.32 58.2352 27.9067 56.9019 29.24C55.5952 30.5467 53.3685 31.5867 50.2219 32.36C50.8885 33.5867 52.1552 34.2 54.0219 34.2C55.2219 34.2 56.5819 33.7867 58.1019 32.96C59.6485 32.1067 60.9819 31 62.1019 29.64C62.4219 29.2667 62.7819 29.08 63.1819 29.08ZM53.1019 23.28C52.1152 23.28 51.2752 23.8533 50.5819 25C49.9152 26.1467 49.5819 27.5333 49.5819 29.16V29.24C51.1552 28.8667 52.3952 28.3067 53.3019 27.56C54.2085 26.8133 54.6619 25.9467 54.6619 24.96C54.6619 24.4533 54.5152 24.0533 54.2219 23.76C53.9552 23.44 53.5819 23.28 53.1019 23.28ZM61.885 38.2C60.8717 38.2 60.1517 37.6667 59.725 36.6C59.325 35.5333 59.125 33.8267 59.125 31.48C59.125 28.0133 59.6183 24.72 60.605 21.6C60.845 20.8267 61.2317 20.2667 61.765 19.92C62.325 19.5467 63.0983 19.36 64.085 19.36C64.6183 19.36 64.9917 19.4267 65.205 19.56C65.4183 19.6933 65.525 19.9467 65.525 20.32C65.525 20.7467 65.325 21.7067 64.925 23.2C64.6583 24.2667 64.445 25.2 64.285 26C64.125 26.8 63.9917 27.7867 63.885 28.96C64.765 26.6667 65.7517 24.8 66.845 23.36C67.9383 21.92 69.005 20.8933 70.045 20.28C71.1117 19.6667 72.085 19.36 72.965 19.36C74.6983 19.36 75.565 20.2267 75.565 21.96C75.565 22.3067 75.445 23.1467 75.205 24.48C74.9917 25.5467 74.885 26.2133 74.885 26.48C74.885 27.4133 75.2183 27.88 75.885 27.88C76.6317 27.88 77.5917 27.2933 78.765 26.12C79.1117 25.7733 79.4717 25.6 79.845 25.6C80.1917 25.6 80.4583 25.76 80.645 26.08C80.8583 26.3733 80.965 26.7733 80.965 27.28C80.965 28.2667 80.6983 29.04 80.165 29.6C79.4183 30.3733 78.5383 31.04 77.525 31.6C76.5383 32.1333 75.485 32.4 74.365 32.4C72.9517 32.4 71.8717 32.04 71.125 31.32C70.405 30.6 70.045 29.6267 70.045 28.4C70.045 28 70.085 27.6 70.165 27.2C70.2183 26.6667 70.245 26.3067 70.245 26.12C70.245 25.6933 70.0983 25.48 69.805 25.48C69.405 25.48 68.8717 25.9333 68.205 26.84C67.565 27.72 66.925 28.8933 66.285 30.36C65.645 31.8267 65.125 33.3733 64.725 35C64.4317 36.2533 64.085 37.1067 63.685 37.56C63.3117 37.9867 62.7117 38.2 61.885 38.2ZM79.3281 38.2C78.1281 38.2 77.1415 37.6533 76.3681 36.56C75.6215 35.44 75.2481 34.0533 75.2481 32.4C75.2481 30.4 75.3815 28.5733 75.6481 26.92C75.9148 25.24 76.3548 23.4667 76.9681 21.6C77.2348 20.8 77.6081 20.2267 78.0881 19.88C78.5681 19.5333 79.3281 19.36 80.3681 19.36C80.9548 19.36 81.3548 19.4533 81.5681 19.64C81.8081 19.8267 81.9281 20.1067 81.9281 20.48C81.9281 20.6933 81.7815 21.4133 81.4881 22.64C81.2215 23.6267 81.0081 24.52 80.8481 25.32C80.3148 28.12 80.0481 29.9867 80.0481 30.92C80.0481 31.48 80.1148 31.88 80.2481 32.12C80.3815 32.3333 80.5948 32.44 80.8881 32.44C81.2881 32.44 81.7815 32.04 82.3681 31.24C82.9815 30.44 83.6215 29.2267 84.2881 27.6C84.9815 25.9733 85.6481 23.9733 86.2881 21.6C86.5015 20.8 86.8215 20.2267 87.2481 19.88C87.7015 19.5333 88.3681 19.36 89.2481 19.36C89.8615 19.36 90.2881 19.44 90.5281 19.6C90.7681 19.7333 90.8881 20 90.8881 20.4C90.8881 21.0667 90.5548 22.8933 89.8881 25.88C89.1415 29.2933 88.7681 31.4 88.7681 32.2C88.7681 32.7067 88.8748 33.1067 89.0881 33.4C89.3015 33.6667 89.5815 33.8 89.9281 33.8C90.4615 33.8 91.0881 33.48 91.8081 32.84C92.5548 32.1733 93.5415 31.1067 94.7681 29.64C95.0881 29.2667 95.4481 29.08 95.8481 29.08C96.1948 29.08 96.4615 29.24 96.6481 29.56C96.8615 29.88 96.9681 30.32 96.9681 30.88C96.9681 31.9467 96.7148 32.7733 96.2081 33.36C95.0615 34.7733 93.8215 35.9333 92.4881 36.84C91.1815 37.7467 89.6881 38.2 88.0081 38.2C86.7281 38.2 85.7815 37.7067 85.1681 36.72C84.5815 35.7333 84.2881 34.3467 84.2881 32.56C83.8348 34.3733 83.1548 35.7733 82.2481 36.76C81.3415 37.72 80.3681 38.2 79.3281 38.2ZM107.565 25.8C107.565 27.9067 107.071 29.9067 106.085 31.8C105.125 33.6667 103.831 35.1867 102.205 36.36C100.605 37.5333 98.8847 38.1467 97.0447 38.2C96.698 43.3467 95.9114 47.64 94.6847 51.08C93.458 54.5467 91.658 56.28 89.2847 56.28C87.8447 56.28 86.778 55.76 86.0847 54.72C85.3914 53.68 85.0447 52.24 85.0447 50.4C85.0447 47.7867 85.6447 44.7333 86.8447 41.24C88.0447 37.7733 89.898 33.9467 92.4047 29.76C92.4047 25.8667 92.378 23.16 92.3247 21.64C92.298 20.8667 92.6047 20.2533 93.2447 19.8C93.8847 19.3467 94.6847 19.12 95.6447 19.12C96.2047 19.12 96.6047 19.24 96.8447 19.48C97.1114 19.6933 97.258 20.1333 97.2847 20.8C97.2847 21.4667 97.298 21.96 97.3247 22.28C98.178 21.2133 99.018 20.4533 99.8447 20C100.671 19.52 101.551 19.28 102.485 19.28C103.978 19.28 105.191 19.88 106.125 21.08C107.085 22.28 107.565 23.8533 107.565 25.8ZM97.2447 34.36C98.2047 34.1467 99.0847 33.6267 99.8847 32.8C100.711 31.9467 101.365 30.9067 101.845 29.68C102.325 28.4267 102.565 27.12 102.565 25.76C102.565 24.96 102.405 24.36 102.085 23.96C101.765 23.5333 101.338 23.32 100.805 23.32C99.8447 23.32 98.6847 24.3333 97.3247 26.36C97.298 27.5333 97.2847 29.2533 97.2847 31.52C97.2847 32.7467 97.2714 33.6933 97.2447 34.36ZM89.6047 52.36C90.3247 52.36 90.9247 50.7867 91.4047 47.64C91.8847 44.52 92.1914 40.6267 92.3247 35.96C91.178 38.6267 90.2714 41.1733 89.6047 43.6C88.938 46.0267 88.6047 48.0667 88.6047 49.72C88.6047 50.5733 88.7114 51.2267 88.9247 51.68C89.1114 52.1333 89.338 52.36 89.6047 52.36Z" fill="#986CE9"/>
</svg>
