<svg width="136" height="70" viewBox="0 0 136 70" fill="none" xmlns="http://www.w3.org/2000/svg">
<path d="M11.2176 47.25C7.95091 47.25 5.40091 46.3333 3.56758 44.5C1.76758 42.6333 0.867578 40.1833 0.867578 37.15C0.867578 34.45 1.40091 32.0833 2.46758 30.05C3.53424 28.0167 4.91758 26.45 6.61758 25.35C8.31758 24.25 10.1009 23.7 11.9676 23.7C13.8009 23.7 15.2176 24.25 16.2176 25.35C17.2509 26.4167 17.7676 27.8 17.7676 29.5C17.7676 30.9 17.4509 32.0833 16.8176 33.05C16.2176 34.0167 15.4176 34.5 14.4176 34.5C13.7842 34.5 13.2676 34.35 12.8676 34.05C12.5009 33.75 12.3176 33.3333 12.3176 32.8C12.3176 32.5667 12.3509 32.3 12.4176 32C12.4842 31.7 12.5342 31.4833 12.5676 31.35C12.7342 30.85 12.8176 30.3833 12.8176 29.95C12.8176 29.5167 12.7009 29.1833 12.4676 28.95C12.2676 28.7167 11.9676 28.6 11.5676 28.6C10.8009 28.6 10.0842 28.95 9.41758 29.65C8.75091 30.3167 8.21758 31.2333 7.81758 32.4C7.41758 33.5667 7.21758 34.85 7.21758 36.25C7.21758 40.1167 8.90091 42.05 12.2676 42.05C13.6342 42.05 15.1009 41.6 16.6676 40.7C18.2676 39.7667 19.8342 38.3833 21.3676 36.55C21.7676 36.0833 22.2176 35.85 22.7176 35.85C23.1509 35.85 23.4842 36.05 23.7176 36.45C23.9842 36.85 24.1176 37.4 24.1176 38.1C24.1176 39.3667 23.8009 40.4 23.1676 41.2C21.6009 43.1333 19.7176 44.6333 17.5176 45.7C15.3509 46.7333 13.2509 47.25 11.2176 47.25ZM45.3258 35.85C45.7591 35.85 46.0925 36.05 46.3258 36.45C46.5924 36.85 46.7258 37.4 46.7258 38.1C46.7258 39.4333 46.4091 40.4667 45.7758 41.2C44.2425 42.9667 42.6591 44.4167 41.0258 45.55C39.4258 46.6833 37.5924 47.25 35.5258 47.25C33.8258 47.25 32.5424 46.7667 31.6758 45.8C30.8091 44.8 30.3758 43.3667 30.3758 41.5C30.3758 40.5667 30.6091 38.9 31.0758 36.5C31.5091 34.4 31.7258 32.95 31.7258 32.15C31.7258 31.6167 31.5424 31.35 31.1758 31.35C30.7424 31.35 30.1258 31.9167 29.3258 33.05C28.5258 34.15 27.7258 35.6167 26.9258 37.45C26.1258 39.2833 25.4758 41.2167 24.9758 43.25C24.3424 45.9167 22.7758 47.25 20.2758 47.25C19.2758 47.25 18.6091 46.9 18.2758 46.2C17.9758 45.4667 17.8258 44.1667 17.8258 42.3C17.8258 41.2333 17.8424 40.3833 17.8758 39.75L17.9258 35.75C17.9258 30.6167 18.4424 25.2667 19.4758 19.7C20.5424 14.1333 22.0924 9.46666 24.1258 5.7C26.1924 1.9 28.6591 -2.86102e-06 31.5258 -2.86102e-06C33.0591 -2.86102e-06 34.2924 0.666664 35.2258 2C36.1924 3.3 36.6758 5 36.6758 7.1C36.6758 10.4667 35.6924 13.9667 33.7258 17.6C31.7591 21.2 28.5591 25.4167 24.1258 30.25C24.0258 31.9833 23.9758 33.7667 23.9758 35.6C25.0758 32.7667 26.2924 30.4667 27.6258 28.7C28.9924 26.9 30.3258 25.6167 31.6258 24.85C32.9591 24.0833 34.1758 23.7 35.2758 23.7C37.4424 23.7 38.5258 24.7833 38.5258 26.95C38.5258 28.25 38.1591 30.6 37.4258 34C36.7924 36.9 36.4758 38.8167 36.4758 39.75C36.4758 41.0833 36.9591 41.75 37.9258 41.75C38.5924 41.75 39.3758 41.35 40.2758 40.55C41.2091 39.7167 42.4424 38.3833 43.9758 36.55C44.3758 36.0833 44.8258 35.85 45.3258 35.85ZM30.4758 4.95C29.8758 4.95 29.2091 5.81667 28.4758 7.55C27.7424 9.25 27.0258 11.5667 26.3258 14.5C25.6591 17.4 25.1091 20.5667 24.6758 24C26.7424 21.5667 28.4424 18.9167 29.7758 16.05C31.1424 13.1833 31.8258 10.5833 31.8258 8.25C31.8258 7.18333 31.7091 6.36666 31.4758 5.8C31.2424 5.23333 30.9091 4.95 30.4758 4.95ZM62.4734 35.85C62.9068 35.85 63.2401 36.05 63.4734 36.45C63.7401 36.85 63.8734 37.4 63.8734 38.1C63.8734 39.4333 63.5568 40.4667 62.9234 41.2C61.6901 42.7 59.9401 44.0833 57.6734 45.35C55.4401 46.6167 53.0401 47.25 50.4734 47.25C46.9734 47.25 44.2568 46.3 42.3234 44.4C40.3901 42.5 39.4234 39.9 39.4234 36.6C39.4234 34.3 39.9068 32.1667 40.8734 30.2C41.8401 28.2 43.1734 26.6167 44.8734 25.45C46.6068 24.2833 48.5568 23.7 50.7234 23.7C52.6568 23.7 54.2068 24.2833 55.3734 25.45C56.5401 26.5833 57.1234 28.1333 57.1234 30.1C57.1234 32.4 56.2901 34.3833 54.6234 36.05C52.9901 37.6833 50.2068 38.9833 46.2734 39.95C47.1068 41.4833 48.6901 42.25 51.0234 42.25C52.5234 42.25 54.2234 41.7333 56.1234 40.7C58.0568 39.6333 59.7234 38.25 61.1234 36.55C61.5234 36.0833 61.9734 35.85 62.4734 35.85ZM49.8734 28.6C48.6401 28.6 47.5901 29.3167 46.7234 30.75C45.8901 32.1833 45.4734 33.9167 45.4734 35.95V36.05C47.4401 35.5833 48.9901 34.8833 50.1234 33.95C51.2568 33.0167 51.8234 31.9333 51.8234 30.7C51.8234 30.0667 51.6401 29.5667 51.2734 29.2C50.9401 28.8 50.4734 28.6 49.8734 28.6ZM79.6023 35.85C80.0357 35.85 80.369 36.05 80.6023 36.45C80.869 36.85 81.0023 37.4 81.0023 38.1C81.0023 39.4333 80.6857 40.4667 80.0523 41.2C78.819 42.7 77.069 44.0833 74.8023 45.35C72.569 46.6167 70.169 47.25 67.6023 47.25C64.1023 47.25 61.3857 46.3 59.4523 44.4C57.519 42.5 56.5523 39.9 56.5523 36.6C56.5523 34.3 57.0357 32.1667 58.0023 30.2C58.969 28.2 60.3023 26.6167 62.0023 25.45C63.7357 24.2833 65.6857 23.7 67.8523 23.7C69.7857 23.7 71.3357 24.2833 72.5023 25.45C73.669 26.5833 74.2523 28.1333 74.2523 30.1C74.2523 32.4 73.419 34.3833 71.7523 36.05C70.119 37.6833 67.3357 38.9833 63.4023 39.95C64.2357 41.4833 65.819 42.25 68.1523 42.25C69.6523 42.25 71.3523 41.7333 73.2523 40.7C75.1857 39.6333 76.8523 38.25 78.2523 36.55C78.6523 36.0833 79.1023 35.85 79.6023 35.85ZM67.0023 28.6C65.769 28.6 64.719 29.3167 63.8523 30.75C63.019 32.1833 62.6023 33.9167 62.6023 35.95V36.05C64.569 35.5833 66.119 34.8833 67.2523 33.95C68.3857 33.0167 68.9523 31.9333 68.9523 30.7C68.9523 30.0667 68.769 29.5667 68.4023 29.2C68.069 28.8 67.6023 28.6 67.0023 28.6ZM77.9813 47.25C76.7146 47.25 75.8146 46.5833 75.2813 45.25C74.7813 43.9167 74.5313 41.7833 74.5313 38.85C74.5313 34.5167 75.1479 30.4 76.3813 26.5C76.6813 25.5333 77.1646 24.8333 77.8313 24.4C78.5313 23.9333 79.4979 23.7 80.7313 23.7C81.3979 23.7 81.8646 23.7833 82.1313 23.95C82.3979 24.1167 82.5313 24.4333 82.5313 24.9C82.5313 25.4333 82.2813 26.6333 81.7813 28.5C81.4479 29.8333 81.1813 31 80.9813 32C80.7813 33 80.6146 34.2333 80.4813 35.7C81.5813 32.8333 82.8146 30.5 84.1813 28.7C85.5479 26.9 86.8813 25.6167 88.1813 24.85C89.5146 24.0833 90.7313 23.7 91.8313 23.7C93.9979 23.7 95.0813 24.7833 95.0813 26.95C95.0813 27.3833 94.9313 28.4333 94.6313 30.1C94.3646 31.4333 94.2313 32.2667 94.2313 32.6C94.2313 33.7667 94.6479 34.35 95.4813 34.35C96.4146 34.35 97.6146 33.6167 99.0813 32.15C99.5146 31.7167 99.9646 31.5 100.431 31.5C100.865 31.5 101.198 31.7 101.431 32.1C101.698 32.4667 101.831 32.9667 101.831 33.6C101.831 34.8333 101.498 35.8 100.831 36.5C99.8979 37.4667 98.7979 38.3 97.5313 39C96.2979 39.6667 94.9813 40 93.5813 40C91.8146 40 90.4646 39.55 89.5313 38.65C88.6313 37.75 88.1813 36.5333 88.1813 35C88.1813 34.5 88.2313 34 88.3313 33.5C88.3979 32.8333 88.4313 32.3833 88.4313 32.15C88.4313 31.6167 88.2479 31.35 87.8813 31.35C87.3813 31.35 86.7146 31.9167 85.8813 33.05C85.0813 34.15 84.2813 35.6167 83.4813 37.45C82.6813 39.2833 82.0313 41.2167 81.5313 43.25C81.1646 44.8167 80.7313 45.8833 80.2313 46.45C79.7646 46.9833 79.0146 47.25 77.9813 47.25ZM99.7852 47.25C98.2852 47.25 97.0518 46.5667 96.0852 45.2C95.1518 43.8 94.6852 42.0667 94.6852 40C94.6852 37.5 94.8518 35.2167 95.1852 33.15C95.5185 31.05 96.0685 28.8333 96.8352 26.5C97.1685 25.5 97.6352 24.7833 98.2352 24.35C98.8352 23.9167 99.7852 23.7 101.085 23.7C101.818 23.7 102.318 23.8167 102.585 24.05C102.885 24.2833 103.035 24.6333 103.035 25.1C103.035 25.3667 102.852 26.2667 102.485 27.8C102.152 29.0333 101.885 30.15 101.685 31.15C101.018 34.65 100.685 36.9833 100.685 38.15C100.685 38.85 100.768 39.35 100.935 39.65C101.102 39.9167 101.368 40.05 101.735 40.05C102.235 40.05 102.852 39.55 103.585 38.55C104.352 37.55 105.152 36.0333 105.985 34C106.852 31.9667 107.685 29.4667 108.485 26.5C108.752 25.5 109.152 24.7833 109.685 24.35C110.252 23.9167 111.085 23.7 112.185 23.7C112.952 23.7 113.485 23.8 113.785 24C114.085 24.1667 114.235 24.5 114.235 25C114.235 25.8333 113.818 28.1167 112.985 31.85C112.052 36.1167 111.585 38.75 111.585 39.75C111.585 40.3833 111.718 40.8833 111.985 41.25C112.252 41.5833 112.602 41.75 113.035 41.75C113.702 41.75 114.485 41.35 115.385 40.55C116.318 39.7167 117.552 38.3833 119.085 36.55C119.485 36.0833 119.935 35.85 120.435 35.85C120.868 35.85 121.202 36.05 121.435 36.45C121.702 36.85 121.835 37.4 121.835 38.1C121.835 39.4333 121.518 40.4667 120.885 41.2C119.452 42.9667 117.902 44.4167 116.235 45.55C114.602 46.6833 112.735 47.25 110.635 47.25C109.035 47.25 107.852 46.6333 107.085 45.4C106.352 44.1667 105.985 42.4333 105.985 40.2C105.418 42.4667 104.568 44.2167 103.435 45.45C102.302 46.65 101.085 47.25 99.7852 47.25ZM135.081 31.75C135.081 34.3833 134.464 36.8833 133.231 39.25C132.031 41.5833 130.414 43.4833 128.381 44.95C126.381 46.4167 124.231 47.1833 121.931 47.25C121.498 53.6833 120.514 59.05 118.981 63.35C117.448 67.6833 115.198 69.85 112.231 69.85C110.431 69.85 109.098 69.2 108.231 67.9C107.364 66.6 106.931 64.8 106.931 62.5C106.931 59.2333 107.681 55.4167 109.181 51.05C110.681 46.7167 112.998 41.9333 116.131 36.7C116.131 31.8333 116.098 28.45 116.031 26.55C115.998 25.5833 116.381 24.8167 117.181 24.25C117.981 23.6833 118.981 23.4 120.181 23.4C120.881 23.4 121.381 23.55 121.681 23.85C122.014 24.1167 122.198 24.6667 122.231 25.5C122.231 26.3333 122.248 26.95 122.281 27.35C123.348 26.0167 124.398 25.0667 125.431 24.5C126.464 23.9 127.564 23.6 128.731 23.6C130.598 23.6 132.114 24.35 133.281 25.85C134.481 27.35 135.081 29.3167 135.081 31.75ZM122.181 42.45C123.381 42.1833 124.481 41.5333 125.481 40.5C126.514 39.4333 127.331 38.1333 127.931 36.6C128.531 35.0333 128.831 33.4 128.831 31.7C128.831 30.7 128.631 29.95 128.231 29.45C127.831 28.9167 127.298 28.65 126.631 28.65C125.431 28.65 123.981 29.9167 122.281 32.45C122.248 33.9167 122.231 36.0667 122.231 38.9C122.231 40.4333 122.214 41.6167 122.181 42.45ZM112.631 64.95C113.531 64.95 114.281 62.9833 114.881 59.05C115.481 55.15 115.864 50.2833 116.031 44.45C114.598 47.7833 113.464 50.9667 112.631 54C111.798 57.0333 111.381 59.5833 111.381 61.65C111.381 62.7167 111.514 63.5333 111.781 64.1C112.014 64.6667 112.298 64.95 112.631 64.95Z" fill="#D2B9FF"/>
</svg>
