<svg width="36" height="36" viewBox="0 0 36 36" fill="none" xmlns="http://www.w3.org/2000/svg">
<path d="M34.6864 15.0176H33.2797V14.9451H17.5621V21.9308H27.4319C25.992 25.9973 22.1229 28.9165 17.5621 28.9165C11.7754 28.9165 7.08374 24.2247 7.08374 18.438C7.08374 12.6512 11.7754 7.95948 17.5621 7.95948C20.2333 7.95948 22.6634 8.96716 24.5137 10.6132L29.4534 5.67342C26.3343 2.76651 22.1621 0.973816 17.5621 0.973816C7.91765 0.973816 0.0981445 8.7934 0.0981445 18.438C0.0981445 28.0826 7.91765 35.9021 17.5621 35.9021C27.2066 35.9021 35.0261 28.0826 35.0261 18.438C35.0261 17.267 34.9056 16.124 34.6864 15.0176Z" fill="#FFC107"/>
<path d="M2.11206 10.3093L7.84985 14.5173C9.4024 10.6734 13.1624 7.95948 17.5625 7.95948C20.2336 7.95948 22.6637 8.96716 24.514 10.6132L29.4537 5.67342C26.3346 2.76651 22.1625 0.973816 17.5625 0.973816C10.8545 0.973816 5.03728 4.76092 2.11206 10.3093Z" fill="#FF3D00"/>
<path d="M17.5622 35.9022C22.0732 35.9022 26.172 34.1759 29.2709 31.3685L23.8658 26.7946C22.1125 28.1228 19.9329 28.9165 17.5622 28.9165C13.0198 28.9165 9.1629 26.0201 7.7099 21.978L2.01489 26.3659C4.90518 32.0217 10.7748 35.9022 17.5622 35.9022Z" fill="#4CAF50"/>
<path d="M34.6868 15.0176H33.2801V14.9451H17.5625V21.9308H27.4323C26.7407 23.8842 25.4842 25.5686 23.8635 26.7954C23.8644 26.7946 23.8653 26.7946 23.8661 26.7937L29.2712 31.3676C28.8888 31.7151 35.0265 27.17 35.0265 18.438C35.0265 17.267 34.906 16.124 34.6868 15.0176Z" fill="#1976D2"/>
</svg>
