<svg width="31" height="29" viewBox="0 0 31 29" fill="none" xmlns="http://www.w3.org/2000/svg">
<path d="M15.4381 0.339783C23.8776 0.339783 30.7191 5.67215 30.7191 12.2517C30.7191 18.8299 23.8776 24.1622 15.4381 24.1622C14.5977 24.1627 13.7582 24.1092 12.9247 24.0022L6.50954 28.1979C5.78042 28.5836 5.52282 28.5414 5.82262 27.5968L7.12078 22.2441C2.9294 20.1193 0.156982 16.4373 0.156982 12.2517C0.156982 5.6736 6.99854 0.339783 15.4381 0.339783ZM24.0347 12.0698L26.1741 9.99742C26.2975 9.86922 26.3664 9.6981 26.3662 9.52013C26.366 9.34216 26.2967 9.17121 26.1729 9.04331C26.0492 8.91541 25.8806 8.84053 25.7028 8.83444C25.5249 8.82836 25.3516 8.89155 25.2194 9.0107L22.4135 11.7264V9.48223C22.4135 9.30005 22.3411 9.12533 22.2123 8.9965C22.0835 8.86768 21.9088 8.79531 21.7266 8.79531C21.5444 8.79531 21.3697 8.86768 21.2408 8.9965C21.112 9.12533 21.0397 9.30005 21.0397 9.48223V13.2035C21.0139 13.3097 21.0139 13.4205 21.0397 13.5266V15.6209C21.0397 15.803 21.112 15.9778 21.2408 16.1066C21.3697 16.2354 21.5444 16.3078 21.7266 16.3078C21.9088 16.3078 22.0835 16.2354 22.2123 16.1066C22.3411 15.9778 22.4135 15.803 22.4135 15.6209V13.6372L23.0349 13.0362L25.1132 15.9949C25.165 16.0687 25.231 16.1317 25.3072 16.1801C25.3834 16.2284 25.4684 16.2613 25.5573 16.2769C25.6462 16.2924 25.7373 16.2903 25.8254 16.2706C25.9135 16.251 25.9969 16.2141 26.0708 16.1622C26.1446 16.1103 26.2076 16.0444 26.2559 15.9682C26.3043 15.892 26.3372 15.807 26.3528 15.7181C26.3683 15.6292 26.3662 15.5381 26.3465 15.45C26.3268 15.3619 26.29 15.2785 26.2381 15.2046L24.0347 12.0684V12.0698ZM19.7298 14.8699H17.6051V9.50406C17.5969 9.32753 17.5211 9.16094 17.3933 9.03889C17.2655 8.91685 17.0956 8.84875 16.9189 8.84875C16.7421 8.84875 16.5722 8.91685 16.4444 9.03889C16.3166 9.16094 16.2408 9.32753 16.2327 9.50406V15.5568C16.2327 15.9352 16.5383 16.2437 16.9181 16.2437H19.7298C19.912 16.2437 20.0868 16.1714 20.2156 16.0425C20.3444 15.9137 20.4168 15.739 20.4168 15.5568C20.4168 15.3746 20.3444 15.1999 20.2156 15.0711C20.0868 14.9423 19.912 14.8699 19.7298 14.8699ZM11.2059 13.2807L12.2188 10.7964L13.1473 13.2807H11.2059ZM14.8777 13.9909L14.8807 13.9676C14.8803 13.7945 14.8142 13.6281 14.6958 13.5019L13.1735 9.42693C13.1097 9.23274 12.9882 9.06264 12.8251 8.93938C12.6621 8.81611 12.4653 8.74554 12.261 8.73709C12.0553 8.73619 11.8542 8.79795 11.6844 8.91416C11.5147 9.03037 11.3843 9.19552 11.3107 9.38763L8.89339 15.3181C8.85927 15.4017 8.84194 15.4911 8.84239 15.5813C8.84283 15.6715 8.86104 15.7608 8.89597 15.8439C8.93091 15.9271 8.98188 16.0026 9.04599 16.0661C9.11009 16.1296 9.18607 16.1798 9.26959 16.2139C9.35311 16.248 9.44253 16.2653 9.53275 16.2649C9.62296 16.2645 9.71221 16.2463 9.79539 16.2113C9.87857 16.1764 9.95405 16.1254 10.0175 16.0613C10.081 15.9972 10.1312 15.9212 10.1654 15.8377L10.6456 14.6545H13.6582L14.0933 15.8188C14.1229 15.9058 14.1697 15.986 14.2308 16.0546C14.2919 16.1233 14.3662 16.1789 14.4493 16.2183C14.5323 16.2577 14.6224 16.28 14.7143 16.284C14.8061 16.2879 14.8978 16.2734 14.9839 16.2412C15.07 16.2091 15.1488 16.16 15.2156 16.0968C15.2824 16.0337 15.3358 15.9578 15.3728 15.8736C15.4097 15.7894 15.4293 15.6987 15.4305 15.6068C15.4318 15.5149 15.4145 15.4236 15.3798 15.3385L14.8777 13.9909ZM10.0431 9.51133C10.0431 9.3294 9.97093 9.1549 9.84243 9.02612C9.71392 8.89734 9.53957 8.8248 9.35764 8.82441H4.63506C4.45288 8.82441 4.27816 8.89679 4.14934 9.02561C4.02051 9.15443 3.94814 9.32915 3.94814 9.51133C3.94814 9.69352 4.02051 9.86824 4.14934 9.99706C4.27816 10.1259 4.45288 10.1983 4.63506 10.1983H6.32326V15.6354C6.32326 15.8176 6.39563 15.9923 6.52445 16.1211C6.65327 16.25 6.828 16.3223 7.01018 16.3223C7.19236 16.3223 7.36708 16.25 7.4959 16.1211C7.62473 15.9923 7.6971 15.8176 7.6971 15.6354V10.1983H9.35619C9.73603 10.1983 10.0431 9.88972 10.0431 9.51133Z" fill="#332719"/>
</svg>
