<svg width="191" height="100" viewBox="0 0 191 100" fill="none" xmlns="http://www.w3.org/2000/svg">
<mask id="path-1-outside-1_649_3441" maskUnits="userSpaceOnUse" x="0" y="0" width="191" height="100" fill="black">
<rect fill="white" width="191" height="100"/>
<path d="M15.7046 67.35C11.1313 67.35 7.56128 66.0667 4.99461 63.5C2.47461 60.8867 1.21461 57.4567 1.21461 53.21C1.21461 49.43 1.96128 46.1167 3.45461 43.27C4.94794 40.4233 6.88461 38.23 9.26461 36.69C11.6446 35.15 14.1413 34.38 16.7546 34.38C19.3213 34.38 21.3046 35.15 22.7046 36.69C24.1513 38.1833 24.8746 40.12 24.8746 42.5C24.8746 44.46 24.4313 46.1167 23.5446 47.47C22.7046 48.8233 21.5846 49.5 20.1846 49.5C19.2979 49.5 18.5746 49.29 18.0146 48.87C17.5013 48.45 17.2446 47.8667 17.2446 47.12C17.2446 46.7933 17.2913 46.42 17.3846 46C17.4779 45.58 17.5479 45.2767 17.5946 45.09C17.8279 44.39 17.9446 43.7367 17.9446 43.13C17.9446 42.5233 17.7813 42.0567 17.4546 41.73C17.1746 41.4033 16.7546 41.24 16.1946 41.24C15.1213 41.24 14.1179 41.73 13.1846 42.71C12.2513 43.6433 11.5046 44.9267 10.9446 46.56C10.3846 48.1933 10.1046 49.99 10.1046 51.95C10.1046 57.3633 12.4613 60.07 17.1746 60.07C19.0879 60.07 21.1413 59.44 23.3346 58.18C25.5746 56.8733 27.7679 54.9367 29.9146 52.37C30.4746 51.7167 31.1046 51.39 31.8046 51.39C32.4113 51.39 32.8779 51.67 33.2046 52.23C33.5779 52.79 33.7646 53.56 33.7646 54.54C33.7646 56.3133 33.3213 57.76 32.4346 58.88C30.2413 61.5867 27.6046 63.6867 24.5246 65.18C21.4913 66.6267 18.5513 67.35 15.7046 67.35ZM63.4561 51.39C64.0628 51.39 64.5294 51.67 64.8561 52.23C65.2294 52.79 65.4161 53.56 65.4161 54.54C65.4161 56.4067 64.9728 57.8533 64.0861 58.88C61.9394 61.3533 59.7228 63.3833 57.4361 64.97C55.1961 66.5567 52.6294 67.35 49.7361 67.35C47.3561 67.35 45.5594 66.6733 44.3461 65.32C43.1328 63.92 42.5261 61.9133 42.5261 59.3C42.5261 57.9933 42.8528 55.66 43.5061 52.3C44.1128 49.36 44.4161 47.33 44.4161 46.21C44.4161 45.4633 44.1594 45.09 43.6461 45.09C43.0394 45.09 42.1761 45.8833 41.0561 47.47C39.9361 49.01 38.8161 51.0633 37.6961 53.63C36.5761 56.1967 35.6661 58.9033 34.9661 61.75C34.0794 65.4833 31.8861 67.35 28.3861 67.35C26.9861 67.35 26.0528 66.86 25.5861 65.88C25.1661 64.8533 24.9561 63.0333 24.9561 60.42C24.9561 58.9267 24.9794 57.7367 25.0261 56.85L25.0961 51.25C25.0961 44.0633 25.8194 36.5733 27.2661 28.78C28.7594 20.9867 30.9294 14.4533 33.7761 9.18C36.6694 3.86 40.1228 1.2 44.1361 1.2C46.2828 1.2 48.0094 2.13333 49.3161 4C50.6694 5.82 51.3461 8.2 51.3461 11.14C51.3461 15.8533 49.9694 20.7533 47.2161 25.84C44.4628 30.88 39.9828 36.7833 33.7761 43.55C33.6361 45.9767 33.5661 48.4733 33.5661 51.04C35.1061 47.0733 36.8094 43.8533 38.6761 41.38C40.5894 38.86 42.4561 37.0633 44.2761 35.99C46.1428 34.9167 47.8461 34.38 49.3861 34.38C52.4194 34.38 53.9361 35.8967 53.9361 38.93C53.9361 40.75 53.4228 44.04 52.3961 48.8C51.5094 52.86 51.0661 55.5433 51.0661 56.85C51.0661 58.7167 51.7428 59.65 53.0961 59.65C54.0294 59.65 55.1261 59.09 56.3861 57.97C57.6928 56.8033 59.4194 54.9367 61.5661 52.37C62.1261 51.7167 62.7561 51.39 63.4561 51.39ZM42.6661 8.13C41.8261 8.13 40.8928 9.34333 39.8661 11.77C38.8394 14.15 37.8361 17.3933 36.8561 21.5C35.9228 25.56 35.1528 29.9933 34.5461 34.8C37.4394 31.3933 39.8194 27.6833 41.6861 23.67C43.5994 19.6567 44.5561 16.0167 44.5561 12.75C44.5561 11.2567 44.3928 10.1133 44.0661 9.32C43.7394 8.52666 43.2728 8.13 42.6661 8.13ZM87.4628 51.39C88.0695 51.39 88.5361 51.67 88.8628 52.23C89.2361 52.79 89.4228 53.56 89.4228 54.54C89.4228 56.4067 88.9795 57.8533 88.0928 58.88C86.3661 60.98 83.9161 62.9167 80.7428 64.69C77.6161 66.4633 74.2561 67.35 70.6628 67.35C65.7628 67.35 61.9595 66.02 59.2528 63.36C56.5461 60.7 55.1928 57.06 55.1928 52.44C55.1928 49.22 55.8695 46.2333 57.2228 43.48C58.5761 40.68 60.4428 38.4633 62.8228 36.83C65.2495 35.1967 67.9795 34.38 71.0128 34.38C73.7195 34.38 75.8895 35.1967 77.5228 36.83C79.1561 38.4167 79.9728 40.5867 79.9728 43.34C79.9728 46.56 78.8061 49.3367 76.4728 51.67C74.1861 53.9567 70.2895 55.7767 64.7828 57.13C65.9495 59.2767 68.1661 60.35 71.4328 60.35C73.5328 60.35 75.9128 59.6267 78.5728 58.18C81.2795 56.6867 83.6128 54.75 85.5728 52.37C86.1328 51.7167 86.7628 51.39 87.4628 51.39ZM69.8228 41.24C68.0961 41.24 66.6261 42.2433 65.4128 44.25C64.2461 46.2567 63.6628 48.6833 63.6628 51.53V51.67C66.4161 51.0167 68.5861 50.0367 70.1728 48.73C71.7595 47.4233 72.5528 45.9067 72.5528 44.18C72.5528 43.2933 72.2961 42.5933 71.7828 42.08C71.3161 41.52 70.6628 41.24 69.8228 41.24ZM111.443 51.39C112.05 51.39 112.517 51.67 112.843 52.23C113.217 52.79 113.403 53.56 113.403 54.54C113.403 56.4067 112.96 57.8533 112.073 58.88C110.347 60.98 107.897 62.9167 104.723 64.69C101.597 66.4633 98.2366 67.35 94.6433 67.35C89.7433 67.35 85.9399 66.02 83.2333 63.36C80.5266 60.7 79.1733 57.06 79.1733 52.44C79.1733 49.22 79.8499 46.2333 81.2033 43.48C82.5566 40.68 84.4233 38.4633 86.8033 36.83C89.2299 35.1967 91.9599 34.38 94.9933 34.38C97.6999 34.38 99.8699 35.1967 101.503 36.83C103.137 38.4167 103.953 40.5867 103.953 43.34C103.953 46.56 102.787 49.3367 100.453 51.67C98.1666 53.9567 94.2699 55.7767 88.7633 57.13C89.9299 59.2767 92.1466 60.35 95.4133 60.35C97.5133 60.35 99.8933 59.6267 102.553 58.18C105.26 56.6867 107.593 54.75 109.553 52.37C110.113 51.7167 110.743 51.39 111.443 51.39ZM93.8033 41.24C92.0766 41.24 90.6066 42.2433 89.3933 44.25C88.2266 46.2567 87.6433 48.6833 87.6433 51.53V51.67C90.3966 51.0167 92.5666 50.0367 94.1533 48.73C95.7399 47.4233 96.5333 45.9067 96.5333 44.18C96.5333 43.2933 96.2766 42.5933 95.7633 42.08C95.2966 41.52 94.6433 41.24 93.8033 41.24ZM109.174 67.35C107.4 67.35 106.14 66.4167 105.394 64.55C104.694 62.6833 104.344 59.6967 104.344 55.59C104.344 49.5233 105.207 43.76 106.934 38.3C107.354 36.9467 108.03 35.9667 108.964 35.36C109.944 34.7067 111.297 34.38 113.024 34.38C113.957 34.38 114.61 34.4967 114.984 34.73C115.357 34.9633 115.544 35.4067 115.544 36.06C115.544 36.8067 115.194 38.4867 114.494 41.1C114.027 42.9667 113.654 44.6 113.374 46C113.094 47.4 112.86 49.1267 112.674 51.18C114.214 47.1667 115.94 43.9 117.854 41.38C119.767 38.86 121.634 37.0633 123.454 35.99C125.32 34.9167 127.024 34.38 128.564 34.38C131.597 34.38 133.114 35.8967 133.114 38.93C133.114 39.5367 132.904 41.0067 132.484 43.34C132.11 45.2067 131.924 46.3733 131.924 46.84C131.924 48.4733 132.507 49.29 133.674 49.29C134.98 49.29 136.66 48.2633 138.714 46.21C139.32 45.6033 139.95 45.3 140.604 45.3C141.21 45.3 141.677 45.58 142.004 46.14C142.377 46.6533 142.564 47.3533 142.564 48.24C142.564 49.9667 142.097 51.32 141.164 52.3C139.857 53.6533 138.317 54.82 136.544 55.8C134.817 56.7333 132.974 57.2 131.014 57.2C128.54 57.2 126.65 56.57 125.344 55.31C124.084 54.05 123.454 52.3467 123.454 50.2C123.454 49.5 123.524 48.8 123.664 48.1C123.757 47.1667 123.804 46.5367 123.804 46.21C123.804 45.4633 123.547 45.09 123.034 45.09C122.334 45.09 121.4 45.8833 120.234 47.47C119.114 49.01 117.994 51.0633 116.874 53.63C115.754 56.1967 114.844 58.9033 114.144 61.75C113.63 63.9433 113.024 65.4367 112.324 66.23C111.67 66.9767 110.62 67.35 109.174 67.35ZM139.699 67.35C137.599 67.35 135.873 66.3933 134.519 64.48C133.213 62.52 132.559 60.0933 132.559 57.2C132.559 53.7 132.793 50.5033 133.259 47.61C133.726 44.67 134.496 41.5667 135.569 38.3C136.036 36.9 136.689 35.8967 137.529 35.29C138.369 34.6833 139.699 34.38 141.519 34.38C142.546 34.38 143.246 34.5433 143.619 34.87C144.039 35.1967 144.249 35.6867 144.249 36.34C144.249 36.7133 143.993 37.9733 143.479 40.12C143.013 41.8467 142.639 43.41 142.359 44.81C141.426 49.71 140.959 52.9767 140.959 54.61C140.959 55.59 141.076 56.29 141.309 56.71C141.543 57.0833 141.916 57.27 142.429 57.27C143.129 57.27 143.993 56.57 145.019 55.17C146.093 53.77 147.213 51.6467 148.379 48.8C149.593 45.9533 150.759 42.4533 151.879 38.3C152.253 36.9 152.813 35.8967 153.559 35.29C154.353 34.6833 155.519 34.38 157.059 34.38C158.133 34.38 158.879 34.52 159.299 34.8C159.719 35.0333 159.929 35.5 159.929 36.2C159.929 37.3667 159.346 40.5633 158.179 45.79C156.873 51.7633 156.219 55.45 156.219 56.85C156.219 57.7367 156.406 58.4367 156.779 58.95C157.153 59.4167 157.643 59.65 158.249 59.65C159.183 59.65 160.279 59.09 161.539 57.97C162.846 56.8033 164.573 54.9367 166.719 52.37C167.279 51.7167 167.909 51.39 168.609 51.39C169.216 51.39 169.683 51.67 170.009 52.23C170.383 52.79 170.569 53.56 170.569 54.54C170.569 56.4067 170.126 57.8533 169.239 58.88C167.233 61.3533 165.063 63.3833 162.729 64.97C160.443 66.5567 157.829 67.35 154.889 67.35C152.649 67.35 150.993 66.4867 149.919 64.76C148.893 63.0333 148.379 60.6067 148.379 57.48C147.586 60.6533 146.396 63.1033 144.809 64.83C143.223 66.51 141.519 67.35 139.699 67.35ZM189.113 45.65C189.113 49.3367 188.25 52.8367 186.523 56.15C184.843 59.4167 182.58 62.0767 179.733 64.13C176.933 66.1833 173.923 67.2567 170.703 67.35C170.097 76.3567 168.72 83.87 166.573 89.89C164.427 95.9567 161.277 98.99 157.123 98.99C154.603 98.99 152.737 98.08 151.523 96.26C150.31 94.44 149.703 91.92 149.703 88.7C149.703 84.1267 150.753 78.7833 152.853 72.67C154.953 66.6033 158.197 59.9067 162.583 52.58C162.583 45.7667 162.537 41.03 162.443 38.37C162.397 37.0167 162.933 35.9433 164.053 35.15C165.173 34.3567 166.573 33.96 168.253 33.96C169.233 33.96 169.933 34.17 170.353 34.59C170.82 34.9633 171.077 35.7333 171.123 36.9C171.123 38.0667 171.147 38.93 171.193 39.49C172.687 37.6233 174.157 36.2933 175.603 35.5C177.05 34.66 178.59 34.24 180.223 34.24C182.837 34.24 184.96 35.29 186.593 37.39C188.273 39.49 189.113 42.2433 189.113 45.65ZM171.053 60.63C172.733 60.2567 174.273 59.3467 175.673 57.9C177.12 56.4067 178.263 54.5867 179.103 52.44C179.943 50.2467 180.363 47.96 180.363 45.58C180.363 44.18 180.083 43.13 179.523 42.43C178.963 41.6833 178.217 41.31 177.283 41.31C175.603 41.31 173.573 43.0833 171.193 46.63C171.147 48.6833 171.123 51.6933 171.123 55.66C171.123 57.8067 171.1 59.4633 171.053 60.63ZM157.683 92.13C158.943 92.13 159.993 89.3767 160.833 83.87C161.673 78.41 162.21 71.5967 162.443 63.43C160.437 68.0967 158.85 72.5533 157.683 76.8C156.517 81.0467 155.933 84.6167 155.933 87.51C155.933 89.0033 156.12 90.1467 156.493 90.94C156.82 91.7333 157.217 92.13 157.683 92.13Z"/>
</mask>
<path d="M15.7046 67.35C11.1313 67.35 7.56128 66.0667 4.99461 63.5C2.47461 60.8867 1.21461 57.4567 1.21461 53.21C1.21461 49.43 1.96128 46.1167 3.45461 43.27C4.94794 40.4233 6.88461 38.23 9.26461 36.69C11.6446 35.15 14.1413 34.38 16.7546 34.38C19.3213 34.38 21.3046 35.15 22.7046 36.69C24.1513 38.1833 24.8746 40.12 24.8746 42.5C24.8746 44.46 24.4313 46.1167 23.5446 47.47C22.7046 48.8233 21.5846 49.5 20.1846 49.5C19.2979 49.5 18.5746 49.29 18.0146 48.87C17.5013 48.45 17.2446 47.8667 17.2446 47.12C17.2446 46.7933 17.2913 46.42 17.3846 46C17.4779 45.58 17.5479 45.2767 17.5946 45.09C17.8279 44.39 17.9446 43.7367 17.9446 43.13C17.9446 42.5233 17.7813 42.0567 17.4546 41.73C17.1746 41.4033 16.7546 41.24 16.1946 41.24C15.1213 41.24 14.1179 41.73 13.1846 42.71C12.2513 43.6433 11.5046 44.9267 10.9446 46.56C10.3846 48.1933 10.1046 49.99 10.1046 51.95C10.1046 57.3633 12.4613 60.07 17.1746 60.07C19.0879 60.07 21.1413 59.44 23.3346 58.18C25.5746 56.8733 27.7679 54.9367 29.9146 52.37C30.4746 51.7167 31.1046 51.39 31.8046 51.39C32.4113 51.39 32.8779 51.67 33.2046 52.23C33.5779 52.79 33.7646 53.56 33.7646 54.54C33.7646 56.3133 33.3213 57.76 32.4346 58.88C30.2413 61.5867 27.6046 63.6867 24.5246 65.18C21.4913 66.6267 18.5513 67.35 15.7046 67.35ZM63.4561 51.39C64.0628 51.39 64.5294 51.67 64.8561 52.23C65.2294 52.79 65.4161 53.56 65.4161 54.54C65.4161 56.4067 64.9728 57.8533 64.0861 58.88C61.9394 61.3533 59.7228 63.3833 57.4361 64.97C55.1961 66.5567 52.6294 67.35 49.7361 67.35C47.3561 67.35 45.5594 66.6733 44.3461 65.32C43.1328 63.92 42.5261 61.9133 42.5261 59.3C42.5261 57.9933 42.8528 55.66 43.5061 52.3C44.1128 49.36 44.4161 47.33 44.4161 46.21C44.4161 45.4633 44.1594 45.09 43.6461 45.09C43.0394 45.09 42.1761 45.8833 41.0561 47.47C39.9361 49.01 38.8161 51.0633 37.6961 53.63C36.5761 56.1967 35.6661 58.9033 34.9661 61.75C34.0794 65.4833 31.8861 67.35 28.3861 67.35C26.9861 67.35 26.0528 66.86 25.5861 65.88C25.1661 64.8533 24.9561 63.0333 24.9561 60.42C24.9561 58.9267 24.9794 57.7367 25.0261 56.85L25.0961 51.25C25.0961 44.0633 25.8194 36.5733 27.2661 28.78C28.7594 20.9867 30.9294 14.4533 33.7761 9.18C36.6694 3.86 40.1228 1.2 44.1361 1.2C46.2828 1.2 48.0094 2.13333 49.3161 4C50.6694 5.82 51.3461 8.2 51.3461 11.14C51.3461 15.8533 49.9694 20.7533 47.2161 25.84C44.4628 30.88 39.9828 36.7833 33.7761 43.55C33.6361 45.9767 33.5661 48.4733 33.5661 51.04C35.1061 47.0733 36.8094 43.8533 38.6761 41.38C40.5894 38.86 42.4561 37.0633 44.2761 35.99C46.1428 34.9167 47.8461 34.38 49.3861 34.38C52.4194 34.38 53.9361 35.8967 53.9361 38.93C53.9361 40.75 53.4228 44.04 52.3961 48.8C51.5094 52.86 51.0661 55.5433 51.0661 56.85C51.0661 58.7167 51.7428 59.65 53.0961 59.65C54.0294 59.65 55.1261 59.09 56.3861 57.97C57.6928 56.8033 59.4194 54.9367 61.5661 52.37C62.1261 51.7167 62.7561 51.39 63.4561 51.39ZM42.6661 8.13C41.8261 8.13 40.8928 9.34333 39.8661 11.77C38.8394 14.15 37.8361 17.3933 36.8561 21.5C35.9228 25.56 35.1528 29.9933 34.5461 34.8C37.4394 31.3933 39.8194 27.6833 41.6861 23.67C43.5994 19.6567 44.5561 16.0167 44.5561 12.75C44.5561 11.2567 44.3928 10.1133 44.0661 9.32C43.7394 8.52666 43.2728 8.13 42.6661 8.13ZM87.4628 51.39C88.0695 51.39 88.5361 51.67 88.8628 52.23C89.2361 52.79 89.4228 53.56 89.4228 54.54C89.4228 56.4067 88.9795 57.8533 88.0928 58.88C86.3661 60.98 83.9161 62.9167 80.7428 64.69C77.6161 66.4633 74.2561 67.35 70.6628 67.35C65.7628 67.35 61.9595 66.02 59.2528 63.36C56.5461 60.7 55.1928 57.06 55.1928 52.44C55.1928 49.22 55.8695 46.2333 57.2228 43.48C58.5761 40.68 60.4428 38.4633 62.8228 36.83C65.2495 35.1967 67.9795 34.38 71.0128 34.38C73.7195 34.38 75.8895 35.1967 77.5228 36.83C79.1561 38.4167 79.9728 40.5867 79.9728 43.34C79.9728 46.56 78.8061 49.3367 76.4728 51.67C74.1861 53.9567 70.2895 55.7767 64.7828 57.13C65.9495 59.2767 68.1661 60.35 71.4328 60.35C73.5328 60.35 75.9128 59.6267 78.5728 58.18C81.2795 56.6867 83.6128 54.75 85.5728 52.37C86.1328 51.7167 86.7628 51.39 87.4628 51.39ZM69.8228 41.24C68.0961 41.24 66.6261 42.2433 65.4128 44.25C64.2461 46.2567 63.6628 48.6833 63.6628 51.53V51.67C66.4161 51.0167 68.5861 50.0367 70.1728 48.73C71.7595 47.4233 72.5528 45.9067 72.5528 44.18C72.5528 43.2933 72.2961 42.5933 71.7828 42.08C71.3161 41.52 70.6628 41.24 69.8228 41.24ZM111.443 51.39C112.05 51.39 112.517 51.67 112.843 52.23C113.217 52.79 113.403 53.56 113.403 54.54C113.403 56.4067 112.96 57.8533 112.073 58.88C110.347 60.98 107.897 62.9167 104.723 64.69C101.597 66.4633 98.2366 67.35 94.6433 67.35C89.7433 67.35 85.9399 66.02 83.2333 63.36C80.5266 60.7 79.1733 57.06 79.1733 52.44C79.1733 49.22 79.8499 46.2333 81.2033 43.48C82.5566 40.68 84.4233 38.4633 86.8033 36.83C89.2299 35.1967 91.9599 34.38 94.9933 34.38C97.6999 34.38 99.8699 35.1967 101.503 36.83C103.137 38.4167 103.953 40.5867 103.953 43.34C103.953 46.56 102.787 49.3367 100.453 51.67C98.1666 53.9567 94.2699 55.7767 88.7633 57.13C89.9299 59.2767 92.1466 60.35 95.4133 60.35C97.5133 60.35 99.8933 59.6267 102.553 58.18C105.26 56.6867 107.593 54.75 109.553 52.37C110.113 51.7167 110.743 51.39 111.443 51.39ZM93.8033 41.24C92.0766 41.24 90.6066 42.2433 89.3933 44.25C88.2266 46.2567 87.6433 48.6833 87.6433 51.53V51.67C90.3966 51.0167 92.5666 50.0367 94.1533 48.73C95.7399 47.4233 96.5333 45.9067 96.5333 44.18C96.5333 43.2933 96.2766 42.5933 95.7633 42.08C95.2966 41.52 94.6433 41.24 93.8033 41.24ZM109.174 67.35C107.4 67.35 106.14 66.4167 105.394 64.55C104.694 62.6833 104.344 59.6967 104.344 55.59C104.344 49.5233 105.207 43.76 106.934 38.3C107.354 36.9467 108.03 35.9667 108.964 35.36C109.944 34.7067 111.297 34.38 113.024 34.38C113.957 34.38 114.61 34.4967 114.984 34.73C115.357 34.9633 115.544 35.4067 115.544 36.06C115.544 36.8067 115.194 38.4867 114.494 41.1C114.027 42.9667 113.654 44.6 113.374 46C113.094 47.4 112.86 49.1267 112.674 51.18C114.214 47.1667 115.94 43.9 117.854 41.38C119.767 38.86 121.634 37.0633 123.454 35.99C125.32 34.9167 127.024 34.38 128.564 34.38C131.597 34.38 133.114 35.8967 133.114 38.93C133.114 39.5367 132.904 41.0067 132.484 43.34C132.11 45.2067 131.924 46.3733 131.924 46.84C131.924 48.4733 132.507 49.29 133.674 49.29C134.98 49.29 136.66 48.2633 138.714 46.21C139.32 45.6033 139.95 45.3 140.604 45.3C141.21 45.3 141.677 45.58 142.004 46.14C142.377 46.6533 142.564 47.3533 142.564 48.24C142.564 49.9667 142.097 51.32 141.164 52.3C139.857 53.6533 138.317 54.82 136.544 55.8C134.817 56.7333 132.974 57.2 131.014 57.2C128.54 57.2 126.65 56.57 125.344 55.31C124.084 54.05 123.454 52.3467 123.454 50.2C123.454 49.5 123.524 48.8 123.664 48.1C123.757 47.1667 123.804 46.5367 123.804 46.21C123.804 45.4633 123.547 45.09 123.034 45.09C122.334 45.09 121.4 45.8833 120.234 47.47C119.114 49.01 117.994 51.0633 116.874 53.63C115.754 56.1967 114.844 58.9033 114.144 61.75C113.63 63.9433 113.024 65.4367 112.324 66.23C111.67 66.9767 110.62 67.35 109.174 67.35ZM139.699 67.35C137.599 67.35 135.873 66.3933 134.519 64.48C133.213 62.52 132.559 60.0933 132.559 57.2C132.559 53.7 132.793 50.5033 133.259 47.61C133.726 44.67 134.496 41.5667 135.569 38.3C136.036 36.9 136.689 35.8967 137.529 35.29C138.369 34.6833 139.699 34.38 141.519 34.38C142.546 34.38 143.246 34.5433 143.619 34.87C144.039 35.1967 144.249 35.6867 144.249 36.34C144.249 36.7133 143.993 37.9733 143.479 40.12C143.013 41.8467 142.639 43.41 142.359 44.81C141.426 49.71 140.959 52.9767 140.959 54.61C140.959 55.59 141.076 56.29 141.309 56.71C141.543 57.0833 141.916 57.27 142.429 57.27C143.129 57.27 143.993 56.57 145.019 55.17C146.093 53.77 147.213 51.6467 148.379 48.8C149.593 45.9533 150.759 42.4533 151.879 38.3C152.253 36.9 152.813 35.8967 153.559 35.29C154.353 34.6833 155.519 34.38 157.059 34.38C158.133 34.38 158.879 34.52 159.299 34.8C159.719 35.0333 159.929 35.5 159.929 36.2C159.929 37.3667 159.346 40.5633 158.179 45.79C156.873 51.7633 156.219 55.45 156.219 56.85C156.219 57.7367 156.406 58.4367 156.779 58.95C157.153 59.4167 157.643 59.65 158.249 59.65C159.183 59.65 160.279 59.09 161.539 57.97C162.846 56.8033 164.573 54.9367 166.719 52.37C167.279 51.7167 167.909 51.39 168.609 51.39C169.216 51.39 169.683 51.67 170.009 52.23C170.383 52.79 170.569 53.56 170.569 54.54C170.569 56.4067 170.126 57.8533 169.239 58.88C167.233 61.3533 165.063 63.3833 162.729 64.97C160.443 66.5567 157.829 67.35 154.889 67.35C152.649 67.35 150.993 66.4867 149.919 64.76C148.893 63.0333 148.379 60.6067 148.379 57.48C147.586 60.6533 146.396 63.1033 144.809 64.83C143.223 66.51 141.519 67.35 139.699 67.35ZM189.113 45.65C189.113 49.3367 188.25 52.8367 186.523 56.15C184.843 59.4167 182.58 62.0767 179.733 64.13C176.933 66.1833 173.923 67.2567 170.703 67.35C170.097 76.3567 168.72 83.87 166.573 89.89C164.427 95.9567 161.277 98.99 157.123 98.99C154.603 98.99 152.737 98.08 151.523 96.26C150.31 94.44 149.703 91.92 149.703 88.7C149.703 84.1267 150.753 78.7833 152.853 72.67C154.953 66.6033 158.197 59.9067 162.583 52.58C162.583 45.7667 162.537 41.03 162.443 38.37C162.397 37.0167 162.933 35.9433 164.053 35.15C165.173 34.3567 166.573 33.96 168.253 33.96C169.233 33.96 169.933 34.17 170.353 34.59C170.82 34.9633 171.077 35.7333 171.123 36.9C171.123 38.0667 171.147 38.93 171.193 39.49C172.687 37.6233 174.157 36.2933 175.603 35.5C177.05 34.66 178.59 34.24 180.223 34.24C182.837 34.24 184.96 35.29 186.593 37.39C188.273 39.49 189.113 42.2433 189.113 45.65ZM171.053 60.63C172.733 60.2567 174.273 59.3467 175.673 57.9C177.12 56.4067 178.263 54.5867 179.103 52.44C179.943 50.2467 180.363 47.96 180.363 45.58C180.363 44.18 180.083 43.13 179.523 42.43C178.963 41.6833 178.217 41.31 177.283 41.31C175.603 41.31 173.573 43.0833 171.193 46.63C171.147 48.6833 171.123 51.6933 171.123 55.66C171.123 57.8067 171.1 59.4633 171.053 60.63ZM157.683 92.13C158.943 92.13 159.993 89.3767 160.833 83.87C161.673 78.41 162.21 71.5967 162.443 63.43C160.437 68.0967 158.85 72.5533 157.683 76.8C156.517 81.0467 155.933 84.6167 155.933 87.51C155.933 89.0033 156.12 90.1467 156.493 90.94C156.82 91.7333 157.217 92.13 157.683 92.13Z" fill="url(#paint0_radial_649_3441)"/>
<path d="M4.99461 63.5L4.27477 64.1941L4.28107 64.2007L4.2875 64.2071L4.99461 63.5ZM3.45461 43.27L4.34016 43.7346L3.45461 43.27ZM9.26461 36.69L8.72136 35.8504L9.26461 36.69ZM22.7046 36.69L21.9647 37.3627L21.9753 37.3744L21.9864 37.3858L22.7046 36.69ZM23.5446 47.47L22.7081 46.922L22.7014 46.9322L22.695 46.9426L23.5446 47.47ZM18.0146 48.87L17.3814 49.644L17.3977 49.6573L17.4146 49.67L18.0146 48.87ZM17.5946 45.09L16.6459 44.7738L16.6338 44.8102L16.6245 44.8475L17.5946 45.09ZM17.4546 41.73L16.6954 42.3808L16.7203 42.41L16.7475 42.4371L17.4546 41.73ZM13.1846 42.71L13.8917 43.4171L13.9003 43.4085L13.9087 43.3997L13.1846 42.71ZM10.9446 46.56L9.99866 46.2357L10.9446 46.56ZM23.3346 58.18L23.8327 59.0471L23.8385 59.0438L23.3346 58.18ZM29.9146 52.37L29.1553 51.7192L29.1475 51.7284L29.9146 52.37ZM33.2046 52.23L32.3408 52.7339L32.3559 52.7598L32.3726 52.7847L33.2046 52.23ZM32.4346 58.88L33.2116 59.5096L33.2187 59.5007L32.4346 58.88ZM24.5246 65.18L24.9551 66.0826L24.9609 66.0798L24.5246 65.18ZM15.7046 67.35V66.35C11.3239 66.35 8.03507 65.1263 5.70172 62.7929L4.99461 63.5L4.2875 64.2071C7.08748 67.0071 10.9387 68.35 15.7046 68.35V67.35ZM4.99461 63.5L5.71445 62.8059C3.40445 60.4103 2.21461 57.2449 2.21461 53.21H1.21461H0.214609C0.214609 57.6684 1.54477 61.363 4.27477 64.1941L4.99461 63.5ZM1.21461 53.21H2.21461C2.21461 49.5634 2.93419 46.4147 4.34016 43.7346L3.45461 43.27L2.56906 42.8055C0.988361 45.8187 0.214609 49.2966 0.214609 53.21H1.21461ZM3.45461 43.27L4.34016 43.7346C5.76444 41.0195 7.59079 38.9641 9.80786 37.5296L9.26461 36.69L8.72136 35.8504C6.17842 37.4959 4.13145 39.8272 2.56906 42.8055L3.45461 43.27ZM9.26461 36.69L9.80786 37.5296C12.0403 36.085 14.3504 35.38 16.7546 35.38V34.38V33.38C13.9322 33.38 11.2489 34.215 8.72136 35.8504L9.26461 36.69ZM16.7546 34.38V35.38C19.1103 35.38 20.7971 36.0783 21.9647 37.3627L22.7046 36.69L23.4445 36.0173C21.8121 34.2217 19.5322 33.38 16.7546 33.38V34.38ZM22.7046 36.69L21.9864 37.3858C23.2259 38.6653 23.8746 40.3391 23.8746 42.5H24.8746H25.8746C25.8746 39.9009 25.0766 37.7013 23.4229 35.9942L22.7046 36.69ZM24.8746 42.5H23.8746C23.8746 44.3069 23.4674 45.7631 22.7081 46.922L23.5446 47.47L24.3811 48.018C25.3951 46.4702 25.8746 44.6131 25.8746 42.5H24.8746ZM23.5446 47.47L22.695 46.9426C22.0076 48.05 21.1858 48.5 20.1846 48.5V49.5V50.5C21.9834 50.5 23.4016 49.5967 24.3942 47.9974L23.5446 47.47ZM20.1846 49.5V48.5C19.456 48.5 18.96 48.3291 18.6146 48.07L18.0146 48.87L17.4146 49.67C18.1892 50.2509 19.1399 50.5 20.1846 50.5V49.5ZM18.0146 48.87L18.6478 48.096C18.3977 47.8914 18.2446 47.6093 18.2446 47.12H17.2446H16.2446C16.2446 48.124 16.6049 49.0086 17.3814 49.644L18.0146 48.87ZM17.2446 47.12H18.2446C18.2446 46.8851 18.2786 46.5867 18.3608 46.2169L17.3846 46L16.4084 45.7831C16.3039 46.2533 16.2446 46.7016 16.2446 47.12H17.2446ZM17.3846 46L18.3608 46.2169C18.454 45.7977 18.5215 45.5054 18.5648 45.3325L17.5946 45.09L16.6245 44.8475C16.5744 45.0479 16.5019 45.3623 16.4084 45.7831L17.3846 46ZM17.5946 45.09L18.5433 45.4062C18.8035 44.6255 18.9446 43.8645 18.9446 43.13H17.9446H16.9446C16.9446 43.6088 16.8524 44.1545 16.6459 44.7738L17.5946 45.09ZM17.9446 43.13H18.9446C18.9446 42.3444 18.7292 41.5904 18.1617 41.0229L17.4546 41.73L16.7475 42.4371C16.8334 42.523 16.9446 42.7023 16.9446 43.13H17.9446ZM17.4546 41.73L18.2139 41.0792C17.6902 40.4682 16.9525 40.24 16.1946 40.24V41.24V42.24C16.5568 42.24 16.659 42.3384 16.6954 42.3808L17.4546 41.73ZM16.1946 41.24V40.24C14.7801 40.24 13.5303 40.897 12.4605 42.0203L13.1846 42.71L13.9087 43.3997C14.7056 42.563 15.4625 42.24 16.1946 42.24V41.24ZM13.1846 42.71L12.4775 42.0029C11.4085 43.0719 10.5934 44.5009 9.99866 46.2357L10.9446 46.56L11.8906 46.8843C12.4158 45.3524 13.094 44.2148 13.8917 43.4171L13.1846 42.71ZM10.9446 46.56L9.99866 46.2357C9.3984 47.9865 9.10461 49.8944 9.10461 51.95H10.1046H11.1046C11.1046 50.0856 11.3708 48.4002 11.8906 46.8843L10.9446 46.56ZM10.1046 51.95H9.10461C9.10461 54.7794 9.71752 57.0883 11.1179 58.6967C12.5414 60.3315 14.625 61.07 17.1746 61.07V60.07V59.07C15.0109 59.07 13.5595 58.4552 12.6263 57.3833C11.67 56.2851 11.1046 54.5339 11.1046 51.95H10.1046ZM17.1746 60.07V61.07C19.3102 61.07 21.5351 60.367 23.8327 59.0471L23.3346 58.18L22.8365 57.3129C20.7474 58.513 18.8657 59.07 17.1746 59.07V60.07ZM23.3346 58.18L23.8385 59.0438C26.2027 57.6647 28.4813 55.6425 30.6817 53.0116L29.9146 52.37L29.1475 51.7284C27.0546 54.2308 24.9465 56.082 22.8307 57.3162L23.3346 58.18ZM29.9146 52.37L30.6739 53.0208C31.0913 52.5337 31.4623 52.39 31.8046 52.39V51.39V50.39C30.7469 50.39 29.8579 50.8996 29.1554 51.7192L29.9146 52.37ZM31.8046 51.39V52.39C32.0268 52.39 32.1784 52.4554 32.3408 52.7339L33.2046 52.23L34.0684 51.7261C33.5775 50.8846 32.7958 50.39 31.8046 50.39V51.39ZM33.2046 52.23L32.3726 52.7847C32.597 53.1214 32.7646 53.672 32.7646 54.54H33.7646H34.7646C34.7646 53.448 34.5589 52.4586 34.0367 51.6753L33.2046 52.23ZM33.7646 54.54H32.7646C32.7646 56.1437 32.3663 57.3552 31.6506 58.2593L32.4346 58.88L33.2187 59.5007C34.2762 58.1648 34.7646 56.4829 34.7646 54.54H33.7646ZM32.4346 58.88L31.6577 58.2504C29.555 60.8452 27.0339 62.852 24.0883 64.2802L24.5246 65.18L24.9609 66.0798C28.1753 64.5213 30.9275 62.3281 33.2115 59.5096L32.4346 58.88ZM24.5246 65.18L24.0941 64.2774C21.1712 65.6714 18.3778 66.35 15.7046 66.35V67.35V68.35C18.7248 68.35 21.8114 67.5819 24.9551 66.0826L24.5246 65.18ZM64.8561 52.23L63.9923 52.7339L64.0074 52.7598L64.024 52.7847L64.8561 52.23ZM64.0861 58.88L64.8413 59.5355L64.8429 59.5336L64.0861 58.88ZM57.4361 64.97L56.866 64.1484L56.8581 64.154L57.4361 64.97ZM44.3461 65.32L43.5904 65.9749L43.5959 65.9813L43.6015 65.9875L44.3461 65.32ZM43.5061 52.3L42.5267 52.0979L42.5245 52.1091L43.5061 52.3ZM41.0561 47.47L41.8649 48.0582L41.8731 48.0467L41.0561 47.47ZM37.6961 53.63L38.6126 54.0299L37.6961 53.63ZM34.9661 61.75L33.995 61.5112L33.9932 61.5189L34.9661 61.75ZM25.5861 65.88L24.6605 66.2586L24.6712 66.2846L24.6832 66.3099L25.5861 65.88ZM25.0261 56.85L26.0247 56.9026L26.0258 56.8825L26.026 56.8625L25.0261 56.85ZM25.0961 51.25L26.0961 51.2625V51.25H25.0961ZM27.2661 28.78L26.2839 28.5918L26.2829 28.5975L27.2661 28.78ZM33.7761 9.18L32.8976 8.70222L32.8961 8.70497L33.7761 9.18ZM49.3161 4L48.4969 4.57346L48.5051 4.5852L48.5136 4.5967L49.3161 4ZM47.2161 25.84L48.0937 26.3194L48.0955 26.316L47.2161 25.84ZM33.7761 43.55L33.0392 42.874L32.7983 43.1367L32.7778 43.4924L33.7761 43.55ZM33.5661 51.04H32.5661L34.4983 51.4019L33.5661 51.04ZM38.6761 41.38L37.8796 40.7753L37.8779 40.7776L38.6761 41.38ZM44.2761 35.99L43.7776 35.123L43.7681 35.1286L44.2761 35.99ZM52.3961 48.8L53.3731 49.0134L53.3736 49.0108L52.3961 48.8ZM56.3861 57.97L57.0505 58.7174L57.0521 58.7159L56.3861 57.97ZM61.5661 52.37L60.8068 51.7192L60.799 51.7284L61.5661 52.37ZM39.8661 11.77L40.7843 12.1661L40.7871 12.1596L39.8661 11.77ZM36.8561 21.5L35.8834 21.2679L35.8815 21.276L36.8561 21.5ZM34.5461 34.8L33.554 34.6748L33.1332 38.0083L35.3083 35.4473L34.5461 34.8ZM41.6861 23.67L40.7834 23.2396L40.7794 23.2483L41.6861 23.67ZM44.0661 9.32L44.9908 8.93925L44.9908 8.93924L44.0661 9.32ZM63.4561 51.39V52.39C63.6783 52.39 63.8298 52.4554 63.9923 52.7339L64.8561 52.23L65.7199 51.7261C65.229 50.8846 64.4473 50.39 63.4561 50.39V51.39ZM64.8561 52.23L64.024 52.7847C64.2485 53.1214 64.4161 53.672 64.4161 54.54H65.4161H66.4161C66.4161 53.448 66.2104 52.4586 65.6881 51.6753L64.8561 52.23ZM65.4161 54.54H64.4161C64.4161 56.2569 64.0087 57.4396 63.3293 58.2264L64.0861 58.88L64.8429 59.5336C65.9368 58.267 66.4161 56.5564 66.4161 54.54H65.4161ZM64.0861 58.88L63.3309 58.2245C61.2294 60.6457 59.0735 62.6167 56.866 64.1484L57.4361 64.97L58.0062 65.7916C60.372 64.15 62.6494 62.0609 64.8413 59.5355L64.0861 58.88ZM57.4361 64.97L56.8581 64.154C54.7965 65.6143 52.4342 66.35 49.7361 66.35V67.35V68.35C52.8246 68.35 55.5957 67.4991 58.0141 65.786L57.4361 64.97ZM49.7361 67.35V66.35C47.5472 66.35 46.06 65.7336 45.0907 64.6525L44.3461 65.32L43.6015 65.9875C45.0589 67.613 47.165 68.35 49.7361 68.35V67.35ZM44.3461 65.32L45.1018 64.6651C44.1001 63.5093 43.5261 61.7707 43.5261 59.3H42.5261H41.5261C41.5261 62.056 42.1654 64.3307 43.5904 65.9749L44.3461 65.32ZM42.5261 59.3H43.5261C43.5261 58.1022 43.8331 55.8573 44.4877 52.4909L43.5061 52.3L42.5245 52.1091C41.8724 55.4627 41.5261 57.8845 41.5261 59.3H42.5261ZM43.5061 52.3L44.4855 52.5021C45.0904 49.5707 45.4161 47.4461 45.4161 46.21H44.4161H43.4161C43.4161 47.2139 43.1352 49.1493 42.5267 52.0979L43.5061 52.3ZM44.4161 46.21H45.4161C45.4161 45.7531 45.3432 45.2334 45.0476 44.8035C44.7056 44.306 44.1811 44.09 43.6461 44.09V45.09V46.09C43.6531 46.09 43.6109 46.091 43.5467 46.0598C43.4777 46.0264 43.4276 45.9773 43.3996 45.9365C43.376 45.9023 43.3821 45.8946 43.3932 45.9434C43.4044 45.9921 43.4161 46.0774 43.4161 46.21H44.4161ZM43.6461 45.09V44.09C42.944 44.09 42.333 44.5204 41.867 44.9487C41.3601 45.4144 40.8172 46.0744 40.2391 46.8933L41.0561 47.47L41.8731 48.0467C42.415 47.2789 42.8637 46.7489 43.2202 46.4213C43.6175 46.0563 43.7415 46.09 43.6461 46.09V45.09ZM41.0561 47.47L40.2474 46.8818C39.0699 48.5009 37.9164 50.6249 36.7796 53.2301L37.6961 53.63L38.6126 54.0299C39.7158 51.5018 40.8023 49.5191 41.8648 48.0582L41.0561 47.47ZM37.6961 53.63L36.7796 53.2301C35.6358 55.8512 34.708 58.6119 33.995 61.5112L34.9661 61.75L35.9372 61.9888C36.6242 59.1947 37.5164 56.5422 38.6126 54.0299L37.6961 53.63ZM34.9661 61.75L33.9932 61.5189C33.5828 63.2468 32.8965 64.4323 32.008 65.1885C31.1289 65.9366 29.9518 66.35 28.3861 66.35V67.35V68.35C30.3204 68.35 31.9899 67.8301 33.3042 66.7115C34.609 65.6011 35.4627 63.9865 35.939 61.9811L34.9661 61.75ZM28.3861 67.35V66.35C27.2383 66.35 26.7392 65.9756 26.489 65.4501L25.5861 65.88L24.6832 66.3099C25.3663 67.7444 26.7339 68.35 28.3861 68.35V67.35ZM25.5861 65.88L26.5116 65.5014C26.1733 64.6744 25.9561 63.0328 25.9561 60.42H24.9561H23.9561C23.9561 63.0339 24.1589 65.0323 24.6605 66.2586L25.5861 65.88ZM24.9561 60.42H25.9561C25.9561 58.9341 25.9794 57.7639 26.0247 56.9026L25.0261 56.85L24.0275 56.7974C23.9795 57.7094 23.9561 58.9192 23.9561 60.42H24.9561ZM25.0261 56.85L26.026 56.8625L26.096 51.2625L25.0961 51.25L24.0962 51.2375L24.0262 56.8375L25.0261 56.85ZM25.0961 51.25H26.0961C26.0961 44.1304 26.8127 36.7017 28.2493 28.9625L27.2661 28.78L26.2829 28.5975C24.8262 36.4449 24.0961 43.9962 24.0961 51.25H25.0961ZM27.2661 28.78L28.2482 28.9682C29.7282 21.2447 31.8707 14.8148 34.6561 9.65503L33.7761 9.18L32.8961 8.70497C29.9882 14.0919 27.7907 20.7286 26.284 28.5918L27.2661 28.78ZM33.7761 9.18L34.6546 9.65777C37.4706 4.48001 40.6561 2.2 44.1361 2.2V1.2V0.199997C39.5894 0.199997 35.8683 3.23998 32.8976 8.70222L33.7761 9.18ZM44.1361 1.2V2.2C45.9335 2.2 47.3638 2.95473 48.4969 4.57346L49.3161 4L50.1353 3.42653C48.6551 1.31193 46.632 0.199997 44.1361 0.199997V1.2ZM49.3161 4L48.5136 4.5967C49.7052 6.1992 50.3461 8.35115 50.3461 11.14H51.3461H52.3461C52.3461 8.04884 51.6336 5.44079 50.1186 3.4033L49.3161 4ZM51.3461 11.14H50.3461C50.3461 15.6534 49.0286 20.3907 46.3367 25.364L47.2161 25.84L48.0955 26.316C50.9102 21.116 52.3461 16.0533 52.3461 11.14H51.3461ZM47.2161 25.84L46.3385 25.3606C43.6399 30.3004 39.2196 36.136 33.0392 42.874L33.7761 43.55L34.513 44.226C40.746 37.4307 45.2856 31.4596 48.0937 26.3194L47.2161 25.84ZM33.7761 43.55L32.7778 43.4924C32.6366 45.9393 32.5661 48.4552 32.5661 51.04H33.5661H34.5661C34.5661 48.4915 34.6356 46.0141 34.7744 43.6076L33.7761 43.55ZM33.5661 51.04L34.4983 51.4019C36.0164 47.4916 37.6795 44.3605 39.4743 41.9824L38.6761 41.38L37.8779 40.7776C35.9394 43.3462 34.1958 46.655 32.6339 50.6781L33.5661 51.04ZM38.6761 41.38L39.4725 41.9847C41.3427 39.5216 43.1173 37.8344 44.7841 36.8514L44.2761 35.99L43.7681 35.1286C41.7949 36.2923 39.8362 38.1984 37.8797 40.7753L38.6761 41.38ZM44.2761 35.99L44.7746 36.8569C46.547 35.8378 48.0771 35.38 49.3861 35.38V34.38V33.38C47.6151 33.38 45.7386 33.9956 43.7776 35.1231L44.2761 35.99ZM49.3861 34.38V35.38C50.7486 35.38 51.5868 35.72 52.0915 36.2246C52.5961 36.7293 52.9361 37.5675 52.9361 38.93H53.9361H54.9361C54.9361 37.2592 54.5177 35.8224 53.5057 34.8104C52.4937 33.7984 51.0569 33.38 49.3861 33.38V34.38ZM53.9361 38.93H52.9361C52.9361 40.6289 52.4471 43.8203 51.4186 48.5892L52.3961 48.8L53.3736 49.0108C54.3984 44.2597 54.9361 40.8711 54.9361 38.93H53.9361ZM52.3961 48.8L51.4191 48.5866C50.5374 52.6239 50.0661 55.4159 50.0661 56.85H51.0661H52.0661C52.0661 55.6708 52.4814 53.0961 53.3731 49.0134L52.3961 48.8ZM51.0661 56.85H50.0661C50.0661 57.8743 50.2464 58.8231 50.764 59.537C51.3248 60.3105 52.1625 60.65 53.0961 60.65V59.65V58.65C52.6764 58.65 52.499 58.5228 52.3832 58.363C52.2241 58.1436 52.0661 57.6923 52.0661 56.85H51.0661ZM53.0961 59.65V60.65C54.4071 60.65 55.7398 59.8825 57.0505 58.7174L56.3861 57.97L55.7217 57.2226C54.5124 58.2975 53.6518 58.65 53.0961 58.65V59.65ZM56.3861 57.97L57.0521 58.7159C58.4141 57.4999 60.178 55.5884 62.3332 53.0116L61.5661 52.37L60.799 51.7284C58.6609 54.2849 56.9714 56.1068 55.7201 57.2241L56.3861 57.97ZM61.5661 52.37L62.3254 53.0208C62.7428 52.5337 63.1138 52.39 63.4561 52.39V51.39V50.39C62.3984 50.39 61.5094 50.8996 60.8068 51.7192L61.5661 52.37ZM42.6661 8.13V7.13C41.7551 7.13 41.0521 7.76908 40.5435 8.43029C40.0006 9.13599 39.4715 10.1362 38.9451 11.3804L39.8661 11.77L40.7871 12.1596C41.2874 10.9771 41.7382 10.1573 42.1287 9.64971C42.5534 9.09758 42.737 9.13 42.6661 9.13V8.13ZM39.8661 11.77L38.9479 11.3739C37.8887 13.8293 36.8696 17.1353 35.8834 21.2679L36.8561 21.5L37.8288 21.7321C38.8026 17.6513 39.7902 14.4707 40.7843 12.1661L39.8661 11.77ZM36.8561 21.5L35.8815 21.276C34.9396 25.3733 34.1642 29.8401 33.554 34.6748L34.5461 34.8L35.5382 34.9252C36.1414 30.1466 36.9059 25.7467 37.8307 21.724L36.8561 21.5ZM34.5461 34.8L35.3083 35.4473C38.2591 31.973 40.6879 28.1872 42.5928 24.0917L41.6861 23.67L40.7794 23.2483C38.9509 27.1795 36.6197 30.8137 33.7839 34.1527L34.5461 34.8ZM41.6861 23.67L42.5888 24.1003C44.5443 19.9985 45.5561 16.2092 45.5561 12.75H44.5561H43.5561C43.5561 15.8241 42.6546 19.3148 40.7834 23.2397L41.6861 23.67ZM44.5561 12.75H45.5561C45.5561 11.2084 45.3911 9.91139 44.9908 8.93925L44.0661 9.32L43.1414 9.70074C43.3945 10.3153 43.5561 11.3049 43.5561 12.75H44.5561ZM44.0661 9.32L44.9908 8.93924C44.5855 7.95507 43.8455 7.13 42.6661 7.13V8.13V9.13C42.7297 9.13 42.769 9.14317 42.8234 9.18944C42.8966 9.25166 43.0159 9.39581 43.1414 9.70074L44.0661 9.32ZM88.8628 52.23L87.999 52.7339L88.0141 52.7598L88.0308 52.7847L88.8628 52.23ZM88.0928 58.88L87.336 58.2264L87.3281 58.2355L87.3204 58.2449L88.0928 58.88ZM80.7428 64.69L80.255 63.817L80.2495 63.8202L80.7428 64.69ZM59.2528 63.36L59.9537 62.6468L59.2528 63.36ZM57.2228 43.48L58.1203 43.9211L58.1232 43.9152L57.2228 43.48ZM62.8228 36.83L62.2644 36.0004L62.257 36.0055L62.8228 36.83ZM77.5228 36.83L76.8157 37.5371L76.8208 37.5422L76.826 37.5473L77.5228 36.83ZM76.4728 51.67L75.7657 50.9629L76.4728 51.67ZM64.7828 57.13L64.5442 56.1589L63.2851 56.4683L63.9042 57.6075L64.7828 57.13ZM78.5728 58.18L79.0506 59.0585L79.0559 59.0556L78.5728 58.18ZM85.5728 52.37L84.8136 51.7192L84.8071 51.7267L84.8009 51.7343L85.5728 52.37ZM65.4128 44.25L64.5571 43.7326L64.5526 43.7399L64.5483 43.7474L65.4128 44.25ZM63.6628 51.67H62.6628V52.9351L63.8937 52.643L63.6628 51.67ZM70.1728 48.73L69.5371 47.9581L70.1728 48.73ZM71.7828 42.08L71.0146 42.7202L71.0436 42.755L71.0757 42.7871L71.7828 42.08ZM87.4628 51.39V52.39C87.685 52.39 87.8366 52.4554 87.999 52.7339L88.8628 52.23L89.7266 51.7261C89.2357 50.8846 88.454 50.39 87.4628 50.39V51.39ZM88.8628 52.23L88.0308 52.7847C88.2552 53.1214 88.4228 53.672 88.4228 54.54H89.4228H90.4228C90.4228 53.448 90.2171 52.4586 89.6949 51.6753L88.8628 52.23ZM89.4228 54.54H88.4228C88.4228 56.2569 88.0155 57.4396 87.336 58.2264L88.0928 58.88L88.8496 59.5336C89.9435 58.267 90.4228 56.5564 90.4228 54.54H89.4228ZM88.0928 58.88L87.3204 58.2449C85.6947 60.2221 83.354 62.0853 80.255 63.8171L80.7428 64.69L81.2306 65.5629C84.4783 63.7481 87.0376 61.7379 88.8652 59.5151L88.0928 58.88ZM80.7428 64.69L80.2495 63.8202C77.2732 65.5082 74.0832 66.35 70.6628 66.35V67.35V68.35C74.4291 68.35 77.9591 67.4185 81.2362 65.5598L80.7428 64.69ZM70.6628 67.35V66.35C65.9455 66.35 62.4234 65.0739 59.9537 62.6468L59.2528 63.36L58.5519 64.0732C61.4955 66.9661 65.5802 68.35 70.6628 68.35V67.35ZM59.2528 63.36L59.9537 62.6468C57.4787 60.2144 56.1928 56.8541 56.1928 52.44H55.1928H54.1928C54.1928 57.2659 55.6136 61.1856 58.5519 64.0732L59.2528 63.36ZM55.1928 52.44H56.1928C56.1928 49.3652 56.8377 46.5304 58.1203 43.9211L57.2228 43.48L56.3254 43.0389C54.9012 45.9363 54.1928 49.0748 54.1928 52.44H55.1928ZM57.2228 43.48L58.1232 43.9152C59.4068 41.2593 61.1632 39.1818 63.3887 37.6545L62.8228 36.83L62.257 36.0055C59.7225 37.7449 57.7455 40.1007 56.3225 43.0448L57.2228 43.48ZM62.8228 36.83L63.3812 37.6596C65.6365 36.1416 68.1706 35.38 71.0128 35.38V34.38V33.38C67.7883 33.38 64.8625 34.2517 62.2644 36.0004L62.8228 36.83ZM71.0128 34.38V35.38C73.5034 35.38 75.402 36.1234 76.8157 37.5371L77.5228 36.83L78.2299 36.1229C76.377 34.2699 73.9356 33.38 71.0128 33.38V34.38ZM77.5228 36.83L76.826 37.5473C78.226 38.9072 78.9728 40.7963 78.9728 43.34H79.9728H80.9728C80.9728 40.377 80.0863 37.9261 78.2196 36.1127L77.5228 36.83ZM79.9728 43.34H78.9728C78.9728 46.2875 77.9167 48.8119 75.7657 50.9629L76.4728 51.67L77.1799 52.3771C79.6956 49.8614 80.9728 46.8325 80.9728 43.34H79.9728ZM76.4728 51.67L75.7657 50.9629C73.6725 53.0561 69.9899 54.8205 64.5442 56.1589L64.7828 57.13L65.0215 58.1011C70.5891 56.7328 74.6998 54.8573 77.1799 52.3771L76.4728 51.67ZM64.7828 57.13L63.9042 57.6075C65.3046 60.1843 67.9417 61.35 71.4328 61.35V60.35V59.35C68.3905 59.35 66.5944 58.3691 65.6614 56.6525L64.7828 57.13ZM71.4328 60.35V61.35C73.7572 61.35 76.3046 60.5519 79.0506 59.0585L78.5728 58.18L78.095 57.3015C75.5211 58.7014 73.3084 59.35 71.4328 59.35V60.35ZM78.5728 58.18L79.0559 59.0556C81.8728 57.5014 84.3043 55.4834 86.3447 53.0057L85.5728 52.37L84.8009 51.7343C82.9214 54.0165 80.6861 55.8719 78.0897 57.3044L78.5728 58.18ZM85.5728 52.37L86.3321 53.0208C86.7495 52.5337 87.1205 52.39 87.4628 52.39V51.39V50.39C86.4051 50.39 85.5161 50.8996 84.8136 51.7192L85.5728 52.37ZM69.8228 41.24V40.24C67.6254 40.24 65.8788 41.5466 64.5571 43.7326L65.4128 44.25L66.2685 44.7674C67.3735 42.9401 68.5669 42.24 69.8228 42.24V41.24ZM65.4128 44.25L64.5483 43.7474C63.2748 45.9377 62.6628 48.5465 62.6628 51.53H63.6628H64.6628C64.6628 48.8201 65.2175 46.5756 66.2773 44.7526L65.4128 44.25ZM63.6628 51.53H62.6628V51.67H63.6628H64.6628V51.53H63.6628ZM63.6628 51.67L63.8937 52.643C66.7427 51.9669 69.0683 50.9351 70.8085 49.5019L70.1728 48.73L69.5371 47.9581C68.104 49.1383 66.0896 50.0664 63.4319 50.697L63.6628 51.67ZM70.1728 48.73L70.8085 49.5019C72.5772 48.0454 73.5528 46.2633 73.5528 44.18H72.5528H71.5528C71.5528 45.55 70.9418 46.8013 69.5371 47.9581L70.1728 48.73ZM72.5528 44.18H73.5528C73.5528 43.0906 73.2308 42.1138 72.4899 41.3729L71.7828 42.08L71.0757 42.7871C71.3615 43.0729 71.5528 43.4961 71.5528 44.18H72.5528ZM71.7828 42.08L72.551 41.4398C71.8643 40.6157 70.9091 40.24 69.8228 40.24V41.24V42.24C70.4165 42.24 70.768 42.4243 71.0146 42.7202L71.7828 42.08ZM112.843 52.23L111.98 52.7339L111.995 52.7598L112.011 52.7847L112.843 52.23ZM112.073 58.88L111.316 58.2264L111.309 58.2355L111.301 58.2449L112.073 58.88ZM104.723 64.69L104.235 63.817L104.23 63.8202L104.723 64.69ZM83.2333 63.36L83.9342 62.6468L83.2333 63.36ZM81.2033 43.48L82.1007 43.9211L82.1036 43.9152L81.2033 43.48ZM86.8033 36.83L86.2449 36.0004L86.2374 36.0055L86.8033 36.83ZM101.503 36.83L100.796 37.5371L100.801 37.5422L100.806 37.5473L101.503 36.83ZM100.453 51.67L99.7462 50.9629L100.453 51.67ZM88.7633 57.13L88.5246 56.1589L87.2655 56.4683L87.8847 57.6075L88.7633 57.13ZM102.553 58.18L103.031 59.0585L103.036 59.0556L102.553 58.18ZM109.553 52.37L108.794 51.7192L108.788 51.7267L108.781 51.7343L109.553 52.37ZM89.3933 44.25L88.5376 43.7326L88.5331 43.7399L88.5288 43.7474L89.3933 44.25ZM87.6433 51.67H86.6433V52.9351L87.8742 52.643L87.6433 51.67ZM94.1533 48.73L93.5176 47.9581L94.1533 48.73ZM95.7633 42.08L94.9951 42.7202L95.0241 42.755L95.0562 42.7871L95.7633 42.08ZM111.443 51.39V52.39C111.665 52.39 111.817 52.4554 111.98 52.7339L112.843 52.23L113.707 51.7261C113.216 50.8846 112.434 50.39 111.443 50.39V51.39ZM112.843 52.23L112.011 52.7847C112.236 53.1214 112.403 53.672 112.403 54.54H113.403H114.403C114.403 53.448 114.198 52.4586 113.675 51.6753L112.843 52.23ZM113.403 54.54H112.403C112.403 56.2569 111.996 57.4396 111.316 58.2264L112.073 58.88L112.83 59.5336C113.924 58.267 114.403 56.5564 114.403 54.54H113.403ZM112.073 58.88L111.301 58.2449C109.675 60.2221 107.334 62.0853 104.235 63.8171L104.723 64.69L105.211 65.5629C108.459 63.7481 111.018 61.7379 112.846 59.5151L112.073 58.88ZM104.723 64.69L104.23 63.8202C101.254 65.5082 98.0636 66.35 94.6433 66.35V67.35V68.35C98.4096 68.35 101.94 67.4185 105.217 65.5598L104.723 64.69ZM94.6433 67.35V66.35C89.9259 66.35 86.4039 65.0739 83.9342 62.6468L83.2333 63.36L82.5323 64.0732C85.476 66.9661 89.5606 68.35 94.6433 68.35V67.35ZM83.2333 63.36L83.9342 62.6468C81.4591 60.2144 80.1733 56.8541 80.1733 52.44H79.1733H78.1733C78.1733 57.2659 79.5941 61.1856 82.5323 64.0732L83.2333 63.36ZM79.1733 52.44H80.1733C80.1733 49.3652 80.8182 46.5304 82.1007 43.9211L81.2033 43.48L80.3058 43.0389C78.8817 45.9363 78.1733 49.0748 78.1733 52.44H79.1733ZM81.2033 43.48L82.1036 43.9152C83.3873 41.2593 85.1436 39.1818 87.3691 37.6545L86.8033 36.83L86.2374 36.0055C83.7029 37.7449 81.7259 40.1007 80.3029 43.0448L81.2033 43.48ZM86.8033 36.83L87.3617 37.6596C89.6169 36.1416 92.1511 35.38 94.9933 35.38V34.38V33.38C91.7688 33.38 88.843 34.2517 86.2449 36.0004L86.8033 36.83ZM94.9933 34.38V35.38C97.4839 35.38 99.3825 36.1234 100.796 37.5371L101.503 36.83L102.21 36.1229C100.357 34.2699 97.916 33.38 94.9933 33.38V34.38ZM101.503 36.83L100.806 37.5473C102.206 38.9072 102.953 40.7963 102.953 43.34H103.953H104.953C104.953 40.377 104.067 37.9261 102.2 36.1127L101.503 36.83ZM103.953 43.34H102.953C102.953 46.2875 101.897 48.8119 99.7462 50.9629L100.453 51.67L101.16 52.3771C103.676 49.8614 104.953 46.8325 104.953 43.34H103.953ZM100.453 51.67L99.7462 50.9629C97.653 53.0561 93.9703 54.8205 88.5246 56.1589L88.7633 57.13L89.0019 58.1011C94.5696 56.7328 98.6802 54.8573 101.16 52.3771L100.453 51.67ZM88.7633 57.13L87.8847 57.6075C89.2851 60.1843 91.9222 61.35 95.4133 61.35V60.35V59.35C92.371 59.35 90.5748 58.3691 89.6419 56.6525L88.7633 57.13ZM95.4133 60.35V61.35C97.7377 61.35 100.285 60.5519 103.031 59.0585L102.553 58.18L102.076 57.3015C99.5015 58.7014 97.2888 59.35 95.4133 59.35V60.35ZM102.553 58.18L103.036 59.0556C105.853 57.5014 108.285 55.4834 110.325 53.0057L109.553 52.37L108.781 51.7343C106.902 54.0165 104.667 55.8719 102.07 57.3044L102.553 58.18ZM109.553 52.37L110.313 53.0208C110.73 52.5337 111.101 52.39 111.443 52.39V51.39V50.39C110.386 50.39 109.497 50.8996 108.794 51.7192L109.553 52.37ZM93.8033 41.24V40.24C91.6059 40.24 89.8593 41.5466 88.5376 43.7326L89.3933 44.25L90.249 44.7674C91.3539 42.9401 92.5474 42.24 93.8033 42.24V41.24ZM89.3933 44.25L88.5288 43.7474C87.2553 45.9377 86.6433 48.5465 86.6433 51.53H87.6433H88.6433C88.6433 48.8201 89.1979 46.5756 90.2578 44.7526L89.3933 44.25ZM87.6433 51.53H86.6433V51.67H87.6433H88.6433V51.53H87.6433ZM87.6433 51.67L87.8742 52.643C90.7232 51.9669 93.0487 50.9351 94.789 49.5019L94.1533 48.73L93.5176 47.9581C92.0845 49.1383 90.07 50.0664 87.4124 50.697L87.6433 51.67ZM94.1533 48.73L94.789 49.5019C96.5576 48.0454 97.5333 46.2633 97.5333 44.18H96.5333H95.5333C95.5333 45.55 94.9223 46.8013 93.5176 47.9581L94.1533 48.73ZM96.5333 44.18H97.5333C97.5333 43.0906 97.2113 42.1138 96.4704 41.3729L95.7633 42.08L95.0562 42.7871C95.342 43.0729 95.5333 43.4961 95.5333 44.18H96.5333ZM95.7633 42.08L96.5315 41.4398C95.8447 40.6157 94.8896 40.24 93.8033 40.24V41.24V42.24C94.397 42.24 94.7485 42.4243 94.9951 42.7202L95.7633 42.08ZM105.394 64.55L104.457 64.9011L104.461 64.9113L104.465 64.9214L105.394 64.55ZM106.934 38.3L107.887 38.6015L107.889 38.5964L106.934 38.3ZM108.964 35.36L109.509 36.1985L109.518 36.192L108.964 35.36ZM114.494 41.1L113.528 40.8413L113.526 40.8493L113.524 40.8575L114.494 41.1ZM112.674 51.18L111.678 51.0895L113.607 51.5383L112.674 51.18ZM117.854 41.38L117.057 40.7753L117.854 41.38ZM123.454 35.99L122.955 35.123L122.946 35.1286L123.454 35.99ZM132.484 43.34L133.464 43.5361L133.466 43.5266L133.468 43.5172L132.484 43.34ZM138.714 46.21L138.007 45.5029L138.714 46.21ZM142.004 46.14L141.14 46.6439L141.165 46.6874L141.195 46.7282L142.004 46.14ZM141.164 52.3L141.883 52.9946L141.888 52.9897L141.164 52.3ZM136.544 55.8L137.019 56.6797L137.027 56.6752L136.544 55.8ZM125.344 55.31L124.637 56.0171L124.643 56.0235L124.65 56.0298L125.344 55.31ZM123.664 48.1L124.644 48.2961L124.654 48.2482L124.659 48.1995L123.664 48.1ZM120.234 47.47L119.428 46.8776L119.425 46.8818L120.234 47.47ZM116.874 53.63L115.957 53.2301L116.874 53.63ZM114.144 61.75L113.173 61.5112L113.17 61.5221L114.144 61.75ZM112.324 66.23L111.574 65.5684L111.571 65.5715L112.324 66.23ZM109.174 67.35V66.35C108.472 66.35 107.93 66.1691 107.494 65.8464C107.05 65.5173 106.646 64.9877 106.322 64.1786L105.394 64.55L104.465 64.9214C104.888 65.979 105.488 66.8494 106.304 67.4536C107.128 68.0642 108.102 68.35 109.174 68.35V67.35ZM105.394 64.55L106.33 64.1989C105.697 62.5103 105.344 59.6764 105.344 55.59H104.344H103.344C103.344 59.7169 103.691 62.8564 104.457 64.9011L105.394 64.55ZM104.344 55.59H105.344C105.344 49.6195 106.193 43.9583 107.887 38.6015L106.934 38.3L105.98 37.9985C104.221 43.5617 103.344 49.4271 103.344 55.59H104.344ZM106.934 38.3L107.889 38.5964C108.259 37.4039 108.82 36.6464 109.509 36.1984L108.964 35.36L108.419 34.5216C107.241 35.287 106.449 36.4895 105.979 38.0036L106.934 38.3ZM108.964 35.36L109.518 36.192C110.274 35.6882 111.407 35.38 113.024 35.38V34.38V33.38C111.187 33.38 109.613 33.7251 108.409 34.5279L108.964 35.36ZM113.024 34.38V35.38C113.937 35.38 114.338 35.5058 114.454 35.578L114.984 34.73L115.514 33.882C114.883 33.4875 113.977 33.38 113.024 33.38V34.38ZM114.984 34.73L114.454 35.578C114.456 35.5797 114.457 35.5801 114.458 35.5819C114.46 35.5844 114.47 35.5963 114.482 35.6256C114.509 35.6889 114.544 35.8217 114.544 36.06H115.544H116.544C116.544 35.2415 116.305 34.3764 115.514 33.882L114.984 34.73ZM115.544 36.06H114.544C114.544 36.3212 114.477 36.8395 114.302 37.676C114.133 38.4904 113.875 39.5437 113.528 40.8413L114.494 41.1L115.46 41.3587C115.812 40.043 116.08 38.9496 116.26 38.084C116.436 37.2405 116.544 36.5455 116.544 36.06H115.544ZM114.494 41.1L113.524 40.8575C113.054 42.7346 112.677 44.3841 112.393 45.8039L113.374 46L114.354 46.1961C114.63 44.8159 115 43.1987 115.464 41.3425L114.494 41.1ZM113.374 46L112.393 45.8039C112.104 47.2503 111.866 49.0148 111.678 51.0895L112.674 51.18L113.67 51.2705C113.854 49.2386 114.084 47.5497 114.354 46.1961L113.374 46ZM112.674 51.18L113.607 51.5383C115.125 47.5838 116.81 44.408 118.65 41.9847L117.854 41.38L117.057 40.7753C115.071 43.392 113.303 46.7495 111.74 50.8217L112.674 51.18ZM117.854 41.38L118.65 41.9847C120.52 39.5216 122.295 37.8344 123.962 36.8514L123.454 35.99L122.946 35.1286C120.973 36.2923 119.014 38.1984 117.057 40.7753L117.854 41.38ZM123.454 35.99L123.952 36.8569C125.725 35.8378 127.255 35.38 128.564 35.38V34.38V33.38C126.793 33.38 124.916 33.9956 122.955 35.1231L123.454 35.99ZM128.564 34.38V35.38C129.926 35.38 130.764 35.72 131.269 36.2246C131.774 36.7293 132.114 37.5675 132.114 38.93H133.114H134.114C134.114 37.2592 133.695 35.8224 132.683 34.8104C131.671 33.7984 130.235 33.38 128.564 33.38V34.38ZM133.114 38.93H132.114C132.114 39.4275 131.925 40.7978 131.5 43.1628L132.484 43.34L133.468 43.5172C133.882 41.2156 134.114 39.6459 134.114 38.93H133.114ZM132.484 43.34L131.503 43.1439C131.315 44.0833 131.173 44.8557 131.076 45.457C130.983 46.0372 130.924 46.5177 130.924 46.84H131.924H132.924C132.924 46.6957 132.957 46.3595 133.051 45.773C133.142 45.2077 133.279 44.4634 133.464 43.5361L132.484 43.34ZM131.924 46.84H130.924C130.924 47.7455 131.08 48.6042 131.548 49.2587C132.059 49.9752 132.828 50.29 133.674 50.29V49.29V48.29C133.353 48.29 133.247 48.1964 133.175 48.0963C133.059 47.9341 132.924 47.5678 132.924 46.84H131.924ZM133.674 49.29V50.29C134.582 50.29 135.512 49.9374 136.435 49.3733C137.366 48.8043 138.362 47.9759 139.421 46.9171L138.714 46.21L138.007 45.5029C137.012 46.4974 136.141 47.209 135.392 47.6667C134.635 48.1293 134.072 48.29 133.674 48.29V49.29ZM138.714 46.21L139.421 46.9171C139.901 46.437 140.291 46.3 140.604 46.3V45.3V44.3C139.61 44.3 138.74 44.7697 138.007 45.5029L138.714 46.21ZM140.604 45.3V46.3C140.826 46.3 140.978 46.3654 141.14 46.6439L142.004 46.14L142.868 45.6361C142.377 44.7946 141.595 44.3 140.604 44.3V45.3ZM142.004 46.14L141.195 46.7282C141.403 47.0147 141.564 47.483 141.564 48.24H142.564H143.564C143.564 47.2236 143.351 46.292 142.812 45.5518L142.004 46.14ZM142.564 48.24H141.564C141.564 49.7836 141.151 50.8636 140.44 51.6103L141.164 52.3L141.888 52.9897C143.043 51.7764 143.564 50.1497 143.564 48.24H142.564ZM141.164 52.3L140.444 51.6054C139.212 52.8818 137.753 53.9892 136.06 54.9248L136.544 55.8L137.027 56.6752C138.881 55.6508 140.502 54.4248 141.883 52.9946L141.164 52.3ZM136.544 55.8L136.068 54.9203C134.487 55.7748 132.807 56.2 131.014 56.2V57.2V58.2C133.14 58.2 135.147 57.6919 137.019 56.6797L136.544 55.8ZM131.014 57.2V56.2C128.704 56.2 127.099 55.6135 126.038 54.5902L125.344 55.31L124.65 56.0298C126.202 57.5265 128.377 58.2 131.014 58.2V57.2ZM125.344 55.31L126.051 54.6029C125.016 53.5678 124.454 52.1395 124.454 50.2H123.454H122.454C122.454 52.5538 123.152 54.5322 124.637 56.0171L125.344 55.31ZM123.454 50.2H124.454C124.454 49.5671 124.517 48.9328 124.644 48.2961L123.664 48.1L122.683 47.9039C122.531 48.6672 122.454 49.4329 122.454 50.2H123.454ZM123.664 48.1L124.659 48.1995C124.751 47.2729 124.804 46.5943 124.804 46.21H123.804H122.804C122.804 46.479 122.763 47.0605 122.669 48.0005L123.664 48.1ZM123.804 46.21H124.804C124.804 45.7531 124.731 45.2334 124.435 44.8035C124.093 44.306 123.569 44.09 123.034 44.09V45.09V46.09C123.041 46.09 122.999 46.091 122.934 46.0598C122.865 46.0264 122.815 45.9773 122.787 45.9365C122.764 45.9023 122.77 45.8946 122.781 45.9434C122.792 45.9921 122.804 46.0774 122.804 46.21H123.804ZM123.034 45.09V44.09C122.324 44.09 121.686 44.477 121.161 44.9231C120.611 45.3908 120.033 46.0546 119.428 46.8776L120.234 47.47L121.039 48.0624C121.601 47.2987 122.073 46.7725 122.456 46.4469C122.865 46.0997 123.043 46.09 123.034 46.09V45.09ZM120.234 47.47L119.425 46.8818C118.248 48.5009 117.094 50.6249 115.957 53.2301L116.874 53.63L117.79 54.0299C118.893 51.5018 119.98 49.5191 121.042 48.0582L120.234 47.47ZM116.874 53.63L115.957 53.2301C114.813 55.8512 113.886 58.6119 113.173 61.5112L114.144 61.75L115.115 61.9888C115.802 59.1947 116.694 56.5422 117.79 54.0299L116.874 53.63ZM114.144 61.75L113.17 61.5221C112.661 63.6975 112.097 64.9754 111.574 65.5684L112.324 66.23L113.074 66.8916C113.95 65.898 114.6 64.1892 115.117 61.9779L114.144 61.75ZM112.324 66.23L111.571 65.5715C111.181 66.0169 110.467 66.35 109.174 66.35V67.35V68.35C110.774 68.35 112.159 67.9364 113.076 66.8885L112.324 66.23ZM134.519 64.48L133.687 65.0347L133.695 65.0462L133.703 65.0575L134.519 64.48ZM133.259 47.61L134.246 47.7692L134.247 47.7668L133.259 47.61ZM135.569 38.3L134.621 37.9838L134.619 37.9878L135.569 38.3ZM137.529 35.29L138.115 36.1007L137.529 35.29ZM143.619 34.87L142.961 35.6226L142.982 35.6416L143.005 35.6594L143.619 34.87ZM143.479 40.12L144.445 40.3809L144.448 40.3668L144.452 40.3526L143.479 40.12ZM142.359 44.81L141.379 44.6139L141.377 44.6229L142.359 44.81ZM141.309 56.71L140.435 57.1956L140.448 57.2182L140.461 57.24L141.309 56.71ZM145.019 55.17L144.226 54.5616L144.219 54.57L144.213 54.5786L145.019 55.17ZM148.379 48.8L147.459 48.4079L147.454 48.4208L148.379 48.8ZM151.879 38.3L152.845 38.5604L152.845 38.5577L151.879 38.3ZM153.559 35.29L152.952 34.4956L152.94 34.5046L152.929 34.5139L153.559 35.29ZM159.299 34.8L158.745 35.632L158.778 35.6545L158.814 35.6742L159.299 34.8ZM158.179 45.79L157.203 45.5721L157.202 45.5763L158.179 45.79ZM156.779 58.95L155.97 59.5382L155.984 59.5568L155.998 59.5747L156.779 58.95ZM161.539 57.97L162.204 58.7174L162.205 58.7159L161.539 57.97ZM166.719 52.37L165.96 51.7192L165.952 51.7284L166.719 52.37ZM170.009 52.23L169.145 52.7339L169.161 52.7598L169.177 52.7847L170.009 52.23ZM169.239 58.88L168.482 58.2264L168.472 58.238L168.463 58.25L169.239 58.88ZM162.729 64.97L162.167 64.143L162.159 64.1484L162.729 64.97ZM149.919 64.76L149.06 65.2711L149.065 65.2796L149.07 65.2879L149.919 64.76ZM148.379 57.48H149.379L147.409 57.2375L148.379 57.48ZM144.809 64.83L145.536 65.5167L145.546 65.5066L144.809 64.83ZM139.699 67.35V66.35C137.965 66.35 136.527 65.5866 135.336 63.9025L134.519 64.48L133.703 65.0575C135.218 67.2001 137.233 68.35 139.699 68.35V67.35ZM134.519 64.48L135.351 63.9253C134.177 62.1637 133.559 59.9413 133.559 57.2H132.559H131.559C131.559 60.2454 132.248 62.8763 133.687 65.0347L134.519 64.48ZM132.559 57.2H133.559C133.559 53.7434 133.79 50.601 134.246 47.7692L133.259 47.61L132.272 47.4508C131.795 50.4057 131.559 53.6566 131.559 57.2H132.559ZM133.259 47.61L134.247 47.7668C134.704 44.8868 135.46 41.8357 136.519 38.6122L135.569 38.3L134.619 37.9878C133.532 41.2976 132.748 44.4532 132.272 47.4532L133.259 47.61ZM135.569 38.3L136.518 38.6162C136.945 37.3336 137.503 36.5425 138.115 36.1007L137.529 35.29L136.944 34.4793C135.875 35.2508 135.126 36.4663 134.621 37.9838L135.569 38.3ZM137.529 35.29L138.115 36.1007C138.698 35.6797 139.769 35.38 141.519 35.38V34.38V33.38C139.63 33.38 138.041 33.687 136.944 34.4793L137.529 35.29ZM141.519 34.38V35.38C142.521 35.38 142.885 35.556 142.961 35.6226L143.619 34.87L144.278 34.1174C143.607 33.5306 142.571 33.38 141.519 33.38V34.38ZM143.619 34.87L143.005 35.6594C143.126 35.7534 143.249 35.9173 143.249 36.34H144.249H145.249C145.249 35.456 144.952 34.64 144.233 34.0806L143.619 34.87ZM144.249 36.34H143.249C143.249 36.3361 143.249 36.3571 143.243 36.4143C143.237 36.4679 143.228 36.5394 143.213 36.631C143.184 36.8146 143.139 37.058 143.077 37.3654C142.952 37.9793 142.762 38.8185 142.507 39.8874L143.479 40.12L144.452 40.3526C144.71 39.2748 144.905 38.4107 145.037 37.7646C145.159 37.1616 145.249 36.6475 145.249 36.34H144.249ZM143.479 40.12L142.514 39.8591C142.043 41.6021 141.664 43.1875 141.379 44.6139L142.359 44.81L143.34 45.0061C143.615 43.6325 143.982 42.0912 144.445 40.3809L143.479 40.12ZM142.359 44.81L141.377 44.6229C140.447 49.5058 139.959 52.8661 139.959 54.61H140.959H141.959C141.959 53.0872 142.405 49.9142 143.342 44.9971L142.359 44.81ZM140.959 54.61H139.959C139.959 55.6176 140.07 56.5389 140.435 57.1956L141.309 56.71L142.183 56.2244C142.082 56.0411 141.959 55.5624 141.959 54.61H140.959ZM141.309 56.71L140.461 57.24C140.91 57.9585 141.638 58.27 142.429 58.27V57.27V56.27C142.293 56.27 142.231 56.2453 142.211 56.2356C142.199 56.2291 142.182 56.2196 142.157 56.18L141.309 56.71ZM142.429 57.27V58.27C143.109 58.27 143.72 57.9366 144.232 57.5218C144.756 57.0964 145.287 56.4964 145.826 55.7614L145.019 55.17L144.213 54.5786C143.725 55.2436 143.311 55.6936 142.972 55.9682C142.62 56.2534 142.449 56.27 142.429 56.27V57.27ZM145.019 55.17L145.813 55.7784C146.966 54.2748 148.125 52.0567 149.305 49.1792L148.379 48.8L147.454 48.4208C146.3 51.2366 145.22 53.2651 144.226 54.5616L145.019 55.17ZM148.379 48.8L149.299 49.1921C150.536 46.2898 151.717 42.7427 152.845 38.5604L151.879 38.3L150.914 38.0396C149.802 42.164 148.649 45.6169 147.459 48.4079L148.379 48.8ZM151.879 38.3L152.845 38.5577C153.19 37.264 153.671 36.4877 154.19 36.0661L153.559 35.29L152.929 34.5139C151.954 35.3056 151.315 36.536 150.913 38.0423L151.879 38.3ZM153.559 35.29L154.167 36.0844C154.714 35.6661 155.627 35.38 157.059 35.38V34.38V33.38C155.412 33.38 153.991 33.7006 152.952 34.4956L153.559 35.29ZM157.059 34.38V35.38C158.113 35.38 158.592 35.5303 158.745 35.632L159.299 34.8L159.854 33.9679C159.167 33.5097 158.152 33.38 157.059 33.38V34.38ZM159.299 34.8L158.814 35.6742C158.823 35.6792 158.837 35.6849 158.86 35.7354C158.89 35.8015 158.929 35.9425 158.929 36.2H159.929H160.929C160.929 35.3207 160.656 34.4097 159.785 33.9258L159.299 34.8ZM159.929 36.2H158.929C158.929 36.6795 158.801 37.6845 158.508 39.293C158.22 40.873 157.785 42.9645 157.203 45.5721L158.179 45.79L159.155 46.0079C159.74 43.3888 160.18 41.2687 160.475 39.652C160.765 38.0639 160.929 36.8872 160.929 36.2H159.929ZM158.179 45.79L157.202 45.5763C156.548 48.569 156.055 50.9985 155.725 52.8605C155.399 54.6967 155.219 56.0501 155.219 56.85H156.219H157.219C157.219 56.2499 157.366 55.06 157.694 53.2095C158.017 51.3848 158.504 48.9844 159.156 46.0037L158.179 45.79ZM156.219 56.85H155.219C155.219 57.8664 155.432 58.798 155.97 59.5382L156.779 58.95L157.588 58.3618C157.38 58.0753 157.219 57.6069 157.219 56.85H156.219ZM156.779 58.95L155.998 59.5747C156.565 60.2827 157.344 60.65 158.249 60.65V59.65V58.65C157.941 58.65 157.74 58.5506 157.56 58.3253L156.779 58.95ZM158.249 59.65V60.65C159.56 60.65 160.893 59.8825 162.204 58.7174L161.539 57.97L160.875 57.2226C159.666 58.2975 158.805 58.65 158.249 58.65V59.65ZM161.539 57.97L162.205 58.7159C163.567 57.4999 165.331 55.5884 167.486 53.0116L166.719 52.37L165.952 51.7284C163.814 54.2849 162.125 56.1068 160.873 57.2241L161.539 57.97ZM166.719 52.37L167.478 53.0208C167.896 52.5337 168.267 52.39 168.609 52.39V51.39V50.39C167.552 50.39 166.663 50.8996 165.96 51.7192L166.719 52.37ZM168.609 51.39V52.39C168.831 52.39 168.983 52.4554 169.145 52.7339L170.009 52.23L170.873 51.7261C170.382 50.8846 169.6 50.39 168.609 50.39V51.39ZM170.009 52.23L169.177 52.7847C169.402 53.1214 169.569 53.672 169.569 54.54H170.569H171.569C171.569 53.448 171.363 52.4586 170.841 51.6753L170.009 52.23ZM170.569 54.54H169.569C169.569 56.2569 169.162 57.4396 168.482 58.2264L169.239 58.88L169.996 59.5336C171.09 58.267 171.569 56.5564 171.569 54.54H170.569ZM169.239 58.88L168.463 58.25C166.51 60.6572 164.41 62.6178 162.167 64.1431L162.729 64.97L163.292 65.7969C165.715 64.1489 167.955 62.0495 170.016 59.51L169.239 58.88ZM162.729 64.97L162.159 64.1484C160.05 65.6122 157.638 66.35 154.889 66.35V67.35V68.35C158.021 68.35 160.836 67.5012 163.299 65.7916L162.729 64.97ZM154.889 67.35V66.35C152.953 66.35 151.638 65.6312 150.769 64.2321L149.919 64.76L149.07 65.2879C150.347 67.3422 152.346 68.35 154.889 68.35V67.35ZM149.919 64.76L150.779 64.2489C149.882 62.7401 149.379 60.5183 149.379 57.48H148.379H147.379C147.379 60.695 147.903 63.3265 149.06 65.2711L149.919 64.76ZM148.379 57.48L147.409 57.2375C146.641 60.3094 145.511 62.5886 144.073 64.1534L144.809 64.83L145.546 65.5066C147.281 63.6181 148.531 60.9973 149.349 57.7225L148.379 57.48ZM144.809 64.83L144.082 64.1434C142.63 65.6805 141.174 66.35 139.699 66.35V67.35V68.35C141.864 68.35 143.815 67.3394 145.536 65.5166L144.809 64.83ZM186.523 56.15L185.636 55.6879L185.634 55.6926L186.523 56.15ZM179.733 64.13L179.148 63.3189L179.142 63.3236L179.733 64.13ZM170.703 67.35L170.674 66.3504L169.766 66.3767L169.705 67.2828L170.703 67.35ZM166.573 89.89L165.631 89.5541L165.63 89.5564L166.573 89.89ZM152.853 72.67L151.908 72.3429L151.907 72.3451L152.853 72.67ZM162.583 52.58L163.441 53.0937L163.583 52.8565V52.58H162.583ZM162.443 38.37L161.444 38.4045L161.444 38.4051L162.443 38.37ZM164.053 35.15L164.631 35.966L164.053 35.15ZM170.353 34.59L169.646 35.2971L169.685 35.3363L169.729 35.3709L170.353 34.59ZM171.123 36.9H172.123V36.88L172.122 36.86L171.123 36.9ZM171.193 39.49L170.197 39.573L170.405 42.0758L171.974 40.1147L171.193 39.49ZM175.603 35.5L176.084 36.3768L176.095 36.3709L176.105 36.3648L175.603 35.5ZM186.593 37.39L185.804 38.004L185.812 38.0147L186.593 37.39ZM171.053 60.63L170.054 60.59L170.002 61.888L171.27 61.6062L171.053 60.63ZM175.673 57.9L174.955 57.2042L174.955 57.2046L175.673 57.9ZM179.103 52.44L180.034 52.8044L180.037 52.7976L179.103 52.44ZM179.523 42.43L178.723 43.03L178.733 43.0425L178.742 43.0547L179.523 42.43ZM171.193 46.63L170.363 46.0728L170.2 46.3153L170.193 46.6073L171.193 46.63ZM160.833 83.87L159.845 83.7179L159.845 83.7192L160.833 83.87ZM162.443 63.43L163.443 63.4586L161.525 63.035L162.443 63.43ZM157.683 76.8L156.719 76.5351L157.683 76.8ZM156.493 90.94L157.418 90.5592L157.409 90.5365L157.398 90.5142L156.493 90.94ZM189.113 45.65H188.113C188.113 49.1735 187.29 52.5152 185.636 55.6879L186.523 56.15L187.41 56.6121C189.21 53.1581 190.113 49.4998 190.113 45.65H189.113ZM186.523 56.15L185.634 55.6926C184.023 58.8258 181.861 61.3622 179.148 63.319L179.733 64.13L180.318 64.941C183.299 62.7911 185.664 60.0075 187.412 56.6073L186.523 56.15ZM179.733 64.13L179.142 63.3236C176.492 65.2668 173.676 66.2634 170.674 66.3504L170.703 67.35L170.732 68.3496C174.171 68.2499 177.374 67.0998 180.325 64.9364L179.733 64.13ZM170.703 67.35L169.705 67.2828C169.103 76.2323 167.737 83.6481 165.631 89.5541L166.573 89.89L167.515 90.2259C169.702 84.0919 171.09 76.4811 171.701 67.4172L170.703 67.35ZM166.573 89.89L165.63 89.5564C163.534 95.4803 160.633 97.99 157.123 97.99V98.99V99.99C161.92 99.99 165.319 96.433 167.516 90.2236L166.573 89.89ZM157.123 98.99V97.99C154.878 97.99 153.353 97.2012 152.355 95.7053L151.523 96.26L150.691 96.8147C152.121 98.9588 154.328 99.99 157.123 99.99V98.99ZM151.523 96.26L152.355 95.7053C151.292 94.1101 150.703 91.8107 150.703 88.7H149.703H148.703C148.703 92.0293 149.328 94.7699 150.691 96.8147L151.523 96.26ZM149.703 88.7H150.703C150.703 84.2726 151.721 79.0433 153.799 72.9949L152.853 72.67L151.907 72.3451C149.785 78.5233 148.703 83.9808 148.703 88.7H149.703ZM152.853 72.67L153.798 72.9971C155.87 67.0127 159.079 60.3794 163.441 53.0937L162.583 52.58L161.725 52.0663C157.314 59.434 154.037 66.1939 151.908 72.3429L152.853 72.67ZM162.583 52.58H163.583C163.583 45.7675 163.537 41.0146 163.443 38.3349L162.443 38.37L161.444 38.4051C161.536 41.0454 161.583 45.7659 161.583 52.58H162.583ZM162.443 38.37L163.443 38.3355C163.408 37.324 163.781 36.568 164.631 35.966L164.053 35.15L163.475 34.334C162.085 35.3186 161.385 36.7093 161.444 38.4045L162.443 38.37ZM164.053 35.15L164.631 35.966C165.548 35.317 166.733 34.96 168.253 34.96V33.96V32.96C166.413 32.96 164.799 33.3963 163.475 34.334L164.053 35.15ZM168.253 33.96V34.96C169.132 34.96 169.504 35.1552 169.646 35.2971L170.353 34.59L171.06 33.8829C170.362 33.1848 169.335 32.96 168.253 32.96V33.96ZM170.353 34.59L169.729 35.3709C169.829 35.4512 170.079 35.8152 170.124 36.94L171.123 36.9L172.122 36.86C172.074 35.6515 171.811 34.4755 170.978 33.8091L170.353 34.59ZM171.123 36.9H170.123C170.123 38.0716 170.146 38.9695 170.197 39.573L171.193 39.49L172.19 39.407C172.147 38.8905 172.123 38.0618 172.123 36.9H171.123ZM171.193 39.49L171.974 40.1147C173.419 38.3086 174.793 37.085 176.084 36.3768L175.603 35.5L175.122 34.6232C173.52 35.5017 171.954 36.9381 170.412 38.8653L171.193 39.49ZM175.603 35.5L176.105 36.3648C177.403 35.6111 178.771 35.24 180.223 35.24V34.24V33.24C178.409 33.24 176.696 33.7089 175.101 34.6352L175.603 35.5ZM180.223 34.24V35.24C182.521 35.24 184.356 36.1424 185.804 38.0039L186.593 37.39L187.383 36.7761C185.564 34.4376 183.152 33.24 180.223 33.24V34.24ZM186.593 37.39L185.812 38.0147C187.316 39.8946 188.113 42.4087 188.113 45.65H189.113H190.113C190.113 42.078 189.23 39.0854 187.374 36.7653L186.593 37.39ZM171.053 60.63L171.27 61.6062C173.172 61.1836 174.879 60.1584 176.392 58.5954L175.673 57.9L174.955 57.2046C173.667 58.535 172.295 59.3298 170.836 59.6538L171.053 60.63ZM175.673 57.9L176.391 58.5958C177.94 56.9974 179.151 55.0611 180.034 52.8044L179.103 52.44L178.172 52.0756C177.375 54.1122 176.3 55.816 174.955 57.2042L175.673 57.9ZM179.103 52.44L180.037 52.7976C180.921 50.4886 181.363 48.0806 181.363 45.58H180.363H179.363C179.363 47.8394 178.965 50.0047 178.169 52.0824L179.103 52.44ZM180.363 45.58H181.363C181.363 44.0732 181.066 42.758 180.304 41.8053L179.523 42.43L178.742 43.0547C179.1 43.502 179.363 44.2868 179.363 45.58H180.363ZM179.523 42.43L180.323 41.83C179.574 40.8315 178.531 40.31 177.283 40.31V41.31V42.31C177.902 42.31 178.352 42.5351 178.723 43.03L179.523 42.43ZM177.283 41.31V40.31C176.092 40.31 174.936 40.9318 173.843 41.8869C172.735 42.8544 171.577 44.2639 170.363 46.0728L171.193 46.63L172.024 47.1872C173.19 45.4494 174.236 44.1989 175.159 43.3931C176.095 42.5749 176.794 42.31 177.283 42.31V41.31ZM171.193 46.63L170.193 46.6073C170.147 48.6722 170.123 51.6913 170.123 55.66H171.123H172.123C172.123 51.6953 172.147 48.6944 172.193 46.6527L171.193 46.63ZM171.123 55.66H170.123C170.123 57.8024 170.1 59.4434 170.054 60.59L171.053 60.63L172.052 60.67C172.1 59.4833 172.123 57.811 172.123 55.66H171.123ZM157.683 92.13V93.13C158.403 93.13 158.96 92.727 159.355 92.2565C159.746 91.7898 160.07 91.1561 160.35 90.4213C160.914 88.9434 161.399 86.794 161.822 84.0208L160.833 83.87L159.845 83.7192C159.428 86.4526 158.968 88.4333 158.481 89.7087C158.237 90.3506 158.009 90.7494 157.823 90.971C157.64 91.1888 157.593 91.13 157.683 91.13V92.13ZM160.833 83.87L161.822 84.0221C162.67 78.5069 163.209 71.649 163.443 63.4586L162.443 63.43L161.444 63.4014C161.211 71.5443 160.676 78.3132 159.845 83.7179L160.833 83.87ZM162.443 63.43L161.525 63.035C159.502 67.7376 157.899 72.2379 156.719 76.5351L157.683 76.8L158.647 77.0649C159.8 72.8687 161.371 68.4557 163.362 63.825L162.443 63.43ZM157.683 76.8L156.719 76.5351C155.54 80.8281 154.933 84.4935 154.933 87.51H155.933H156.933C156.933 84.7398 157.494 81.2652 158.647 77.0649L157.683 76.8ZM155.933 87.51H154.933C154.933 89.0609 155.123 90.3768 155.588 91.3658L156.493 90.94L157.398 90.5142C157.117 89.9165 156.933 88.9457 156.933 87.51H155.933ZM156.493 90.94L155.569 91.3207C155.914 92.1587 156.545 93.13 157.683 93.13V92.13V91.13C157.767 91.13 157.794 91.1767 157.743 91.1254C157.674 91.0564 157.555 90.8919 157.418 90.5592L156.493 90.94Z" fill="#8B8B8B" mask="url(#path-1-outside-1_649_3441)"/>
<defs>
<radialGradient id="paint0_radial_649_3441" cx="0" cy="0" r="1" gradientUnits="userSpaceOnUse" gradientTransform="translate(94.5 32) rotate(90) scale(56 117.5)">
<stop stop-color="#FFBF96"/>
<stop offset="0.326923" stop-color="#F7BAD2"/>
<stop offset="0.668269" stop-color="#D0ADF4"/>
<stop offset="1" stop-color="#89C0FD"/>
</radialGradient>
</defs>
</svg>
